<svg width="379" height="334" viewBox="0 0 379 334" fill="none" xmlns="http://www.w3.org/2000/svg">
<g clip-path="url(#clip0_817_31844)">
<path d="M27.696 154.014C24.4705 159.518 -0.479796 203.526 17.9131 244.435C37.8254 288.683 101.401 313.533 164.603 289.084C182.516 298.302 218.902 313.773 265.657 310.861C290.767 309.311 324.701 307.2 350.424 281.442C387.557 244.221 377.854 187.307 376.494 180.146C362.82 106.853 285.836 74.5221 277.626 71.2088C201.016 40.4007 101.374 73.3731 27.696 153.987V154.014Z" stroke="#1A1A1A" stroke-linecap="round" stroke-linejoin="round"/>
<path d="M61.9228 246.599C58.8306 244.915 20.3655 223.005 16.2871 177.421C12.5818 135.844 40.5444 108.75 43.983 105.517C36.226 83.4465 42.8368 58.9977 60.2701 44.5155C75.9973 31.4494 98.1487 28.5102 117.315 36.9003C119.714 32.919 132.935 11.8637 160.231 5.31727C189.9 -1.81697 212.744 13.7875 216.183 16.219C240.334 -3.87441 274.88 -4.99665 299.298 12.9592C325.661 32.3312 334.191 69.4453 318.304 99.5587C321.316 103.593 365.619 164.889 338.962 231.903C321.449 275.884 284.237 295.096 273.761 299.985C223.487 323.526 160.365 312.116 111.317 272.197C94.8434 263.673 78.3697 255.123 61.8694 246.599H61.9228Z" fill="white" stroke="#1A1A1A" stroke-linecap="round" stroke-linejoin="round"/>
<path d="M287.089 292.744L273.787 299.985L153.007 186.987V177.741L287.089 292.744Z" fill="white" stroke="#1A1A1A" stroke-linecap="round" stroke-linejoin="round"/>
<path d="M177.265 131.783C177.265 131.783 180.917 114.442 209.332 120.24C237.748 126.038 277.599 103.54 287.382 73.7739C297.165 44.0078 309.827 68.6971 313.452 73.7739C317.077 78.8507 326.3 69.0445 326.3 69.0445C326.3 69.0445 328.673 83.2328 318.33 99.5587C289.541 135.497 229.405 169.859 229.405 169.859L175.479 178.703L177.238 131.783H177.265Z" fill="#D9DBDA"/>
<path d="M299.324 12.9592L175.719 47.2676L172.573 183.032L181.716 184.261L183.876 49.1648L303.536 16.3259L299.324 12.9592Z" fill="white" stroke="#1A1A1A" stroke-linecap="round" stroke-linejoin="round"/>
<path d="M214.29 39.3586L211.145 183.566" stroke="#1A1A1A" stroke-linecap="round" stroke-linejoin="round"/>
<path d="M253.769 27.9224V175.257" stroke="#1A1A1A" stroke-linecap="round" stroke-linejoin="round"/>
<path d="M297.165 16.3259V162.832" stroke="#1A1A1A" stroke-linecap="round" stroke-linejoin="round"/>
<path d="M287.089 292.744L273.787 299.985L153.007 186.987V177.741L287.089 292.744Z" fill="#1A1A1A" stroke="#1A1A1A" stroke-linecap="round" stroke-linejoin="round"/>
<path d="M339.788 229.845C339.709 230.059 339.629 230.273 339.549 230.513C339.362 230.968 339.202 231.422 339.015 231.903C321.502 275.884 284.29 295.096 273.814 299.985L287.089 292.771L153.007 177.741L243.186 163.58L339.788 229.872V229.845Z" fill="white" stroke="#1A1A1A" stroke-linecap="round" stroke-linejoin="round"/>
<path d="M268.43 249.832C268.43 249.832 268.19 238.77 280.691 246.038C293.193 253.306 306.415 259.291 306.601 248.95C306.788 238.61 310.413 234.308 313.132 236.178" stroke="#1A1A1A" stroke-linecap="round" stroke-linejoin="round"/>
<path d="M212.718 199.171L260.486 236.312L240.467 242.163L194.911 203.74L212.718 199.171Z" fill="white" stroke="#1A1A1A" stroke-linecap="round" stroke-linejoin="round"/>
<path d="M211.145 202.137L253.235 235.67" stroke="#1A1A1A" stroke-linecap="round" stroke-linejoin="round"/>
<path d="M206.667 203.9L248.757 237.434" stroke="#1A1A1A" stroke-linecap="round" stroke-linejoin="round"/>
<path d="M202.162 205.664L244.252 239.224" stroke="#1A1A1A" stroke-linecap="round" stroke-linejoin="round"/>
<path d="M251.716 232.998L239.294 237.888" stroke="#1A1A1A" stroke-linecap="round" stroke-linejoin="round"/>
<path d="M247.238 229.338L234.816 234.254" stroke="#1A1A1A" stroke-linecap="round" stroke-linejoin="round"/>
<path d="M242.759 225.704L230.338 230.62" stroke="#1A1A1A" stroke-linecap="round" stroke-linejoin="round"/>
<path d="M238.281 222.07L225.859 226.986" stroke="#1A1A1A" stroke-linecap="round" stroke-linejoin="round"/>
<path d="M233.803 218.436L221.408 223.352" stroke="#1A1A1A" stroke-linecap="round" stroke-linejoin="round"/>
<path d="M229.325 214.802L216.929 219.719" stroke="#1A1A1A" stroke-linecap="round" stroke-linejoin="round"/>
<path d="M224.846 211.168L212.451 216.058" stroke="#1A1A1A" stroke-linecap="round" stroke-linejoin="round"/>
<path d="M220.368 207.534L207.973 212.424" stroke="#1A1A1A" stroke-linecap="round" stroke-linejoin="round"/>
<path d="M215.89 203.9L203.495 208.79" stroke="#1A1A1A" stroke-linecap="round" stroke-linejoin="round"/>
<path d="M150.982 207.882C151.755 206.599 151.995 205.343 152.501 204.061C153.647 201.202 153.354 198.209 153.247 195.163C147.276 187.387 143.571 164.248 140.799 153.907C137.547 141.696 119.66 130.581 119.66 130.581C119.66 130.581 133.069 170.848 132.802 211.168C135.174 214 138.16 215.764 141.465 216.779C145.89 215.443 148.876 211.89 150.982 207.908V207.882Z" fill="#6877EB" stroke="#1A1A1A" stroke-linecap="round" stroke-linejoin="round"/>
<path d="M216.743 194.789C212.265 189.097 205.867 187.414 193.312 193.212C180.757 199.011 164.843 199.144 156.739 197.701C155.487 197.488 154.314 196.552 153.221 195.136C153.327 198.182 153.621 201.175 152.474 204.034C151.968 205.316 151.701 206.572 150.955 207.855C148.849 211.836 145.89 215.39 141.439 216.726C151.515 219.825 164.39 215.817 170.494 213.546C178.571 210.527 192.352 204.595 196.084 204.942C199.816 205.316 200.909 207.614 204.667 211.222C208.399 214.829 209.972 209.538 207.573 207.614C205.147 205.691 205.654 200.587 205.654 200.587C205.654 200.587 210.612 205.904 212.904 208.202C215.197 210.5 221.967 210.393 222.554 208.202C223.14 206.011 221.248 200.453 216.769 194.762L216.743 194.789Z" fill="white" stroke="#1A1A1A" stroke-linecap="round" stroke-linejoin="round"/>
<path d="M135.708 109.151L128.99 133.066L108.385 116.072C108.385 116.072 115.076 107.254 114.729 101.723C114.356 96.192 111.477 72.0371 123.872 64.4219C136.267 56.8067 149.329 61.5094 154.74 66.8802C160.178 72.2242 155.567 93.3062 153.007 99.2915C150.475 105.277 147.943 111.823 139.519 110.193L135.708 109.178V109.151Z" fill="white" stroke="#1A1A1A" stroke-linecap="round" stroke-linejoin="round"/>
<path d="M126.804 103.433C126.804 103.433 133.282 108.537 135.708 109.178C134.188 114.094 134.002 115.136 134.002 115.136C134.002 115.136 127.071 109.258 126.831 103.433H126.804Z" fill="#1A1A1A" stroke="#1A1A1A" stroke-linecap="round" stroke-linejoin="round"/>
<path d="M123.392 92.4779C123.392 92.4779 118.514 87.6683 121.846 83.7672C125.205 79.8661 129.443 81.683 131.629 85.8513C133.442 86.4926 134.268 83.3931 133.975 80.6677C133.682 77.9422 132.802 68.323 137.04 66.9603C141.305 65.5976 145.197 67.4947 149.729 72.144C154.26 76.7665 162.684 77.1406 165.11 69.6056C167.562 62.0705 163.483 58.6237 163.483 58.6237C163.483 58.6237 163.297 60.7345 158.872 60.4406C154.447 60.1734 151.995 55.7112 147.463 55.8982C147.463 55.8982 138.586 45.6377 124.832 56.4326C116.675 56.6998 107.185 68.0558 108.358 77.1406C109.531 86.2254 110.704 97.5547 116.142 98.9174C121.473 98.0089 123.392 92.4779 123.392 92.4779Z" fill="#1A1A1A" stroke="#1A1A1A" stroke-linecap="round" stroke-linejoin="round"/>
<path d="M154.26 273.292C154.26 273.292 130.083 283.927 104.546 281.736C79.0094 279.545 51.5801 250.126 50.7537 230.807C49.9274 211.489 65.1481 136.593 89.8586 122.164C105.612 116.179 127.737 129.939 134.268 147.842C140.799 165.744 144.397 187.548 145.25 195.163C146.103 202.778 154.82 269.231 154.234 273.292H154.26Z" fill="#6877EB" stroke="#1A1A1A" stroke-linecap="round" stroke-linejoin="round"/>
<path d="M90.4451 122.618C90.4451 122.618 98.0421 113.72 109.744 113.266C124.512 125.611 136.374 136.406 136.454 138.035C136.534 139.665 134.561 150.647 133.388 150.3C129.417 143.406 112.836 118.797 90.4717 122.618H90.4451Z" fill="white" stroke="#1A1A1A" stroke-linecap="round" stroke-linejoin="round"/>
<path d="M305.722 229.177L299.617 230.674L276.4 236.312L237.055 205.958L231.111 201.389L258.513 195.537L305.722 229.177Z" fill="white" stroke="#1A1A1A" stroke-linecap="round" stroke-linejoin="round"/>
<path d="M276.4 236.312V242.163L231.111 207.24V201.389L237.055 205.958L276.4 236.312Z" fill="white" stroke="#1A1A1A" stroke-linecap="round" stroke-linejoin="round"/>
<path d="M299.617 230.674L276.4 236.312V242.163L305.722 235.029V229.177L299.617 230.674Z" fill="#1A1A1A" stroke="#1A1A1A" stroke-linecap="round" stroke-linejoin="round"/>
<path d="M376.095 97.3944L357.355 241.388C356.449 248.469 350.318 251.596 344.24 253.386C341.521 254.187 336.67 254.294 333.658 253.038C341.201 254.802 349.278 249.779 350.371 241.362L369.111 97.3677C370.044 90.0998 365.219 83.687 358.581 82.164L360.9 81.8968C369.777 80.9082 377.214 88.4966 376.068 97.3677L376.095 97.3944Z" fill="#1A1A1A" stroke="#1A1A1A" stroke-linecap="round" stroke-linejoin="round"/>
<path d="M369.137 97.3942L350.398 241.388C349.305 249.805 341.228 254.802 333.684 253.065C332.085 252.691 330.485 251.996 328.993 250.981L224.873 179.425C220.955 176.726 218.689 172.183 218.902 167.427L221.621 108.51C221.941 101.75 227.112 96.2185 233.83 95.4437L353.97 81.9233C355.569 81.7363 357.142 81.8432 358.608 82.1905C365.245 83.7403 370.07 90.1531 369.137 97.3942Z" fill="white" stroke="#1A1A1A" stroke-linecap="round" stroke-linejoin="round"/>
<path d="M225.886 165.37L228.312 112.464C228.552 106.987 232.763 102.498 238.201 101.883L349.358 89.3517C356.529 88.5501 362.58 94.6957 361.647 101.883L344.507 233.586C343.44 241.843 334.031 246.064 327.18 241.362L230.737 175.096C227.565 172.905 225.726 169.244 225.913 165.37H225.886Z" fill="white" stroke="#1A1A1A" stroke-linecap="round" stroke-linejoin="round"/>
<path d="M225.886 165.37L228.312 112.464C228.552 106.987 232.763 102.498 238.201 101.883L349.358 89.3517C356.529 88.5501 362.58 94.6957 361.647 101.883L344.507 233.586C343.44 241.843 334.031 246.064 327.18 241.362L230.737 175.096C227.565 172.905 225.726 169.244 225.913 165.37H225.886Z" fill="#6877EB" stroke="#1A1A1A" stroke-linecap="round" stroke-linejoin="round"/>
<path d="M351.944 121.229L337.443 232.651C337.15 234.976 335.204 236.178 333.418 236.178C331.632 236.178 331.872 235.938 331.179 235.457L234.736 169.191C233.59 168.389 232.923 167.08 233.003 165.691L233.909 146.078C238.388 140.066 242.36 138.516 245.212 138.223C252.569 137.448 255.261 144.689 267.656 147.655C272.641 148.857 280.292 150.674 286.662 146.933C293.353 143.005 293.273 136.112 299.884 134.589C304.522 133.52 308.681 135.951 309.134 136.219C314.118 139.211 313.106 143.593 317.104 146.212C323.448 150.353 333.684 144.422 334.297 144.048C341.388 139.826 338.749 132.398 345.893 125.531C347.865 123.633 349.998 122.244 351.97 121.255L351.944 121.229Z" fill="#8E9DF4"/>
<mask id="mask0_817_31844" style="mask-type:luminance" maskUnits="userSpaceOnUse" x="232" y="121" width="120" height="116">
<path d="M351.944 121.229L337.443 232.651C337.15 234.976 335.204 236.178 333.418 236.178C331.632 236.178 331.872 235.938 331.179 235.457L234.736 169.191C233.59 168.389 232.923 167.08 233.003 165.691L233.909 146.078C238.388 140.066 242.36 138.516 245.212 138.223C252.569 137.448 255.261 144.689 267.656 147.655C272.641 148.857 280.292 150.674 286.662 146.933C293.353 143.005 293.273 136.112 299.884 134.589C304.522 133.52 308.681 135.951 309.134 136.219C314.118 139.211 313.106 143.593 317.104 146.212C323.448 150.353 333.684 144.422 334.297 144.048C341.388 139.826 338.749 132.398 345.893 125.531C347.865 123.633 349.998 122.244 351.97 121.255L351.944 121.229Z" fill="white"/>
</mask>
<g mask="url(#mask0_817_31844)">
<path d="M240.574 133.039L238.121 173.092" stroke="#1A1A1A" stroke-linecap="round" stroke-linejoin="round"/>
<path d="M249.237 131.756L245.772 178.57" stroke="#1A1A1A" stroke-linecap="round" stroke-linejoin="round"/>
<path d="M257.874 130.5L253.422 184.047" stroke="#1A1A1A" stroke-linecap="round" stroke-linejoin="round"/>
<path d="M266.537 129.218L261.072 189.525" stroke="#1A1A1A" stroke-linecap="round" stroke-linejoin="round"/>
<path d="M275.2 127.935L268.723 195.003" stroke="#1A1A1A" stroke-linecap="round" stroke-linejoin="round"/>
<path d="M283.864 126.653L276.4 200.48" stroke="#1A1A1A" stroke-linecap="round" stroke-linejoin="round"/>
<path d="M292.527 125.37L284.05 205.984" stroke="#1A1A1A" stroke-linecap="round" stroke-linejoin="round"/>
<path d="M301.19 124.088L291.7 211.462" stroke="#1A1A1A" stroke-linecap="round" stroke-linejoin="round"/>
<path d="M309.827 122.805L299.351 216.94" stroke="#1A1A1A" stroke-linecap="round" stroke-linejoin="round"/>
<path d="M318.49 121.549L307.001 222.417" stroke="#1A1A1A" stroke-linecap="round" stroke-linejoin="round"/>
<path d="M327.153 120.267L314.652 227.895" stroke="#1A1A1A" stroke-linecap="round" stroke-linejoin="round"/>
<path d="M335.817 118.984L322.302 233.372" stroke="#1A1A1A" stroke-linecap="round" stroke-linejoin="round"/>
<path d="M344.48 117.702L329.952 238.85" stroke="#1A1A1A" stroke-linecap="round" stroke-linejoin="round"/>
</g>
<path d="M351.944 121.229L337.443 232.651C337.15 234.976 335.204 236.178 333.418 236.178C331.632 236.178 331.872 235.938 331.179 235.457L234.736 169.191C233.59 168.389 232.923 167.08 233.003 165.691L233.909 146.078C238.388 140.066 242.36 138.516 245.212 138.223C252.569 137.448 255.261 144.689 267.656 147.655C272.641 148.857 280.292 150.674 286.662 146.933C293.353 143.005 293.273 136.112 299.884 134.589C304.522 133.52 308.681 135.951 309.134 136.219C314.118 139.211 313.106 143.593 317.104 146.212C323.448 150.353 333.684 144.422 334.297 144.048C341.388 139.826 338.749 132.398 345.893 125.531C347.865 123.633 349.998 122.244 351.97 121.255L351.944 121.229Z" stroke="#1A1A1A" stroke-linecap="round" stroke-linejoin="round"/>
<path d="M354.583 100.975L351.944 121.255C349.971 122.244 347.865 123.607 345.866 125.531C338.722 132.398 341.361 139.826 334.271 144.048C333.631 144.422 323.395 150.353 317.077 146.212C313.079 143.593 314.092 139.211 309.107 136.219C308.681 135.951 304.496 133.52 299.857 134.589C293.247 136.112 293.327 143.005 286.636 146.933C280.265 150.701 272.615 148.857 267.63 147.655C255.235 144.689 252.542 137.448 245.185 138.223C242.333 138.516 238.361 140.066 233.883 146.078L235.429 112.785C235.509 110.781 237.028 109.178 239.001 108.964L350.158 96.4325C350.318 96.4325 350.478 96.4058 350.638 96.4058C351.784 96.4058 352.877 96.9134 353.65 97.7952C354.103 98.3029 354.823 99.3984 354.61 100.975H354.583Z" fill="white" stroke="#1A1A1A" stroke-linecap="round" stroke-linejoin="round"/>
<path d="M240.84 113.266L267.283 110.273V114.789L240.84 115.885V113.266Z" fill="white" stroke="#1A1A1A" stroke-linecap="round" stroke-linejoin="round"/>
<path d="M186.381 183.032C195.553 183.032 202.988 180.245 202.988 176.806C202.988 173.368 195.553 170.58 186.381 170.58C177.209 170.58 169.774 173.368 169.774 176.806C169.774 180.245 177.209 183.032 186.381 183.032Z" fill="white" stroke="#1A1A1A" stroke-linecap="round" stroke-linejoin="round"/>
<path d="M186.381 181.99C194.007 181.99 200.189 179.669 200.189 176.806C200.189 173.943 194.007 171.623 186.381 171.623C178.755 171.623 172.573 173.943 172.573 176.806C172.573 179.669 178.755 181.99 186.381 181.99Z" fill="white" stroke="#1A1A1A" stroke-linecap="round" stroke-linejoin="round"/>
<path d="M198.217 161.549L187.128 161.015H186.968H186.808L175.719 161.549C175.719 161.549 173.266 178.329 184.329 178.703H189.607C200.642 178.329 198.217 161.549 198.217 161.549Z" fill="white" stroke="#1A1A1A" stroke-linecap="round" stroke-linejoin="round"/>
<path d="M186.994 164.248C193.207 164.248 198.243 162.968 198.243 161.389C198.243 159.81 193.207 158.53 186.994 158.53C180.782 158.53 175.745 159.81 175.745 161.389C175.745 162.968 180.782 164.248 186.994 164.248Z" fill="#1A1A1A" stroke="#1A1A1A" stroke-linecap="round" stroke-linejoin="round"/>
<path d="M76.3971 164.248C74.6111 174.588 75.091 194.201 93.6971 219.371C105.692 235.617 117.501 251.435 130.989 263.085C139.093 261.749 145.25 254.535 149.462 247.347C152.474 242.35 154.154 236.899 154.74 231.208C141.305 212.157 127.337 185.757 116.915 168.737C116.915 168.737 116.408 166.947 115.689 162.832" fill="#6877EB"/>
<path d="M76.3971 164.248C74.6111 174.588 75.091 194.201 93.6971 219.371C105.692 235.617 117.501 251.435 130.989 263.085C139.093 261.749 145.25 254.535 149.462 247.347C152.474 242.35 154.154 236.899 154.74 231.208C141.305 212.157 127.337 185.757 116.915 168.737C116.915 168.737 116.408 166.947 115.689 162.832" stroke="#1A1A1A" stroke-linecap="round" stroke-linejoin="round"/>
<path d="M249.717 245.503C249.717 245.503 258.7 238.423 268.429 245.503C272.081 248.309 272.348 252.317 272.348 252.317C272.348 252.317 261.579 258.676 255.421 257.046C249.264 255.416 249.717 245.53 249.717 245.53V245.503Z" fill="white" stroke="#1A1A1A" stroke-linecap="round" stroke-linejoin="round"/>
<path d="M266.004 246.412C266.004 246.412 268.803 246.332 269.976 246.973C268.963 245.343 268.11 245.103 268.11 245.103L264.511 245.156L266.03 246.439L266.004 246.412Z" fill="#1A1A1A" stroke="#1A1A1A" stroke-linecap="round" stroke-linejoin="round"/>
<path d="M262.858 243.927C262.592 241.656 259.366 237.915 256.461 236.178C253.555 234.441 243.932 234.762 242.573 235.67C241.213 236.579 235.749 243.339 234.496 244.702C234.496 244.702 184.329 258.596 168.095 246.599C164.31 243.793 159.698 238.262 154.713 231.208C154.127 236.899 152.448 242.35 149.435 247.347C145.197 254.535 139.04 261.749 130.963 263.085C148.929 278.609 169.881 286.706 198.27 278.476C230.044 267.04 233.856 260.226 237.375 260.226C240.893 260.226 252.596 259.184 255.421 255.844C255.608 255.63 255.768 255.39 255.848 255.149C255.848 255.149 263.125 246.225 262.858 243.954V243.927Z" fill="white" stroke="#1A1A1A" stroke-linecap="round" stroke-linejoin="round"/>
<path d="M332.058 39.3318C336.328 39.3318 339.789 35.8626 339.789 31.583C339.789 27.3035 336.328 23.8342 332.058 23.8342C327.789 23.8342 324.328 27.3035 324.328 31.583C324.328 35.8626 327.789 39.3318 332.058 39.3318Z" fill="#1A1A1A" stroke="#1A1A1A" stroke-linecap="round" stroke-linejoin="round"/>
<path d="M15.9405 117.167C24.597 117.167 31.6145 110.193 31.6145 101.589C31.6145 92.9861 24.597 86.0117 15.9405 86.0117C7.28406 86.0117 0.266602 92.9861 0.266602 101.589C0.266602 110.193 7.28406 117.167 15.9405 117.167Z" fill="white" stroke="#1A1A1A" stroke-linecap="round" stroke-linejoin="round"/>
<path d="M211.145 333.733C221.818 333.733 230.471 325.131 230.471 314.521C230.471 303.911 221.818 295.309 211.145 295.309C200.472 295.309 191.819 303.911 191.819 314.521C191.819 325.131 200.472 333.733 211.145 333.733Z" fill="white" stroke="#1A1A1A" stroke-linecap="round" stroke-linejoin="round"/>
</g>
<defs>
<clipPath id="clip0_817_31844">
<rect width="379" height="334" fill="white"/>
</clipPath>
</defs>
</svg>
