<svg width="16" height="69" viewBox="0 0 16 69" fill="none" xmlns="http://www.w3.org/2000/svg">
<path d="M7.64644 68.3536C7.84171 68.5488 8.15829 68.5488 8.35355 68.3536L11.5355 65.1716C11.7308 64.9763 11.7308 64.6597 11.5355 64.4645C11.3403 64.2692 11.0237 64.2692 10.8284 64.4645L8 67.2929L5.17157 64.4645C4.97631 64.2692 4.65973 64.2692 4.46446 64.4645C4.2692 64.6597 4.2692 64.9763 4.46446 65.1716L7.64644 68.3536ZM7.5 -2.18557e-08L7.5 4.25L8.5 4.25L8.5 2.18557e-08L7.5 -2.18557e-08ZM7.5 12.75L7.5 21.25L8.5 21.25L8.5 12.75L7.5 12.75ZM7.5 29.75L7.5 38.25L8.5 38.25L8.5 29.75L7.5 29.75ZM7.5 46.75L7.5 55.25L8.5 55.25L8.5 46.75L7.5 46.75ZM7.5 63.75L7.5 68L8.5 68L8.5 63.75L7.5 63.75ZM7.29289 68.7071C7.68341 69.0976 8.31658 69.0976 8.7071 68.7071L15.0711 62.3431C15.4616 61.9526 15.4616 61.3195 15.0711 60.9289C14.6805 60.5384 14.0474 60.5384 13.6569 60.9289L8 66.5858L2.34314 60.9289C1.95262 60.5384 1.31945 60.5384 0.92893 60.9289C0.538405 61.3195 0.538405 61.9526 0.928929 62.3431L7.29289 68.7071ZM7 -4.37114e-08L7 4.25L9 4.25L9 4.37114e-08L7 -4.37114e-08ZM7 12.75L7 21.25L9 21.25L9 12.75L7 12.75ZM7 29.75L7 38.25L9 38.25L9 29.75L7 29.75ZM7 46.75L7 55.25L9 55.25L9 46.75L7 46.75ZM7 63.75L7 68L9 68L9 63.75L7 63.75Z" fill="#377FD2"/>
</svg>
