<svg width="45" height="45" viewBox="0 0 45 45" fill="none" xmlns="http://www.w3.org/2000/svg">
<path fill-rule="evenodd" clip-rule="evenodd" d="M5.70094 4.29825C4.96825 4.04065 4.16547 4.42579 3.90787 5.15847C3.65027 5.89116 4.03541 6.69394 4.76809 6.95154L5.25786 7.12373C6.50963 7.56383 7.33229 7.85548 7.93762 8.1525C8.50617 8.43147 8.7568 8.65728 8.92191 8.8989C9.09115 9.14655 9.22184 9.48672 9.29559 10.168C9.37275 10.8809 9.37466 11.8094 9.37466 13.1968L9.37466 18.075C9.37466 23.5904 9.49323 25.4106 11.1177 27.124C12.7422 28.8375 15.3568 28.8375 20.586 28.8375H30.5289C33.4559 28.8375 34.9193 28.8375 35.9538 27.9945C36.9883 27.1515 37.2837 25.7181 37.8745 22.8515L38.8116 18.3051C39.4624 15.0444 39.7878 13.414 38.9555 12.332C38.1231 11.25 35.2791 11.25 32.1198 11.25H12.1732C12.1606 10.7431 12.1368 10.282 12.0918 9.86534C11.991 8.93462 11.7727 8.08578 11.244 7.31208C10.7112 6.53233 10.0027 6.03295 9.17653 5.62757C8.40386 5.24845 7.42205 4.90331 6.26606 4.49693L5.70094 4.29825ZM29.0949 15.8567C29.6573 16.3923 29.679 17.2824 29.1434 17.8448L23.7862 23.4698C23.5208 23.7485 23.1528 23.9062 22.7679 23.9062C22.3831 23.9062 22.015 23.7485 21.7496 23.4698L19.6067 21.2198C19.0711 20.6574 19.0928 19.7673 19.6552 19.2317C20.2176 18.696 21.1078 18.7177 21.6434 19.2801L22.7679 20.4609L27.1067 15.9051C27.6424 15.3427 28.5325 15.321 29.0949 15.8567Z" fill="#6877EB"/>
<path d="M14.0626 33.75C15.6159 33.75 16.8751 35.0092 16.8751 36.5625C16.8751 38.1158 15.6159 39.375 14.0626 39.375C12.5093 39.375 11.2501 38.1158 11.2501 36.5625C11.2501 35.0092 12.5093 33.75 14.0626 33.75Z" fill="#6877EB"/>
<path d="M30.9376 33.7501C32.4909 33.7501 33.7501 35.0093 33.7501 36.5626C33.7501 38.1159 32.4909 39.3751 30.9376 39.3751C29.3843 39.3751 28.1251 38.1159 28.1251 36.5626C28.1251 35.0093 29.3843 33.7501 30.9376 33.7501Z" fill="#6877EB"/>
</svg>
