<svg width="85" height="85" viewBox="0 0 85 85" fill="none" xmlns="http://www.w3.org/2000/svg">
<g filter="url(#filter0_d_230_25)">
<rect x="10" y="10" width="65" height="65" rx="10" fill="white"/>
</g>
<path d="M57.4405 42.4751H44.5595C43.1482 42.4751 42 41.3269 42 39.9156V28.0844C42 26.6731 43.1482 25.5249 44.5595 25.5249H57.4405C58.8518 25.5249 60 26.6731 60 28.0844V39.9156C60 41.3269 58.8518 42.4751 57.4405 42.4751ZM44.5595 26.5385C43.7071 26.5385 43.0136 27.232 43.0136 28.0844V39.9156C43.0136 40.7681 43.7071 41.4615 44.5595 41.4615H57.4405C58.293 41.4615 58.9864 40.768 58.9864 39.9156V28.0844C58.9864 27.2319 58.293 26.5385 57.4405 26.5385L44.5595 26.5385Z" fill="#377FD2"/>
<rect x="44" y="30" width="14" height="8" rx="1" fill="#CEE8FA"/>
<path d="M45.7723 35.4499H46.4811L46.9665 33.7486H47.0034L47.4971 35.4499H48.2018L48.9741 32.6696H48.1997L47.8126 34.5116H47.7757L47.2861 32.6696H46.6839L46.2107 34.5116H46.1738L45.7805 32.6696H45L45.7723 35.4499Z" fill="#377FD2"/>
<path d="M50.2052 35.5C50.3882 35.5 50.5446 35.4782 50.6743 35.4345C50.804 35.3908 50.9106 35.3349 50.9939 35.2669C51.0785 35.1988 51.1434 35.1268 51.1885 35.0511C51.2349 34.974 51.2656 34.904 51.2806 34.841L51.2868 34.8179L50.6231 34.8198L50.6169 34.8276C50.6074 34.8455 50.5862 34.8693 50.5534 34.8988C50.522 34.9284 50.4783 34.9554 50.4223 34.9798C50.3677 35.0029 50.3001 35.0145 50.2195 35.0145C50.1253 35.0145 50.044 34.9952 49.9758 34.9566C49.9088 34.9168 49.8576 34.8597 49.8221 34.7852C49.7866 34.7107 49.7689 34.6214 49.7689 34.5173V34.2418C49.7689 34.1352 49.7866 34.0446 49.8221 33.9701C49.859 33.8956 49.9095 33.8391 49.9737 33.8006C50.0379 33.7608 50.1123 33.7408 50.197 33.7408C50.2817 33.7408 50.3554 33.7601 50.4182 33.7987C50.4824 33.8372 50.5323 33.8937 50.5678 33.9682C50.6033 34.0414 50.621 34.1326 50.621 34.2418V34.5135L50.957 34.1339H49.4145V34.5308H51.3011V34.3343C51.3011 34.1159 51.2554 33.9258 51.1639 33.764C51.0724 33.6021 50.9426 33.4769 50.7747 33.3882C50.6067 33.2996 50.408 33.2553 50.1786 33.2553C49.9491 33.2553 49.7504 33.3009 49.5825 33.3921C49.4145 33.482 49.2841 33.6111 49.1912 33.7794C49.0997 33.9464 49.0539 34.1455 49.0539 34.3767V34.3786C49.0539 34.6111 49.1004 34.8109 49.1932 34.9778C49.2861 35.1448 49.4179 35.2739 49.5886 35.3651C49.7607 35.455 49.9662 35.5 50.2052 35.5Z" fill="#377FD2"/>
<path d="M53.2083 35.4827C53.3981 35.4827 53.5606 35.439 53.6958 35.3516C53.831 35.263 53.9355 35.1365 54.0092 34.9721C54.083 34.8076 54.1198 34.6098 54.1198 34.3786V34.3748C54.1198 34.1423 54.0836 33.9438 54.0113 33.7794C53.9403 33.615 53.8365 33.4897 53.6999 33.4037C53.5647 33.3163 53.4008 33.2726 53.2083 33.2726C53.0526 33.2726 52.916 33.306 52.7986 33.3728C52.6825 33.4396 52.5964 33.5321 52.5405 33.6503H52.5015V32.5H51.7743V35.4499H52.5015V35.1224H52.5405C52.5951 35.2367 52.6798 35.3253 52.7945 35.3882C52.9092 35.4512 53.0471 35.4827 53.2083 35.4827ZM52.9399 34.9258C52.8498 34.9258 52.7713 34.904 52.7043 34.8603C52.6388 34.8166 52.5876 34.7543 52.5507 34.6734C52.5152 34.5912 52.4974 34.4936 52.4974 34.3805V34.3767C52.4974 34.2624 52.5159 34.1647 52.5527 34.0838C52.5896 34.0016 52.6408 33.9387 52.7064 33.895C52.7733 33.8513 52.8511 33.8295 52.9399 33.8295C53.03 33.8295 53.1079 33.852 53.1734 33.8969C53.2404 33.9406 53.2916 34.0035 53.3271 34.0857C53.3626 34.1667 53.3803 34.263 53.3803 34.3748V34.3786C53.3803 34.4929 53.3626 34.5912 53.3271 34.6734C53.2916 34.7543 53.2404 34.8166 53.1734 34.8603C53.1079 34.904 53.03 34.9258 52.9399 34.9258Z" fill="#377FD2"/>
<path d="M55.0171 34.6368H55.9143C56.1342 34.6368 56.3254 34.597 56.4879 34.5173C56.6504 34.4364 56.776 34.3227 56.8648 34.1763C56.9549 34.0286 57 33.8558 57 33.658V33.6541C57 33.455 56.9549 33.2823 56.8648 33.1358C56.776 32.9881 56.6504 32.8738 56.4879 32.7929C56.3254 32.7107 56.1342 32.6696 55.9143 32.6696H55.0171V33.2129H55.732C55.8918 33.2129 56.016 33.2502 56.1048 33.3247C56.1949 33.3992 56.24 33.509 56.24 33.6541V33.658C56.24 33.8019 56.1949 33.9117 56.1048 33.9875C56.016 34.0633 55.8918 34.1012 55.732 34.1012H55.0171V34.6368ZM54.6402 35.4499H55.3919V32.6696H54.6402V35.4499Z" fill="#377FD2"/>
<path d="M26.4491 59.0369C26.3565 59.0369 26.2627 59.0115 26.1787 58.9584C25.9422 58.8088 25.8717 58.4957 26.0213 58.2591L29.4388 52.8561C29.608 52.5808 29.9014 52.4167 30.2248 52.4167C30.5502 52.4167 30.8452 52.5828 31.0138 52.8611L31.6021 53.8319C31.7471 54.0712 31.6707 54.3829 31.4313 54.528C31.1919 54.6731 30.8802 54.5966 30.7353 54.3572L30.2232 53.5122L26.8779 58.801C26.7814 58.9534 26.6171 59.0369 26.4491 59.0369Z" fill="#377FD2"/>
<path d="M30.8569 58.766L35.7298 50.7258C35.9604 50.3452 36.5126 50.3452 36.7432 50.7258L41.616 58.5301" fill="#CEE8FA"/>
<path d="M30.8565 59.2728C30.7669 59.2728 30.6764 59.2491 30.5943 59.1994C30.3549 59.0543 30.2785 58.7426 30.4235 58.5033L35.2964 50.4631C35.4973 50.1315 35.8487 49.9336 36.2365 49.9336C36.623 49.9336 36.9735 50.1303 37.1748 50.4601L42.046 58.2617C42.1942 58.4991 42.1219 58.8117 41.8845 58.96C41.6471 59.1082 41.3344 59.0359 41.1862 58.7985L36.3134 50.9942C36.3122 50.9923 36.311 50.9904 36.3099 50.9885C36.2933 50.9611 36.2687 50.9473 36.2366 50.9473C36.2045 50.9473 36.1799 50.9611 36.1633 50.9885L31.2903 59.0287C31.195 59.186 31.0278 59.2728 30.8565 59.2728Z" fill="#377FD2"/>
<path d="M40.4405 59.4751H27.5595C26.1482 59.4751 25 58.3269 25 56.9156V45.0844C25 43.6731 26.1482 42.5249 27.5595 42.5249H40.4405C41.8518 42.5249 43 43.6731 43 45.0844V56.9156C43 58.3269 41.8518 59.4751 40.4405 59.4751ZM27.5595 43.5385C26.7071 43.5385 26.0136 44.232 26.0136 45.0844V56.9156C26.0136 57.7681 26.7071 58.4615 27.5595 58.4615H40.4405C41.293 58.4615 41.9864 57.768 41.9864 56.9156V45.0844C41.9864 44.2319 41.293 43.5385 40.4405 43.5385L27.5595 43.5385Z" fill="#377FD2"/>
<path d="M31.1685 48.9061C32.0687 48.9061 32.7984 48.1764 32.7984 47.2763C32.7984 46.3761 32.0687 45.6464 31.1685 45.6464C30.2684 45.6464 29.5387 46.3761 29.5387 47.2763C29.5387 48.1764 30.2684 48.9061 31.1685 48.9061Z" fill="#CEE8FA"/>
<path d="M31.1687 49.4125C29.9906 49.4125 29.0322 48.4541 29.0322 47.2761C29.0322 46.098 29.9906 45.1396 31.1687 45.1396C32.3467 45.1396 33.3052 46.098 33.3052 47.2761C33.3052 48.4541 32.3467 49.4125 31.1687 49.4125ZM31.1687 46.1532C30.5495 46.1532 30.0458 46.6569 30.0458 47.2761C30.0458 47.8952 30.5495 48.399 31.1687 48.399C31.7879 48.399 32.2916 47.8953 32.2916 47.2761C32.2916 46.6569 31.7878 46.1532 31.1687 46.1532Z" fill="#377FD2"/>
<path d="M45.5438 53C47.3153 52.6626 49.004 52 50.5187 51.048C52.2689 49.9527 53.7615 48.5126 54.8993 46.8213V47.6667C54.8993 47.8081 54.9573 47.9438 55.0605 48.0438C55.1637 48.1438 55.3037 48.2 55.4497 48.2C55.5956 48.2 55.7356 48.1438 55.8388 48.0438C55.942 47.9438 56 47.8081 56 47.6667V45.5333C56 45.3919 55.942 45.2562 55.8388 45.1562C55.7356 45.0562 55.5956 45 55.4497 45H53.2484C53.1024 45 52.9624 45.0562 52.8592 45.1562C52.756 45.2562 52.698 45.3919 52.698 45.5333C52.698 45.6748 52.756 45.8104 52.8592 45.9105C52.9624 46.0105 53.1024 46.0667 53.2484 46.0667H54.0739C53.0127 47.7039 51.5968 49.0979 49.9244 50.152C48.5484 51.0058 47.0256 51.6137 45.4282 51.9467C45.2968 51.9756 45.181 52.0503 45.1026 52.1566C45.0242 52.2628 44.9888 52.3932 45.0031 52.5231C45.0173 52.653 45.0803 52.7732 45.1799 52.8611C45.2796 52.949 45.409 52.9984 45.5438 53Z" fill="#377FD2"/>
<path d="M40.4562 33C38.6847 33.3374 36.996 34 35.4813 34.952C33.7311 36.0473 32.2385 37.4874 31.1007 39.1787V38.3333C31.1007 38.1919 31.0427 38.0562 30.9395 37.9562C30.8363 37.8562 30.6963 37.8 30.5503 37.8C30.4044 37.8 30.2644 37.8562 30.1612 37.9562C30.058 38.0562 30 38.1919 30 38.3333V40.4667C30 40.6081 30.058 40.7438 30.1612 40.8438C30.2644 40.9438 30.4044 41 30.5503 41H32.7516C32.8976 41 33.0376 40.9438 33.1408 40.8438C33.244 40.7438 33.302 40.6081 33.302 40.4667C33.302 40.3252 33.244 40.1896 33.1408 40.0895C33.0376 39.9895 32.8976 39.9333 32.7516 39.9333H31.9261C32.9873 38.2961 34.4032 36.9021 36.0756 35.848C37.4516 34.9942 38.9744 34.3863 40.5718 34.0533C40.7032 34.0244 40.819 33.9497 40.8974 33.8434C40.9758 33.7372 41.0112 33.6068 40.9969 33.4769C40.9827 33.347 40.9197 33.2268 40.8201 33.1389C40.7204 33.051 40.591 33.0016 40.4562 33Z" fill="#377FD2"/>
<defs>
<filter id="filter0_d_230_25" x="0" y="0" width="85" height="85" filterUnits="userSpaceOnUse" color-interpolation-filters="sRGB">
<feFlood flood-opacity="0" result="BackgroundImageFix"/>
<feColorMatrix in="SourceAlpha" type="matrix" values="0 0 0 0 0 0 0 0 0 0 0 0 0 0 0 0 0 0 127 0" result="hardAlpha"/>
<feOffset/>
<feGaussianBlur stdDeviation="5"/>
<feComposite in2="hardAlpha" operator="out"/>
<feColorMatrix type="matrix" values="0 0 0 0 0.240719 0 0 0 0 0.434868 0 0 0 0 0.662782 0 0 0 0.2 0"/>
<feBlend mode="normal" in2="BackgroundImageFix" result="effect1_dropShadow_230_25"/>
<feBlend mode="normal" in="SourceGraphic" in2="effect1_dropShadow_230_25" result="shape"/>
</filter>
</defs>
</svg>
