<svg width="45" height="45" viewBox="0 0 45 45" fill="none" xmlns="http://www.w3.org/2000/svg">
<g id="Bold / Essentional, UI / Cup">
<g id="Vector">
<path d="M41.2499 15.3044L41.2499 15.4404C41.2498 17.0543 41.2498 17.8612 40.8613 18.5214C40.4729 19.1816 39.7675 19.5735 38.3567 20.3573L36.8692 21.1837C37.8942 17.7184 38.2362 13.9953 38.3626 10.8112C38.368 10.6747 38.3741 10.5365 38.3803 10.3968L38.3846 10.299C39.6058 10.7231 40.2914 11.0392 40.7191 11.6327C41.25 12.3692 41.2499 13.3476 41.2499 15.3044Z" fill="#6877EB"/>
<path d="M3.75 15.3044L3.75001 15.4404C3.75005 17.0543 3.75007 17.8612 4.13855 18.5214C4.52703 19.1816 5.23243 19.5735 6.64321 20.3573L8.13151 21.1842C7.10639 17.7188 6.76439 13.9954 6.63797 10.8112C6.63255 10.6747 6.62644 10.5365 6.62027 10.3968L6.61595 10.2987C5.39439 10.7229 4.7086 11.0391 4.28081 11.6327C3.74992 12.3692 3.74995 13.3476 3.75 15.3044Z" fill="#6877EB"/>
<path fill-rule="evenodd" clip-rule="evenodd" d="M30.7071 4.40014C28.5995 4.04454 25.8444 3.75 22.5003 3.75C19.1561 3.75 16.4011 4.04454 14.2935 4.40014C12.1583 4.76038 11.0908 4.94051 10.1988 6.03906C9.30684 7.13762 9.35398 8.32495 9.44826 10.6996C9.77191 18.8519 11.5312 29.0345 21.0938 29.9356V36.5625H18.4121C17.5184 36.5625 16.7488 37.1934 16.5735 38.0698L16.2188 39.8438H11.25C10.4733 39.8438 9.84375 40.4734 9.84375 41.25C9.84375 42.0266 10.4733 42.6562 11.25 42.6562H33.75C34.5266 42.6562 35.1562 42.0266 35.1562 41.25C35.1562 40.4734 34.5266 39.8438 33.75 39.8438H28.7812L28.4265 38.0698C28.2512 37.1934 27.4816 36.5625 26.5879 36.5625H23.9062V29.9357C33.4693 29.0349 35.2287 18.8521 35.5523 10.6996C35.6466 8.32495 35.6937 7.13762 34.8018 6.03906C33.9098 4.94051 32.8422 4.76038 30.7071 4.40014Z" fill="#6877EB"/>
</g>
</g>
</svg>
