<svg width="85" height="85" viewBox="0 0 85 85" fill="none" xmlns="http://www.w3.org/2000/svg">
<g filter="url(#filter0_d_230_28)">
<rect x="10" y="10" width="65" height="65" rx="10" fill="white"/>
</g>
<path d="M56.2354 40.4681C55.8131 40.4681 55.4708 40.1246 55.4708 39.7008V37.7717C55.4708 36.934 54.7917 36.2525 53.957 36.2525H31.043C30.2083 36.2525 29.5292 36.934 29.5292 37.7717V38.9334L28.6602 38.9263C29.0825 38.9263 29.4249 39.2698 29.4249 39.6936C29.4249 40.1174 29.0824 40.461 28.6602 40.461L28.7646 40.4681C28.3424 40.4681 28 40.1246 28 39.7008V37.7717C28 36.0878 29.3651 34.7178 31.043 34.7178H53.957C55.6349 34.7178 57 36.0878 57 37.7717V39.7008C57 40.1246 56.6576 40.4681 56.2354 40.4681Z" fill="#377FD2"/>
<path d="M31.7954 51.5809V53.877C31.7954 55.1397 32.8155 56.1635 34.0738 56.1635H53.957C55.2153 56.1635 56.2354 55.1397 56.2354 53.877V51.5809H37.9712" fill="#CEE8FA"/>
<path d="M53.957 56.9306H31.043C29.3651 56.9306 28 55.5607 28 53.8768V51.5808C28 51.157 28.3424 50.8135 28.7646 50.8135C29.1868 50.8135 29.5292 51.157 29.5292 51.5808V53.8768C29.5292 54.7145 30.2083 55.396 31.043 55.396H53.957C54.7917 55.396 55.4708 54.7145 55.4708 53.8768V52.3482H56.4578C56.0355 52.3482 55.6931 52.0047 55.6931 51.5809C55.6931 51.1571 56.0356 50.8135 56.4578 50.8135H56.2354C56.6576 50.8135 57 51.1571 57 51.5809V53.8769C57 55.5607 55.6349 56.9306 53.957 56.9306Z" fill="#377FD2"/>
<path d="M56.2353 53.3826C55.8131 53.3826 55.4707 53.039 55.4707 52.6152V37.6492C55.4707 37.2254 55.8131 36.8818 56.2353 36.8818C56.6576 36.8818 56.9999 37.2254 56.9999 37.6492V52.6152C56.9999 53.039 56.6575 53.3826 56.2353 53.3826Z" fill="#377FD2"/>
<path d="M45.2353 60.0001H40.1887C39.7664 60.0001 39.4241 59.6565 39.4241 59.2327V56.1633C39.4241 55.7395 39.7665 55.396 40.1887 55.396C40.6109 55.396 40.9533 55.7395 40.9533 56.1633V58.4653H44.4706V56.1633C44.4706 55.7395 44.813 55.396 45.2352 55.396C45.6575 55.396 45.9999 55.7395 45.9999 56.1633V59.2327C45.9999 59.6565 45.6576 60.0001 45.2353 60.0001Z" fill="#377FD2"/>
<path d="M48.5909 60H36.7646C36.3424 60 36 59.6565 36 59.2327C36 58.8089 36.3424 58.4653 36.7646 58.4653H48.5909C49.0132 58.4653 49.3555 58.8089 49.3555 59.2327C49.3555 59.6565 49.0132 60 48.5909 60Z" fill="#377FD2"/>
<path d="M35.0314 46.8188C34.8789 46.9264 34.7341 46.8712 34.679 46.8424C34.6239 46.8137 34.4957 46.7267 34.4957 46.5396V41.632L38.8659 36.7224V34.5465L33.3663 40.725C33.1632 40.9534 33.0513 41.2478 33.0513 41.5539V46.5397C33.0513 47.2108 33.4199 47.8197 34.0132 48.1289C34.2734 48.2645 34.5555 48.3315 34.8365 48.3315C35.1966 48.3315 35.5548 48.2214 35.862 48.0047L36.4704 47.5755L35.6398 46.3897L35.0314 46.8188Z" fill="#377FD2"/>
<path d="M51.3911 40.7246L45.7732 34.4133V36.5892L50.2619 41.6319V46.5395C50.2619 46.7266 50.1337 46.8136 50.0786 46.8424C50.0234 46.8711 49.8787 46.9263 49.7261 46.8187L49.1177 46.3895L48.2871 47.5753L48.8955 48.0045C49.2027 48.2213 49.5609 48.3313 49.921 48.3313C50.202 48.3313 50.4842 48.2644 50.7443 48.1287C51.3376 47.8195 51.7062 47.2105 51.7062 46.5394V41.5538C51.7063 41.2477 51.5944 40.9533 51.3911 40.7246Z" fill="#377FD2"/>
<path d="M42.3788 51.0617L41.9896 50.812C41.8621 50.7301 38.866 48.7773 38.866 46.2007C38.866 43.6539 40.3461 41.5804 42.2355 41.4799C42.288 41.4771 42.3332 41.4751 42.3788 41.4751C42.6366 41.4751 42.894 41.5123 43.1438 41.5855C43.7228 41.7553 44.2625 42.1216 44.7046 42.6446C45.4589 43.5372 45.8917 44.8333 45.8917 46.2006C45.8917 48.7773 42.8956 50.7301 42.768 50.8119L42.3788 51.0617ZM42.3788 42.9246C42.3587 42.9246 42.3387 42.9261 42.3188 42.927C41.2084 42.986 40.3104 44.4544 40.3104 46.2006C40.3104 47.448 41.5732 48.6894 42.3788 49.3125C43.1844 48.6894 44.4473 47.448 44.4473 46.2006C44.4473 45.1714 44.1396 44.217 43.6032 43.5822C43.3445 43.2761 43.0455 43.0668 42.7387 42.9768C42.6205 42.9422 42.4994 42.9246 42.3788 42.9246Z" fill="#377FD2"/>
<path d="M42.3798 25.7247C41.5469 25.7247 36.2686 30.268 36.2686 34.8474C36.2686 36.4064 38.1285 46.2006 38.1285 46.2006C41.2985 46.2006 43.1636 46.2006 46.6285 46.2006C46.6285 46.2006 48.4885 36.4067 48.4885 34.8477C48.4885 30.2425 43.1622 25.7247 42.3798 25.7247ZM45.5367 35.8523C45.4723 36.1682 45.362 36.4673 45.2131 36.7424C45.1635 36.834 45.1095 36.9231 45.0516 37.0091C44.8199 37.3533 44.5239 37.6503 44.1808 37.883C44.0951 37.9411 44.0064 37.9953 43.9151 38.045C43.641 38.1945 43.3429 38.3051 43.0282 38.3698C42.8183 38.4129 42.601 38.4355 42.3785 38.4355C40.5981 38.4355 39.1548 36.987 39.1548 35.2003C39.1548 33.4136 40.598 31.9652 42.3785 31.9652C42.601 31.9652 42.8183 31.9879 43.0282 32.0309C43.343 32.0955 43.641 32.2062 43.9151 32.3556C44.0521 32.4303 44.1831 32.5147 44.3072 32.6078C44.5969 32.8252 44.8488 33.0902 45.0516 33.3914C45.3992 33.9078 45.6022 34.5302 45.6022 35.2002C45.6022 35.4236 45.5796 35.6417 45.5367 35.8523Z" fill="#CEE8FA"/>
<path d="M42.3785 39.1603C40.2027 39.1603 38.4326 37.3839 38.4326 35.2004C38.4326 33.0168 40.2027 31.2404 42.3785 31.2404C42.6457 31.2404 42.913 31.2675 43.173 31.3208C43.5529 31.3988 43.9186 31.5326 44.2599 31.7187C44.4265 31.8096 44.588 31.9134 44.7398 32.0273C45.0956 32.2943 45.4018 32.6168 45.6501 32.9858C46.0912 33.6411 46.3244 34.4069 46.3244 35.2003C46.3244 35.4683 46.2975 35.7364 46.2444 35.9973C46.1665 36.3788 46.0331 36.7457 45.8479 37.0882C45.7874 37.2 45.7208 37.3098 45.6501 37.4148C45.3652 37.838 45.0069 38.1977 44.5852 38.4834C44.481 38.5542 44.3716 38.6209 44.2601 38.6817C43.9186 38.8678 43.553 39.0017 43.173 39.0797C42.913 39.1332 42.6458 39.1603 42.3785 39.1603ZM42.3785 32.69C40.9992 32.69 39.8771 33.8161 39.8771 35.2005C39.8771 36.5847 40.9992 37.7108 42.3785 37.7108C42.5486 37.7108 42.7186 37.6937 42.8834 37.6598C43.1235 37.6106 43.3545 37.5259 43.5704 37.4083C43.641 37.3698 43.7104 37.3274 43.7765 37.2826C44.0446 37.1009 44.2722 36.8724 44.4533 36.6036C44.4982 36.5367 44.5404 36.4671 44.5787 36.3964C44.6957 36.1802 44.7801 35.9481 44.8293 35.7071C44.863 35.5418 44.88 35.3713 44.88 35.2006C44.88 34.6975 44.7324 34.2123 44.4533 33.7975C44.2954 33.5631 44.1009 33.3582 43.8748 33.1886C43.7785 33.1163 43.676 33.0504 43.5703 32.9928C43.3547 32.8752 43.1235 32.7905 42.8835 32.7412C42.7186 32.7071 42.5487 32.69 42.3785 32.69Z" fill="#377FD2"/>
<path d="M38.7269 45.4758H46.0303C46.6023 42.4284 47.7664 35.99 47.7664 34.8477C47.7664 30.8397 43.3584 26.9632 42.3766 26.4784C41.9517 26.6906 40.6796 27.6513 39.41 29.2239C37.8499 31.156 36.9909 33.1532 36.9909 34.8474C36.9909 35.99 38.1549 42.4284 38.7269 45.4758ZM47.2262 46.9254H37.531L37.4191 46.3363C37.2274 45.3269 35.5464 36.4294 35.5464 34.8475C35.5464 32.1611 37.1296 29.6975 38.4579 28.1039C39.4582 26.9038 41.4073 25 42.3799 25C43.3326 25 45.2779 26.897 46.2803 28.0927C47.6173 29.6875 49.2109 32.1539 49.2109 34.8477C49.2109 36.4295 47.5299 45.3269 47.3381 46.3363L47.2262 46.9254Z" fill="#377FD2"/>
<ellipse cx="42.4522" cy="35.1596" rx="2.64094" ry="2.65034" fill="#CEE8FA"/>
<path d="M28.7646 52.8996C28.3424 52.8996 28 52.5561 28 52.1323V37.9337C28 37.5099 28.3424 37.1663 28.7646 37.1663C29.1868 37.1663 29.5292 37.5099 29.5292 37.9337V52.1323C29.5293 52.5561 29.1869 52.8996 28.7646 52.8996Z" fill="#377FD2"/>
<defs>
<filter id="filter0_d_230_28" x="0" y="0" width="85" height="85" filterUnits="userSpaceOnUse" color-interpolation-filters="sRGB">
<feFlood flood-opacity="0" result="BackgroundImageFix"/>
<feColorMatrix in="SourceAlpha" type="matrix" values="0 0 0 0 0 0 0 0 0 0 0 0 0 0 0 0 0 0 127 0" result="hardAlpha"/>
<feOffset/>
<feGaussianBlur stdDeviation="5"/>
<feComposite in2="hardAlpha" operator="out"/>
<feColorMatrix type="matrix" values="0 0 0 0 0.240719 0 0 0 0 0.434868 0 0 0 0 0.662782 0 0 0 0.2 0"/>
<feBlend mode="normal" in2="BackgroundImageFix" result="effect1_dropShadow_230_28"/>
<feBlend mode="normal" in="SourceGraphic" in2="effect1_dropShadow_230_28" result="shape"/>
</filter>
</defs>
</svg>
