<svg width="70" height="12" viewBox="0 0 70 12" fill="none" xmlns="http://www.w3.org/2000/svg">
<path d="M30.5763 9.61001C29.8466 9.61001 29.1481 9.50772 28.4808 9.30301C27.8135 9.08947 27.284 8.81808 26.8925 8.48884L27.4931 7.14078C27.8668 7.43442 28.3295 7.67911 28.8812 7.87487C29.4328 8.07063 29.9979 8.16851 30.5763 8.16851C31.0656 8.16851 31.4616 8.11512 31.7641 8.00835C32.0668 7.90156 32.2892 7.75919 32.4316 7.58123C32.574 7.39438 32.6451 7.18526 32.6451 6.95391C32.6451 6.66917 32.5428 6.44226 32.3381 6.2732C32.1335 6.09524 31.8666 5.95732 31.5373 5.85944C31.217 5.75267 30.8565 5.65478 30.4561 5.5658C30.0646 5.47682 29.6687 5.37449 29.2682 5.25881C28.8767 5.13425 28.5164 4.97852 28.1872 4.79166C27.8668 4.59591 27.6042 4.33785 27.3997 4.01752C27.1949 3.69718 27.0927 3.28788 27.0927 2.78958C27.0927 2.28238 27.2261 1.81967 27.4931 1.40147C27.7689 0.974349 28.1827 0.636223 28.7343 0.387068C29.295 0.129022 30.0024 0 30.8565 0C31.4172 0 31.9734 0.0711909 32.525 0.21356C33.0766 0.355929 33.5572 0.560588 33.9665 0.827535L33.4192 2.1756C33.001 1.92645 32.5694 1.74404 32.1246 1.62836C31.6796 1.50379 31.2526 1.44151 30.8433 1.44151C30.3627 1.44151 29.9712 1.49934 29.6687 1.61502C29.375 1.73069 29.157 1.88196 29.0147 2.06883C28.8812 2.25568 28.8145 2.46924 28.8145 2.70949C28.8145 2.99424 28.9124 3.22559 29.1081 3.40355C29.3128 3.57262 29.5752 3.70608 29.8956 3.80397C30.2248 3.90184 30.5896 3.99972 30.99 4.09761C31.3904 4.18659 31.7864 4.28892 32.1779 4.4046C32.5783 4.52027 32.9388 4.67153 33.2591 4.8584C33.5884 5.04526 33.8508 5.29885 34.0466 5.61919C34.2512 5.93952 34.3536 6.34439 34.3536 6.83379C34.3536 7.33209 34.2156 7.79479 33.9398 8.2219C33.6729 8.64012 33.2591 8.97824 32.6985 9.23627C32.1379 9.48543 31.4305 9.61001 30.5763 9.61001ZM38.1429 9.47654L35.0464 0.13348H36.8483L39.6112 8.58227H38.7168L41.5865 0.13348H43.1881L45.9778 8.58227H45.1101L47.9398 0.13348H49.5948L46.4982 9.47654H44.6564L42.1071 1.85527H42.5875L39.9982 9.47654H38.1429ZM50.8749 9.47654V0.13348H52.6101V9.47654H50.8749ZM57.9001 9.61001C57.1704 9.61001 56.4719 9.50772 55.8045 9.30301C55.1372 9.08947 54.6077 8.81808 54.2162 8.48884L54.8168 7.14078C55.1905 7.43442 55.6533 7.67911 56.2049 7.87487C56.7567 8.07063 57.3216 8.16851 57.9001 8.16851C58.3895 8.16851 58.7854 8.11512 59.088 8.00835C59.3905 7.90156 59.613 7.75919 59.7553 7.58123C59.8977 7.39438 59.9689 7.18526 59.9689 6.95391C59.9689 6.66917 59.8665 6.44226 59.6619 6.2732C59.4572 6.09524 59.1903 5.95732 58.861 5.85944C58.5407 5.75267 58.1804 5.65478 57.78 5.5658C57.3883 5.47682 56.9925 5.37449 56.5921 5.25881C56.2005 5.13425 55.8401 4.97852 55.5109 4.79166C55.1905 4.59591 54.9281 4.33785 54.7234 4.01752C54.5188 3.69718 54.4164 3.28788 54.4164 2.78958C54.4164 2.28238 54.5499 1.81967 54.8168 1.40147C55.0927 0.974349 55.5064 0.636223 56.0582 0.387068C56.6187 0.129022 57.3261 0 58.1804 0C58.7409 0 59.2971 0.0711909 59.8487 0.21356C60.4004 0.355929 60.8809 0.560588 61.2902 0.827535L60.7431 2.1756C60.3248 1.92645 59.8932 1.74404 59.4483 1.62836C59.0035 1.50379 58.5763 1.44151 58.167 1.44151C57.6865 1.44151 57.295 1.49934 56.9925 1.61502C56.6989 1.73069 56.4808 1.88196 56.3384 2.06883C56.2049 2.25568 56.1382 2.46924 56.1382 2.70949C56.1382 2.99424 56.2361 3.22559 56.4319 3.40355C56.6365 3.57262 56.8991 3.70608 57.2193 3.80397C57.5486 3.90184 57.9135 3.99972 58.3139 4.09761C58.7143 4.18659 59.1102 4.28892 59.5017 4.4046C59.9022 4.52027 60.2625 4.67153 60.5828 4.8584C60.9121 5.04526 61.1745 5.29885 61.3703 5.61919C61.575 5.93952 61.6773 6.34439 61.6773 6.83379C61.6773 7.33209 61.5394 7.79479 61.2635 8.2219C60.9966 8.64012 60.5828 8.97824 60.0223 9.23627C59.4617 9.48543 58.7543 9.61001 57.9001 9.61001ZM66.1608 9.61001C65.4311 9.61001 64.7326 9.50772 64.0652 9.30301C63.3979 9.08947 62.8684 8.81808 62.4769 8.48884L63.0775 7.14078C63.4512 7.43442 63.914 7.67911 64.4656 7.87487C65.0173 8.07063 65.5823 8.16851 66.1608 8.16851C66.6502 8.16851 67.0461 8.11512 67.3487 8.00835C67.6512 7.90156 67.8737 7.75919 68.016 7.58123C68.1584 7.39438 68.2295 7.18526 68.2295 6.95391C68.2295 6.66917 68.1272 6.44226 67.9226 6.2732C67.7179 6.09524 67.451 5.95732 67.1217 5.85944C66.8014 5.75267 66.4411 5.65478 66.0406 5.5658C65.649 5.47682 65.2532 5.37449 64.8527 5.25881C64.4612 5.13425 64.1008 4.97852 63.7716 4.79166C63.4512 4.59591 63.1888 4.33785 62.9841 4.01752C62.7794 3.69718 62.6771 3.28788 62.6771 2.78958C62.6771 2.28238 62.8106 1.81967 63.0775 1.40147C63.3533 0.974349 63.7671 0.636223 64.3188 0.387068C64.8794 0.129022 65.5868 0 66.4411 0C67.0016 0 67.5578 0.0711909 68.1094 0.21356C68.6611 0.355929 69.1416 0.560588 69.5509 0.827535L69.0038 2.1756C68.5854 1.92645 68.1539 1.74404 67.709 1.62836C67.264 1.50379 66.837 1.44151 66.4277 1.44151C65.9472 1.44151 65.5556 1.49934 65.2532 1.61502C64.9594 1.73069 64.7414 1.88196 64.5991 2.06883C64.4656 2.25568 64.3989 2.46924 64.3989 2.70949C64.3989 2.99424 64.4968 3.22559 64.6925 3.40355C64.8972 3.57262 65.1598 3.70608 65.48 3.80397C65.8093 3.90184 66.174 3.99972 66.5746 4.09761C66.975 4.18659 67.3708 4.28892 67.7624 4.4046C68.1628 4.52027 68.5232 4.67153 68.8435 4.8584C69.1728 5.04526 69.4352 5.29885 69.631 5.61919C69.8356 5.93952 69.938 6.34439 69.938 6.83379C69.938 7.33209 69.8001 7.79479 69.5242 8.2219C69.2573 8.64012 68.8435 8.97824 68.283 9.23627C67.7224 9.48543 67.0149 9.61001 66.1608 9.61001Z" fill="#7986EC"/>
<path d="M9.42826 4.92281C9.41854 5.17519 9.32147 5.38875 9.13703 5.56348C8.96231 5.73821 8.74875 5.83042 8.49638 5.84013H2.01689C2.05573 5.95662 2.10912 6.07795 2.17707 6.20414C2.2256 6.30121 2.27414 6.39343 2.32267 6.48079C2.37121 6.56816 2.41974 6.65553 2.46828 6.74288C2.41974 6.66523 2.37607 6.59243 2.33723 6.52448C2.2984 6.44683 2.25958 6.36916 2.22075 6.29151C2.37607 6.57302 2.57505 6.82539 2.81773 7.04866C3.0604 7.27192 3.33221 7.44665 3.63312 7.57285C3.95346 7.70874 4.30777 7.7864 4.69605 7.80581H4.7543C5.00667 7.80581 5.21537 7.89318 5.38041 8.0679C5.55513 8.23292 5.6425 8.44162 5.6425 8.69401C5.6425 8.94639 5.55513 9.15997 5.38041 9.33463C5.21537 9.50941 5.00667 9.5968 4.7543 9.5968C4.69605 9.5968 4.63781 9.5968 4.57957 9.5968C4.53104 9.5968 4.48249 9.59192 4.43397 9.58216C4.02626 9.55311 3.62828 9.4706 3.23998 9.33463C2.8517 9.19878 2.4877 9.02405 2.14794 8.8105C1.81791 8.58724 1.51698 8.32515 1.24519 8.02422C0.973382 7.7233 0.745271 7.38841 0.560837 7.01953C0.201675 6.29151 0.036655 5.52465 0.0657761 4.71896C0.104604 3.90356 0.337574 3.15127 0.764685 2.46206C0.803513 2.40382 0.842342 2.34557 0.88117 2.28734C0.929711 2.21939 0.97824 2.15629 1.02678 2.09805C1.38594 1.61269 1.82275 1.21955 2.33723 0.918639C2.8517 0.608009 3.40016 0.399306 3.98258 0.292532C4.73002 0.176043 5.46776 0.234288 6.1958 0.467267C6.92383 0.700234 7.54994 1.08852 8.07412 1.63211C8.50122 2.06892 8.83126 2.56399 9.06424 3.11729C9.30691 3.67059 9.42826 4.25302 9.42826 4.86456V4.89369V4.92281ZM3.21087 2.47663C2.92937 2.66106 2.68668 2.88917 2.48284 3.16098C2.279 3.42307 2.12368 3.70942 2.01689 4.02005H7.49169C7.44315 3.87445 7.3752 3.71914 7.28784 3.55412C7.10341 3.20466 6.85103 2.90859 6.53069 2.66591C6.22006 2.41354 5.8706 2.23396 5.48232 2.12717C5.10374 2.0204 4.71546 2.00098 4.31748 2.06892C3.91949 2.12717 3.55062 2.26307 3.21087 2.47663ZM14.5497 0.219727C14.7924 0.239146 14.9962 0.336216 15.1612 0.510938C15.336 0.675969 15.4234 0.879813 15.4234 1.12248C15.4234 1.37487 15.3311 1.59329 15.1467 1.77771C14.972 1.95245 14.7584 2.0398 14.506 2.0398H14.4333C14.0547 2.05922 13.6955 2.14659 13.3558 2.3019C13.0257 2.45721 12.7345 2.66591 12.4821 2.92801C12.2395 3.18038 12.0453 3.47645 11.8997 3.81621C11.7638 4.15595 11.6958 4.51997 11.6958 4.90825V8.69401C11.6958 8.94639 11.6036 9.15997 11.4192 9.33463C11.2445 9.50941 11.0309 9.5968 10.7785 9.5968C10.5261 9.5968 10.3126 9.50941 10.1379 9.33463C9.96313 9.15997 9.87576 8.94639 9.87576 8.69401V4.90825C9.87576 4.26758 9.99225 3.67059 10.2252 3.11729C10.4679 2.55428 10.7931 2.06408 11.2008 1.64667C11.6085 1.21955 12.089 0.879814 12.6422 0.627428C13.1956 0.375042 13.7877 0.239146 14.4186 0.219727H14.506H14.5205H14.5497ZM23.7045 1.04969C24.0345 1.27295 24.3258 1.53504 24.5782 1.83596C24.8402 2.12717 25.0586 2.4475 25.2334 2.79696C25.408 3.13671 25.5391 3.50072 25.6265 3.88901C25.7235 4.26758 25.7672 4.65102 25.7576 5.0393C25.7381 5.53435 25.6459 6.01971 25.4809 6.49536C25.3159 6.9613 25.0829 7.39327 24.782 7.79125C24.4034 8.28631 23.9423 8.68915 23.3988 8.99978C22.8551 9.3007 22.2775 9.49 21.6661 9.56763C21.0448 9.64526 20.4332 9.60156 19.8313 9.43654C19.2392 9.26188 18.6956 8.99008 18.2005 8.6212V8.60664V11.0091C18.2005 11.2615 18.1131 11.4751 17.9385 11.6498C17.7637 11.8246 17.5502 11.9119 17.2978 11.9119C17.0454 11.9119 16.8318 11.8246 16.6572 11.6498C16.4824 11.4751 16.3951 11.2615 16.3951 11.0091V4.93737V4.85C16.3951 4.77235 16.3951 4.69954 16.3951 4.6316C16.4047 4.55395 16.4145 4.47628 16.4241 4.39863C16.463 4.00063 16.5552 3.61721 16.7008 3.24834C16.8561 2.86977 17.0454 2.52031 17.2686 2.19997C17.5017 1.87964 17.7686 1.59329 18.0696 1.3409C18.3802 1.07881 18.715 0.860394 19.0742 0.685672C19.8217 0.336216 20.608 0.195462 21.4331 0.26341C22.2581 0.321655 23.0153 0.583744 23.7045 1.04969ZM23.952 5.1121C24.0006 4.4326 23.8307 3.82105 23.4424 3.27747C23.2483 2.99596 23.0104 2.75813 22.7289 2.56399C22.4571 2.36985 22.1611 2.2291 21.8407 2.14173C21.1806 1.95729 20.5449 2.00098 19.9332 2.27278C20.011 2.23396 20.0886 2.19998 20.1662 2.17085C20.2439 2.13203 20.3216 2.09805 20.3992 2.06892C20.3022 2.10776 20.2051 2.14659 20.108 2.18541C20.0206 2.22424 19.9332 2.26792 19.846 2.31646C19.4868 2.47177 19.1761 2.70475 18.9141 3.01536C18.5743 3.41336 18.351 3.86959 18.2442 4.38407C18.1472 4.89854 18.186 5.40332 18.3607 5.89837C18.4966 6.26725 18.7005 6.59728 18.9723 6.88849C19.2441 7.17971 19.5644 7.40783 19.9332 7.57285C20.3022 7.72816 20.6856 7.80581 21.0836 7.80581C21.4815 7.80581 21.865 7.7233 22.2339 7.55829C22.3892 7.48062 22.5347 7.39811 22.6707 7.31076C22.8163 7.22339 22.9521 7.12146 23.0784 7.00498C23.3308 6.7526 23.5346 6.46623 23.69 6.1459C23.8452 5.81586 23.9326 5.47126 23.952 5.1121Z" fill="#6877EB"/>
</svg>
