<svg width="275" height="184" viewBox="0 0 275 184" fill="none" xmlns="http://www.w3.org/2000/svg">
<g filter="url(#filter0_d_255_57)">
<rect x="10" y="30" width="255" height="144" rx="10" fill="white"/>
</g>
<path d="M34.944 86.128C37.904 86.128 39.28 84.656 39.28 82.944C39.28 78.832 32.496 80.544 32.496 77.808C32.496 76.832 33.312 76.032 35.216 76.032C36.208 76.032 37.312 76.32 38.288 76.944L38.816 75.664C37.888 75.024 36.528 74.672 35.216 74.672C32.272 74.672 30.928 76.144 30.928 77.872C30.928 82.032 37.712 80.304 37.712 83.04C37.712 84.016 36.88 84.768 34.944 84.768C33.504 84.768 32.08 84.224 31.248 83.472L30.656 84.72C31.552 85.552 33.232 86.128 34.944 86.128ZM49.0575 81.808C49.0575 79.2 47.3135 77.44 44.8655 77.44C42.4175 77.44 40.6095 79.248 40.6095 81.76C40.6095 84.288 42.4335 86.096 45.1695 86.096C46.5775 86.096 47.7455 85.616 48.5135 84.72L47.6655 83.728C47.0415 84.416 46.2095 84.752 45.2175 84.752C43.5375 84.752 42.3375 83.76 42.1455 82.272H49.0255C49.0415 82.128 49.0575 81.936 49.0575 81.808ZM44.8655 78.736C46.3535 78.736 47.4255 79.744 47.5855 81.168H42.1455C42.3055 79.728 43.3935 78.736 44.8655 78.736ZM55.4784 84.4C55.1584 84.656 54.7264 84.8 54.2784 84.8C53.4304 84.8 52.9504 84.288 52.9504 83.376V78.784H55.3824V77.52H52.9504V75.664H51.4144V77.52H49.9744V78.784H51.4144V83.44C51.4144 85.152 52.3904 86.096 54.1024 86.096C54.7904 86.096 55.4944 85.904 55.9584 85.504L55.4784 84.4ZM73.1203 86.112C72.5443 86.752 71.8723 87.072 71.0723 87.072C70.3523 87.072 69.6803 86.752 68.9283 85.952C71.5363 85.344 73.3283 83.184 73.3283 80.4C73.3283 77.104 70.8003 74.672 67.3923 74.672C63.9523 74.672 61.4243 77.12 61.4243 80.4C61.4243 83.552 63.7603 85.936 66.9763 86.112C68.5443 87.728 69.6483 88.336 71.0563 88.336C72.1763 88.336 73.1523 87.872 73.8723 87.024L73.1203 86.112ZM63.0243 80.4C63.0243 77.936 64.8802 76.096 67.3923 76.096C69.8723 76.096 71.7283 77.936 71.7283 80.4C71.7283 82.864 69.8723 84.704 67.3923 84.704C64.8802 84.704 63.0243 82.864 63.0243 80.4ZM81.9178 77.52V81.904C81.9178 83.728 80.8938 84.72 79.2938 84.72C77.8378 84.72 77.0058 83.888 77.0058 82.224V77.52H75.4698V82.4C75.4698 84.896 76.9258 86.096 79.1178 86.096C80.3178 86.096 81.3738 85.6 81.9978 84.72V86H83.4538V77.52H81.9178ZM89.4659 77.44C88.1059 77.44 86.8419 77.824 85.9619 78.528L86.6019 79.68C87.2579 79.12 88.2819 78.768 89.2899 78.768C90.8099 78.768 91.5619 79.52 91.5619 80.816V81.12H89.1299C86.6019 81.12 85.7219 82.24 85.7219 83.6C85.7219 85.072 86.9379 86.096 88.8579 86.096C90.1859 86.096 91.1299 85.648 91.6419 84.88V86H93.0979V80.88C93.0979 78.56 91.7859 77.44 89.4659 77.44ZM89.1139 84.912C87.9459 84.912 87.2419 84.384 87.2419 83.536C87.2419 82.816 87.6739 82.224 89.1939 82.224H91.5619V83.408C91.1779 84.384 90.2659 84.912 89.1139 84.912ZM95.9404 86H97.4764V74.128H95.9404V86ZM101.177 75.888C101.785 75.888 102.217 75.44 102.217 74.864C102.217 74.32 101.769 73.888 101.177 73.888C100.585 73.888 100.137 74.336 100.137 74.896C100.137 75.456 100.585 75.888 101.177 75.888ZM100.409 86H101.945V77.52H100.409V86ZM109.166 84.4C108.846 84.656 108.414 84.8 107.966 84.8C107.118 84.8 106.638 84.288 106.638 83.376V78.784H109.07V77.52H106.638V75.664H105.102V77.52H103.662V78.784H105.102V83.44C105.102 85.152 106.078 86.096 107.79 86.096C108.478 86.096 109.182 85.904 109.646 85.504L109.166 84.4ZM117.347 77.52L114.419 84.304L111.459 77.52H109.859L113.603 85.984L113.331 86.576C112.915 87.552 112.451 87.888 111.715 87.888C111.139 87.888 110.611 87.664 110.195 87.264L109.539 88.416C110.067 88.928 110.899 89.2 111.715 89.2C113.011 89.2 113.987 88.64 114.739 86.848L118.851 77.52H117.347ZM127.685 75.296C128.133 75.296 128.549 75.456 128.869 75.696L129.333 74.528C128.901 74.192 128.261 74.032 127.605 74.032C125.797 74.032 124.805 75.12 124.805 76.768V77.52H123.365V78.784H124.805V86H126.341V78.784H128.773V77.52H126.309V76.784C126.309 75.808 126.773 75.296 127.685 75.296ZM133.729 86.096C136.273 86.096 138.129 84.288 138.129 81.76C138.129 79.232 136.273 77.44 133.729 77.44C131.185 77.44 129.313 79.232 129.313 81.76C129.313 84.288 131.185 86.096 133.729 86.096ZM133.729 84.752C132.097 84.752 130.865 83.568 130.865 81.76C130.865 79.952 132.097 78.784 133.729 78.784C135.361 78.784 136.577 79.952 136.577 81.76C136.577 83.568 135.361 84.752 133.729 84.752ZM141.725 78.944V77.52H140.253V86H141.789V81.776C141.789 79.92 142.813 78.912 144.461 78.912C144.573 78.912 144.685 78.912 144.813 78.928V77.44C143.325 77.44 142.269 77.952 141.725 78.944ZM165.64 74.8L162.552 83.952L159.464 74.8H157.992L154.84 83.904L151.816 74.8H150.168L153.912 86H155.624L158.68 77.056L161.736 86H163.416L167.16 74.8H165.64ZM175.917 81.808C175.917 79.2 174.173 77.44 171.725 77.44C169.277 77.44 167.469 79.248 167.469 81.76C167.469 84.288 169.293 86.096 172.029 86.096C173.437 86.096 174.605 85.616 175.373 84.72L174.525 83.728C173.901 84.416 173.069 84.752 172.077 84.752C170.397 84.752 169.197 83.76 169.005 82.272H175.885C175.901 82.128 175.917 81.936 175.917 81.808ZM171.725 78.736C173.213 78.736 174.285 79.744 174.445 81.168H169.005C169.165 79.728 170.253 78.736 171.725 78.736ZM182.546 77.44C181.346 77.44 180.29 77.888 179.586 78.8V74.128H178.05V86H179.522V84.656C180.21 85.616 181.298 86.096 182.546 86.096C185.026 86.096 186.834 84.352 186.834 81.76C186.834 79.168 185.026 77.44 182.546 77.44ZM182.418 84.752C180.802 84.752 179.57 83.568 179.57 81.76C179.57 79.952 180.802 78.784 182.418 78.784C184.05 78.784 185.282 79.952 185.282 81.76C185.282 83.568 184.05 84.752 182.418 84.752ZM193.548 74.8H189.18V86H190.78V82.608H193.548C196.46 82.608 198.22 81.136 198.22 78.704C198.22 76.272 196.46 74.8 193.548 74.8ZM193.5 81.216H190.78V76.192H193.5C195.548 76.192 196.62 77.104 196.62 78.704C196.62 80.304 195.548 81.216 193.5 81.216ZM32.224 96.888C32.832 96.888 33.264 96.44 33.264 95.864C33.264 95.32 32.816 94.888 32.224 94.888C31.632 94.888 31.184 95.336 31.184 95.896C31.184 96.456 31.632 96.888 32.224 96.888ZM31.456 107H32.992V98.52H31.456V107ZM46.5328 98.44C45.0928 98.44 43.9088 99.048 43.2688 100.008C42.7088 98.952 41.6208 98.44 40.3248 98.44C39.0448 98.44 38.0048 98.92 37.3968 99.784V98.52H35.9248V107H37.4608V102.632C37.4608 100.792 38.4688 99.816 40.0048 99.816C41.3968 99.816 42.1968 100.632 42.1968 102.296V107H43.7328V102.632C43.7328 100.792 44.7408 99.816 46.2768 99.816C47.6688 99.816 48.4688 100.632 48.4688 102.296V107H50.0048V102.12C50.0048 99.624 48.5968 98.44 46.5328 98.44ZM55.919 98.44C54.559 98.44 53.295 98.824 52.415 99.528L53.055 100.68C53.711 100.12 54.735 99.768 55.743 99.768C57.263 99.768 58.015 100.52 58.015 101.816V102.12H55.583C53.055 102.12 52.175 103.24 52.175 104.6C52.175 106.072 53.391 107.096 55.311 107.096C56.639 107.096 57.583 106.648 58.095 105.88V107H59.551V101.88C59.551 99.56 58.239 98.44 55.919 98.44ZM55.567 105.912C54.399 105.912 53.695 105.384 53.695 104.536C53.695 103.816 54.127 103.224 55.647 103.224H58.015V104.408C57.631 105.384 56.719 105.912 55.567 105.912ZM69.0964 98.52V99.832C68.3764 98.904 67.2244 98.44 65.9604 98.44C63.5124 98.44 61.6564 100.088 61.6564 102.536C61.6564 104.984 63.5124 106.648 65.9604 106.648C67.1764 106.648 68.2804 106.216 69.0164 105.336V106.008C69.0164 107.928 68.1044 108.856 66.1044 108.856C64.8564 108.856 63.6244 108.424 62.8404 107.752L62.1044 108.936C63.0324 109.768 64.6004 110.2 66.1524 110.2C69.0324 110.2 70.5524 108.84 70.5524 105.848V98.52H69.0964ZM66.1364 105.304C64.4244 105.304 63.2084 104.168 63.2084 102.536C63.2084 100.888 64.4244 99.784 66.1364 99.784C67.8324 99.784 69.0484 100.888 69.0484 102.536C69.0484 104.168 67.8324 105.304 66.1364 105.304ZM81.1513 102.808C81.1513 100.2 79.4073 98.44 76.9593 98.44C74.5113 98.44 72.7033 100.248 72.7033 102.76C72.7033 105.288 74.5273 107.096 77.2633 107.096C78.6713 107.096 79.8393 106.616 80.6073 105.72L79.7593 104.728C79.1353 105.416 78.3033 105.752 77.3113 105.752C75.6313 105.752 74.4313 104.76 74.2393 103.272H81.1193C81.1353 103.128 81.1513 102.936 81.1513 102.808ZM76.9593 99.736C78.4473 99.736 79.5193 100.744 79.6793 102.168H74.2393C74.3993 100.728 75.4873 99.736 76.9593 99.736ZM85.7161 107.096C87.9721 107.096 89.3801 106.12 89.3801 104.584C89.3801 101.288 84.0041 102.92 84.0041 100.92C84.0041 100.248 84.6601 99.752 86.0041 99.752C86.8361 99.752 87.6841 99.928 88.4521 100.424L89.1081 99.208C88.3721 98.728 87.1241 98.44 86.0201 98.44C83.8441 98.44 82.4841 99.464 82.4841 100.984C82.4841 104.36 87.8441 102.712 87.8441 104.616C87.8441 105.336 87.2521 105.768 85.8281 105.768C84.7241 105.768 83.5721 105.4 82.8521 104.888L82.2121 106.104C82.9161 106.664 84.3081 107.096 85.7161 107.096ZM91.6678 107.096C92.2438 107.096 92.7238 106.632 92.7238 105.992C92.7238 105.352 92.2438 104.904 91.6678 104.904C91.0758 104.904 90.5798 105.352 90.5798 105.992C90.5798 106.632 91.0758 107.096 91.6678 107.096Z" fill="black"/>
<circle cx="43.5" cy="32.5" r="27.5" fill="#E6F3FF"/>
<circle cx="38.5" cy="27.5" r="26.5" stroke="#377FD2" stroke-width="2"/>
<path d="M43.9746 29.9727H46.3916V33.3857H43.9746V38H39.7412V33.3857H30.9961L30.8057 30.7197L39.6973 16.6719H43.9746V29.9727ZM35.0244 29.9727H39.7412V22.4434L39.4629 22.9268L35.0244 29.9727Z" fill="#377FD2"/>
<defs>
<filter id="filter0_d_255_57" x="0" y="20" width="275" height="164" filterUnits="userSpaceOnUse" color-interpolation-filters="sRGB">
<feFlood flood-opacity="0" result="BackgroundImageFix"/>
<feColorMatrix in="SourceAlpha" type="matrix" values="0 0 0 0 0 0 0 0 0 0 0 0 0 0 0 0 0 0 127 0" result="hardAlpha"/>
<feOffset/>
<feGaussianBlur stdDeviation="5"/>
<feComposite in2="hardAlpha" operator="out"/>
<feColorMatrix type="matrix" values="0 0 0 0 0.240719 0 0 0 0 0.434868 0 0 0 0 0.662782 0 0 0 0.2 0"/>
<feBlend mode="normal" in2="BackgroundImageFix" result="effect1_dropShadow_255_57"/>
<feBlend mode="normal" in="SourceGraphic" in2="effect1_dropShadow_255_57" result="shape"/>
</filter>
</defs>
</svg>
