<svg width="275" height="184" viewBox="0 0 275 184" fill="none" xmlns="http://www.w3.org/2000/svg">
<g filter="url(#filter0_d_255_55)">
<rect x="10" y="30" width="255" height="144" rx="10" fill="white"/>
</g>
<path d="M34.944 86.128C37.904 86.128 39.28 84.656 39.28 82.944C39.28 78.832 32.496 80.544 32.496 77.808C32.496 76.832 33.312 76.032 35.216 76.032C36.208 76.032 37.312 76.32 38.288 76.944L38.816 75.664C37.888 75.024 36.528 74.672 35.216 74.672C32.272 74.672 30.928 76.144 30.928 77.872C30.928 82.032 37.712 80.304 37.712 83.04C37.712 84.016 36.88 84.768 34.944 84.768C33.504 84.768 32.08 84.224 31.248 83.472L30.656 84.72C31.552 85.552 33.232 86.128 34.944 86.128ZM49.0575 81.808C49.0575 79.2 47.3135 77.44 44.8655 77.44C42.4175 77.44 40.6095 79.248 40.6095 81.76C40.6095 84.288 42.4335 86.096 45.1695 86.096C46.5775 86.096 47.7455 85.616 48.5135 84.72L47.6655 83.728C47.0415 84.416 46.2095 84.752 45.2175 84.752C43.5375 84.752 42.3375 83.76 42.1455 82.272H49.0255C49.0415 82.128 49.0575 81.936 49.0575 81.808ZM44.8655 78.736C46.3535 78.736 47.4255 79.744 47.5855 81.168H42.1455C42.3055 79.728 43.3935 78.736 44.8655 78.736ZM51.1904 86H52.7264V74.128H51.1904V86ZM63.3231 81.808C63.3231 79.2 61.5791 77.44 59.1311 77.44C56.6831 77.44 54.8751 79.248 54.8751 81.76C54.8751 84.288 56.6991 86.096 59.4351 86.096C60.8431 86.096 62.0111 85.616 62.7791 84.72L61.9311 83.728C61.3071 84.416 60.4751 84.752 59.4831 84.752C57.8031 84.752 56.6031 83.76 56.4111 82.272H63.2911C63.3071 82.128 63.3231 81.936 63.3231 81.808ZM59.1311 78.736C60.6191 78.736 61.6911 79.744 61.8511 81.168H56.4111C56.5711 79.728 57.6591 78.736 59.1311 78.736ZM69.152 86.096C70.672 86.096 71.936 85.456 72.608 84.272L71.44 83.536C70.896 84.368 70.064 84.752 69.136 84.752C67.472 84.752 66.224 83.6 66.224 81.76C66.224 79.952 67.472 78.784 69.136 78.784C70.064 78.784 70.896 79.168 71.44 80L72.608 79.248C71.936 78.064 70.672 77.44 69.152 77.44C66.544 77.44 64.672 79.232 64.672 81.76C64.672 84.288 66.544 86.096 69.152 86.096ZM78.994 84.4C78.674 84.656 78.242 84.8 77.794 84.8C76.946 84.8 76.466 84.288 76.466 83.376V78.784H78.898V77.52H76.466V75.664H74.93V77.52H73.49V78.784H74.93V83.44C74.93 85.152 75.906 86.096 77.618 86.096C78.306 86.096 79.01 85.904 79.474 85.504L78.994 84.4ZM89.9159 84.4C89.5959 84.656 89.1639 84.8 88.7159 84.8C87.8679 84.8 87.3879 84.288 87.3879 83.376V78.784H89.8199V77.52H87.3879V75.664H85.8519V77.52H84.4119V78.784H85.8519V83.44C85.8519 85.152 86.8279 86.096 88.5399 86.096C89.2279 86.096 89.9319 85.904 90.3959 85.504L89.9159 84.4ZM96.7809 77.44C95.4849 77.44 94.4289 77.904 93.7889 78.72V74.128H92.2529V86H93.7889V81.632C93.7889 79.792 94.8449 78.816 96.4769 78.816C97.9329 78.816 98.7649 79.632 98.7649 81.296V86H100.301V81.12C100.301 78.624 98.8449 77.44 96.7809 77.44ZM110.854 81.808C110.854 79.2 109.11 77.44 106.662 77.44C104.214 77.44 102.406 79.248 102.406 81.76C102.406 84.288 104.23 86.096 106.966 86.096C108.374 86.096 109.542 85.616 110.31 84.72L109.462 83.728C108.838 84.416 108.006 84.752 107.014 84.752C105.334 84.752 104.134 83.76 103.942 82.272H110.822C110.838 82.128 110.854 81.936 110.854 81.808ZM106.662 78.736C108.15 78.736 109.222 79.744 109.382 81.168H103.942C104.102 79.728 105.19 78.736 106.662 78.736ZM128.74 77.52L126.212 84.304L123.7 77.52H122.404L119.844 84.272L117.38 77.52H115.924L119.076 86H120.548L123.028 79.568L125.476 86H126.948L130.116 77.52H128.74ZM139.104 81.808C139.104 79.2 137.36 77.44 134.912 77.44C132.464 77.44 130.656 79.248 130.656 81.76C130.656 84.288 132.48 86.096 135.216 86.096C136.624 86.096 137.792 85.616 138.56 84.72L137.712 83.728C137.088 84.416 136.256 84.752 135.264 84.752C133.584 84.752 132.384 83.76 132.192 82.272H139.072C139.088 82.128 139.104 81.936 139.104 81.808ZM134.912 78.736C136.4 78.736 137.472 79.744 137.632 81.168H132.192C132.352 79.728 133.44 78.736 134.912 78.736ZM145.733 77.44C144.533 77.44 143.477 77.888 142.773 78.8V74.128H141.237V86H142.709V84.656C143.397 85.616 144.485 86.096 145.733 86.096C148.213 86.096 150.021 84.352 150.021 81.76C150.021 79.168 148.213 77.44 145.733 77.44ZM145.605 84.752C143.989 84.752 142.757 83.568 142.757 81.76C142.757 79.952 143.989 78.784 145.605 78.784C147.237 78.784 148.469 79.952 148.469 81.76C148.469 83.568 147.237 84.752 145.605 84.752ZM154.576 86.096C156.832 86.096 158.24 85.12 158.24 83.584C158.24 80.288 152.864 81.92 152.864 79.92C152.864 79.248 153.52 78.752 154.864 78.752C155.696 78.752 156.544 78.928 157.312 79.424L157.968 78.208C157.232 77.728 155.984 77.44 154.88 77.44C152.704 77.44 151.344 78.464 151.344 79.984C151.344 83.36 156.704 81.712 156.704 83.616C156.704 84.336 156.112 84.768 154.688 84.768C153.584 84.768 152.432 84.4 151.712 83.888L151.072 85.104C151.776 85.664 153.168 86.096 154.576 86.096ZM160.927 75.888C161.535 75.888 161.967 75.44 161.967 74.864C161.967 74.32 161.519 73.888 160.927 73.888C160.335 73.888 159.887 74.336 159.887 74.896C159.887 75.456 160.335 75.888 160.927 75.888ZM160.159 86H161.695V77.52H160.159V86ZM168.916 84.4C168.596 84.656 168.164 84.8 167.716 84.8C166.868 84.8 166.388 84.288 166.388 83.376V78.784H168.82V77.52H166.388V75.664H164.852V77.52H163.412V78.784H164.852V83.44C164.852 85.152 165.828 86.096 167.54 86.096C168.228 86.096 168.932 85.904 169.396 85.504L168.916 84.4ZM178.636 81.808C178.636 79.2 176.892 77.44 174.444 77.44C171.996 77.44 170.188 79.248 170.188 81.76C170.188 84.288 172.012 86.096 174.748 86.096C176.156 86.096 177.324 85.616 178.092 84.72L177.244 83.728C176.62 84.416 175.788 84.752 174.796 84.752C173.116 84.752 171.916 83.76 171.724 82.272H178.604C178.62 82.128 178.636 81.936 178.636 81.808ZM174.444 78.736C175.932 78.736 177.004 79.744 177.164 81.168H171.724C171.884 79.728 172.972 78.736 174.444 78.736ZM189.353 84.4C189.033 84.656 188.601 84.8 188.153 84.8C187.305 84.8 186.825 84.288 186.825 83.376V78.784H189.257V77.52H186.825V75.664H185.289V77.52H183.849V78.784H185.289V83.44C185.289 85.152 186.265 86.096 187.977 86.096C188.665 86.096 189.369 85.904 189.833 85.504L189.353 84.4ZM195.041 86.096C197.585 86.096 199.441 84.288 199.441 81.76C199.441 79.232 197.585 77.44 195.041 77.44C192.497 77.44 190.625 79.232 190.625 81.76C190.625 84.288 192.497 86.096 195.041 86.096ZM195.041 84.752C193.409 84.752 192.177 83.568 192.177 81.76C192.177 79.952 193.409 78.784 195.041 78.784C196.673 78.784 197.889 79.952 197.889 81.76C197.889 83.568 196.673 84.752 195.041 84.752ZM210.358 77.44C209.158 77.44 208.102 77.888 207.398 78.8V74.128H205.862V86H207.334V84.656C208.022 85.616 209.11 86.096 210.358 86.096C212.838 86.096 214.646 84.352 214.646 81.76C214.646 79.168 212.838 77.44 210.358 77.44ZM210.23 84.752C208.614 84.752 207.382 83.568 207.382 81.76C207.382 79.952 208.614 78.784 210.23 78.784C211.862 78.784 213.094 79.952 213.094 81.76C213.094 83.568 211.862 84.752 210.23 84.752ZM224.433 81.808C224.433 79.2 222.689 77.44 220.241 77.44C217.793 77.44 215.985 79.248 215.985 81.76C215.985 84.288 217.809 86.096 220.545 86.096C221.953 86.096 223.121 85.616 223.889 84.72L223.041 83.728C222.417 84.416 221.585 84.752 220.593 84.752C218.913 84.752 217.713 83.76 217.521 82.272H224.401C224.417 82.128 224.433 81.936 224.433 81.808ZM220.241 78.736C221.729 78.736 222.801 79.744 222.961 81.168H217.521C217.681 79.728 218.769 78.736 220.241 78.736ZM35.152 107.096C36.672 107.096 37.936 106.456 38.608 105.272L37.44 104.536C36.896 105.368 36.064 105.752 35.136 105.752C33.472 105.752 32.224 104.6 32.224 102.76C32.224 100.952 33.472 99.784 35.136 99.784C36.064 99.784 36.896 100.168 37.44 101L38.608 100.248C37.936 99.064 36.672 98.44 35.152 98.44C32.544 98.44 30.672 100.232 30.672 102.76C30.672 105.288 32.544 107.096 35.152 107.096ZM44.1036 107.096C46.6476 107.096 48.5036 105.288 48.5036 102.76C48.5036 100.232 46.6476 98.44 44.1036 98.44C41.5596 98.44 39.6876 100.232 39.6876 102.76C39.6876 105.288 41.5596 107.096 44.1036 107.096ZM44.1036 105.752C42.4716 105.752 41.2396 104.568 41.2396 102.76C41.2396 100.952 42.4716 99.784 44.1036 99.784C45.7356 99.784 46.9516 100.952 46.9516 102.76C46.9516 104.568 45.7356 105.752 44.1036 105.752ZM55.1559 98.44C53.8119 98.44 52.7239 98.936 52.0999 99.8V98.52H50.6279V107H52.1639V102.632C52.1639 100.792 53.2199 99.816 54.8519 99.816C56.3079 99.816 57.1399 100.632 57.1399 102.296V107H58.6759V102.12C58.6759 99.624 57.2199 98.44 55.1559 98.44ZM67.3623 98.52L64.3863 105.32L61.4743 98.52H59.8742L63.5863 107H65.1543L68.8663 98.52H67.3623ZM77.7294 102.808C77.7294 100.2 75.9854 98.44 73.5374 98.44C71.0894 98.44 69.2814 100.248 69.2814 102.76C69.2814 105.288 71.1054 107.096 73.8414 107.096C75.2494 107.096 76.4174 106.616 77.1854 105.72L76.3374 104.728C75.7134 105.416 74.8814 105.752 73.8894 105.752C72.2094 105.752 71.0094 104.76 70.8174 103.272H77.6974C77.7134 103.128 77.7294 102.936 77.7294 102.808ZM73.5374 99.736C75.0254 99.736 76.0974 100.744 76.2574 102.168H70.8174C70.9774 100.728 72.0654 99.736 73.5374 99.736ZM81.3343 99.944V98.52H79.8623V107H81.3983V102.776C81.3983 100.92 82.4223 99.912 84.0703 99.912C84.1823 99.912 84.2943 99.912 84.4223 99.928V98.44C82.9343 98.44 81.8783 98.952 81.3343 99.944ZM90.9471 105.4C90.6271 105.656 90.1951 105.8 89.7471 105.8C88.8991 105.8 88.4191 105.288 88.4191 104.376V99.784H90.8511V98.52H88.4191V96.664H86.8831V98.52H85.4431V99.784H86.8831V104.44C86.8831 106.152 87.8591 107.096 89.5711 107.096C90.2591 107.096 90.9631 106.904 91.4271 106.504L90.9471 105.4ZM100.667 102.808C100.667 100.2 98.9229 98.44 96.4749 98.44C94.0269 98.44 92.2189 100.248 92.2189 102.76C92.2189 105.288 94.0429 107.096 96.7789 107.096C98.1869 107.096 99.3549 106.616 100.123 105.72L99.2749 104.728C98.6509 105.416 97.8189 105.752 96.8269 105.752C95.1469 105.752 93.9469 104.76 93.7549 103.272H100.635C100.651 103.128 100.667 102.936 100.667 102.808ZM96.4749 99.736C97.9629 99.736 99.0349 100.744 99.1949 102.168H93.7549C93.9149 100.728 95.0029 99.736 96.4749 99.736ZM109.264 95.128V99.8C108.56 98.888 107.504 98.44 106.304 98.44C103.824 98.44 102.016 100.168 102.016 102.76C102.016 105.352 103.824 107.096 106.304 107.096C107.552 107.096 108.64 106.616 109.328 105.656V107H110.8V95.128H109.264ZM106.432 105.752C104.8 105.752 103.568 104.568 103.568 102.76C103.568 100.952 104.8 99.784 106.432 99.784C108.048 99.784 109.28 100.952 109.28 102.76C109.28 104.568 108.048 105.752 106.432 105.752ZM114.074 107.096C114.65 107.096 115.13 106.632 115.13 105.992C115.13 105.352 114.65 104.904 114.074 104.904C113.482 104.904 112.986 105.352 112.986 105.992C112.986 106.632 113.482 107.096 114.074 107.096Z" fill="black"/>
<circle cx="42.5" cy="32.5" r="27.5" fill="#E6F3FF"/>
<circle cx="37.5" cy="27.5" r="26.5" stroke="#377FD2" stroke-width="2"/>
<path d="M45.0693 38H30.4502V35.0996L37.3496 27.7461C38.2969 26.7109 38.9951 25.8076 39.4443 25.0361C39.9033 24.2646 40.1328 23.5322 40.1328 22.8389C40.1328 21.8916 39.8936 21.1494 39.415 20.6123C38.9365 20.0654 38.2529 19.792 37.3643 19.792C36.4072 19.792 35.6504 20.124 35.0938 20.7881C34.5469 21.4424 34.2734 22.3066 34.2734 23.3809H30.0254C30.0254 22.082 30.333 20.8955 30.9482 19.8213C31.5732 18.7471 32.4521 17.9072 33.585 17.3018C34.7178 16.6865 36.002 16.3789 37.4375 16.3789C39.6348 16.3789 41.3389 16.9062 42.5498 17.9609C43.7705 19.0156 44.3809 20.5049 44.3809 22.4287C44.3809 23.4834 44.1074 24.5576 43.5605 25.6514C43.0137 26.7451 42.0762 28.0195 40.748 29.4746L35.8994 34.5869H45.0693V38Z" fill="#377FD2"/>
<defs>
<filter id="filter0_d_255_55" x="0" y="20" width="275" height="164" filterUnits="userSpaceOnUse" color-interpolation-filters="sRGB">
<feFlood flood-opacity="0" result="BackgroundImageFix"/>
<feColorMatrix in="SourceAlpha" type="matrix" values="0 0 0 0 0 0 0 0 0 0 0 0 0 0 0 0 0 0 127 0" result="hardAlpha"/>
<feOffset/>
<feGaussianBlur stdDeviation="5"/>
<feComposite in2="hardAlpha" operator="out"/>
<feColorMatrix type="matrix" values="0 0 0 0 0.240719 0 0 0 0 0.434868 0 0 0 0 0.662782 0 0 0 0.2 0"/>
<feBlend mode="normal" in2="BackgroundImageFix" result="effect1_dropShadow_255_55"/>
<feBlend mode="normal" in="SourceGraphic" in2="effect1_dropShadow_255_55" result="shape"/>
</filter>
</defs>
</svg>
