<svg width="275" height="184" viewBox="0 0 275 184" fill="none" xmlns="http://www.w3.org/2000/svg">
<g filter="url(#filter0_d_255_54)">
<rect x="10" y="30" width="255" height="144" rx="10" fill="white"/>
</g>
<path d="M40.048 86H41.728L36.64 74.8H35.056L29.984 86H31.632L32.864 83.2H38.816L40.048 86ZM33.424 81.92L35.84 76.432L38.256 81.92H33.424ZM46.2788 75.296C46.7268 75.296 47.1428 75.456 47.4628 75.696L47.9268 74.528C47.4948 74.192 46.8548 74.032 46.1988 74.032C44.3908 74.032 43.3988 75.12 43.3988 76.768V77.52H41.9588V78.784H43.3988V86H44.9348V78.784H47.3668V77.52H44.9028V76.784C44.9028 75.808 45.3668 75.296 46.2788 75.296ZM53.1034 84.4C52.7834 84.656 52.3514 84.8 51.9034 84.8C51.0554 84.8 50.5754 84.288 50.5754 83.376V78.784H53.0074V77.52H50.5754V75.664H49.0394V77.52H47.5994V78.784H49.0394V83.44C49.0394 85.152 50.0154 86.096 51.7274 86.096C52.4154 86.096 53.1194 85.904 53.5834 85.504L53.1034 84.4ZM62.8231 81.808C62.8231 79.2 61.0791 77.44 58.6311 77.44C56.1831 77.44 54.3751 79.248 54.3751 81.76C54.3751 84.288 56.1991 86.096 58.9351 86.096C60.3431 86.096 61.5111 85.616 62.2791 84.72L61.4311 83.728C60.8071 84.416 59.9751 84.752 58.9831 84.752C57.3031 84.752 56.1031 83.76 55.9111 82.272H62.7911C62.8071 82.128 62.8231 81.936 62.8231 81.808ZM58.6311 78.736C60.1191 78.736 61.1911 79.744 61.3511 81.168H55.9111C56.0711 79.728 57.1591 78.736 58.6311 78.736ZM66.428 78.944V77.52H64.956V86H66.492V81.776C66.492 79.92 67.516 78.912 69.164 78.912C69.276 78.912 69.388 78.912 69.516 78.928V77.44C68.028 77.44 66.972 77.952 66.428 78.944ZM76.5834 75.888C77.1914 75.888 77.6234 75.44 77.6234 74.864C77.6234 74.32 77.1754 73.888 76.5834 73.888C75.9914 73.888 75.5434 74.336 75.5434 74.896C75.5434 75.456 75.9914 75.888 76.5834 75.888ZM75.8154 86H77.3514V77.52H75.8154V86ZM84.8121 77.44C83.4681 77.44 82.3801 77.936 81.7561 78.8V77.52H80.2841V86H81.8201V81.632C81.8201 79.792 82.8761 78.816 84.5081 78.816C85.9641 78.816 86.7961 79.632 86.7961 81.296V86H88.3321V81.12C88.3321 78.624 86.8761 77.44 84.8121 77.44ZM93.6068 86.096C95.8628 86.096 97.2708 85.12 97.2708 83.584C97.2708 80.288 91.8948 81.92 91.8948 79.92C91.8948 79.248 92.5508 78.752 93.8948 78.752C94.7268 78.752 95.5748 78.928 96.3428 79.424L96.9988 78.208C96.2628 77.728 95.0148 77.44 93.9108 77.44C91.7348 77.44 90.3748 78.464 90.3748 79.984C90.3748 83.36 95.7348 81.712 95.7348 83.616C95.7348 84.336 95.1428 84.768 93.7188 84.768C92.6148 84.768 91.4628 84.4 90.7428 83.888L90.1028 85.104C90.8068 85.664 92.1988 86.096 93.6068 86.096ZM103.478 84.4C103.158 84.656 102.726 84.8 102.278 84.8C101.43 84.8 100.95 84.288 100.95 83.376V78.784H103.382V77.52H100.95V75.664H99.4144V77.52H97.9744V78.784H99.4144V83.44C99.4144 85.152 100.39 86.096 102.102 86.096C102.79 86.096 103.494 85.904 103.958 85.504L103.478 84.4ZM108.903 77.44C107.543 77.44 106.279 77.824 105.399 78.528L106.039 79.68C106.695 79.12 107.719 78.768 108.727 78.768C110.247 78.768 110.999 79.52 110.999 80.816V81.12H108.567C106.039 81.12 105.159 82.24 105.159 83.6C105.159 85.072 106.375 86.096 108.295 86.096C109.623 86.096 110.567 85.648 111.079 84.88V86H112.535V80.88C112.535 78.56 111.223 77.44 108.903 77.44ZM108.551 84.912C107.383 84.912 106.679 84.384 106.679 83.536C106.679 82.816 107.111 82.224 108.631 82.224H110.999V83.408C110.615 84.384 109.703 84.912 108.551 84.912ZM115.378 86H116.914V74.128H115.378V86ZM119.847 86H121.383V74.128H119.847V86ZM127.403 77.44C126.043 77.44 124.779 77.824 123.899 78.528L124.539 79.68C125.195 79.12 126.219 78.768 127.227 78.768C128.747 78.768 129.499 79.52 129.499 80.816V81.12H127.067C124.539 81.12 123.659 82.24 123.659 83.6C123.659 85.072 124.875 86.096 126.795 86.096C128.123 86.096 129.067 85.648 129.579 84.88V86H131.035V80.88C131.035 78.56 129.723 77.44 127.403 77.44ZM127.051 84.912C125.883 84.912 125.179 84.384 125.179 83.536C125.179 82.816 125.611 82.224 127.131 82.224H129.499V83.408C129.115 84.384 128.203 84.912 127.051 84.912ZM138.166 84.4C137.846 84.656 137.414 84.8 136.966 84.8C136.118 84.8 135.638 84.288 135.638 83.376V78.784H138.07V77.52H135.638V75.664H134.102V77.52H132.662V78.784H134.102V83.44C134.102 85.152 135.078 86.096 136.79 86.096C137.478 86.096 138.182 85.904 138.646 85.504L138.166 84.4ZM141.271 75.888C141.879 75.888 142.311 75.44 142.311 74.864C142.311 74.32 141.863 73.888 141.271 73.888C140.679 73.888 140.231 74.336 140.231 74.896C140.231 75.456 140.679 75.888 141.271 75.888ZM140.503 86H142.039V77.52H140.503V86ZM148.604 86.096C151.148 86.096 153.004 84.288 153.004 81.76C153.004 79.232 151.148 77.44 148.604 77.44C146.06 77.44 144.188 79.232 144.188 81.76C144.188 84.288 146.06 86.096 148.604 86.096ZM148.604 84.752C146.972 84.752 145.74 83.568 145.74 81.76C145.74 79.952 146.972 78.784 148.604 78.784C150.236 78.784 151.452 79.952 151.452 81.76C151.452 83.568 150.236 84.752 148.604 84.752ZM159.656 77.44C158.312 77.44 157.224 77.936 156.6 78.8V77.52H155.128V86H156.664V81.632C156.664 79.792 157.72 78.816 159.352 78.816C160.808 78.816 161.64 79.632 161.64 81.296V86H163.176V81.12C163.176 78.624 161.72 77.44 159.656 77.44ZM176.971 77.52V78.832C176.251 77.904 175.099 77.44 173.835 77.44C171.387 77.44 169.531 79.088 169.531 81.536C169.531 83.984 171.387 85.648 173.835 85.648C175.051 85.648 176.155 85.216 176.891 84.336V85.008C176.891 86.928 175.979 87.856 173.979 87.856C172.731 87.856 171.499 87.424 170.715 86.752L169.979 87.936C170.907 88.768 172.475 89.2 174.027 89.2C176.907 89.2 178.427 87.84 178.427 84.848V77.52H176.971ZM174.011 84.304C172.299 84.304 171.083 83.168 171.083 81.536C171.083 79.888 172.299 78.784 174.011 78.784C175.707 78.784 176.923 79.888 176.923 81.536C176.923 83.168 175.707 84.304 174.011 84.304ZM184.994 86.096C187.538 86.096 189.394 84.288 189.394 81.76C189.394 79.232 187.538 77.44 184.994 77.44C182.45 77.44 180.578 79.232 180.578 81.76C180.578 84.288 182.45 86.096 184.994 86.096ZM184.994 84.752C183.362 84.752 182.13 83.568 182.13 81.76C182.13 79.952 183.362 78.784 184.994 78.784C186.626 78.784 187.842 79.952 187.842 81.76C187.842 83.568 186.626 84.752 184.994 84.752ZM200.103 84.4C199.783 84.656 199.351 84.8 198.903 84.8C198.055 84.8 197.575 84.288 197.575 83.376V78.784H200.007V77.52H197.575V75.664H196.039V77.52H194.599V78.784H196.039V83.44C196.039 85.152 197.015 86.096 198.727 86.096C199.415 86.096 200.119 85.904 200.583 85.504L200.103 84.4ZM205.791 86.096C208.335 86.096 210.191 84.288 210.191 81.76C210.191 79.232 208.335 77.44 205.791 77.44C203.247 77.44 201.375 79.232 201.375 81.76C201.375 84.288 203.247 86.096 205.791 86.096ZM205.791 84.752C204.159 84.752 202.927 83.568 202.927 81.76C202.927 79.952 204.159 78.784 205.791 78.784C207.423 78.784 208.639 79.952 208.639 81.76C208.639 83.568 207.423 84.752 205.791 84.752ZM45.984 95.8L42.896 104.952L39.808 95.8H38.336L35.184 104.904L32.16 95.8H30.512L34.256 107H35.968L39.024 98.056L42.08 107H43.76L47.504 95.8H45.984ZM56.2606 102.808C56.2606 100.2 54.5166 98.44 52.0686 98.44C49.6206 98.44 47.8126 100.248 47.8126 102.76C47.8126 105.288 49.6366 107.096 52.3726 107.096C53.7806 107.096 54.9486 106.616 55.7166 105.72L54.8686 104.728C54.2446 105.416 53.4126 105.752 52.4206 105.752C50.7406 105.752 49.5406 104.76 49.3486 103.272H56.2286C56.2446 103.128 56.2606 102.936 56.2606 102.808ZM52.0686 99.736C53.5566 99.736 54.6286 100.744 54.7886 102.168H49.3486C49.5086 100.728 50.5966 99.736 52.0686 99.736ZM62.8895 98.44C61.6895 98.44 60.6335 98.888 59.9295 99.8V95.128H58.3935V107H59.8655V105.656C60.5535 106.616 61.6415 107.096 62.8895 107.096C65.3695 107.096 67.1775 105.352 67.1775 102.76C67.1775 100.168 65.3695 98.44 62.8895 98.44ZM62.7615 105.752C61.1455 105.752 59.9135 104.568 59.9135 102.76C59.9135 100.952 61.1455 99.784 62.7615 99.784C64.3935 99.784 65.6255 100.952 65.6255 102.76C65.6255 104.568 64.3935 105.752 62.7615 105.752ZM71.7318 107.096C73.9878 107.096 75.3958 106.12 75.3958 104.584C75.3958 101.288 70.0198 102.92 70.0198 100.92C70.0198 100.248 70.6758 99.752 72.0198 99.752C72.8518 99.752 73.6998 99.928 74.4678 100.424L75.1238 99.208C74.3878 98.728 73.1398 98.44 72.0358 98.44C69.8598 98.44 68.4998 99.464 68.4998 100.984C68.4998 104.36 73.8598 102.712 73.8598 104.616C73.8598 105.336 73.2678 105.768 71.8438 105.768C70.7398 105.768 69.5878 105.4 68.8678 104.888L68.2278 106.104C68.9318 106.664 70.3238 107.096 71.7318 107.096ZM78.0834 96.888C78.6914 96.888 79.1234 96.44 79.1234 95.864C79.1234 95.32 78.6754 94.888 78.0834 94.888C77.4914 94.888 77.0434 95.336 77.0434 95.896C77.0434 96.456 77.4914 96.888 78.0834 96.888ZM77.3154 107H78.8514V98.52H77.3154V107ZM86.0721 105.4C85.7521 105.656 85.3201 105.8 84.8721 105.8C84.0241 105.8 83.5441 105.288 83.5441 104.376V99.784H85.9761V98.52H83.5441V96.664H82.0081V98.52H80.5681V99.784H82.0081V104.44C82.0081 106.152 82.9841 107.096 84.6961 107.096C85.3841 107.096 86.0881 106.904 86.5521 106.504L86.0721 105.4ZM95.7919 102.808C95.7919 100.2 94.0479 98.44 91.5999 98.44C89.1519 98.44 87.3439 100.248 87.3439 102.76C87.3439 105.288 89.1679 107.096 91.9039 107.096C93.3119 107.096 94.4799 106.616 95.2479 105.72L94.3999 104.728C93.7759 105.416 92.9439 105.752 91.9519 105.752C90.2719 105.752 89.0719 104.76 88.8799 103.272H95.7599C95.7759 103.128 95.7919 102.936 95.7919 102.808ZM91.5999 99.736C93.0879 99.736 94.1599 100.744 94.3199 102.168H88.8799C89.0399 100.728 90.1279 99.736 91.5999 99.736ZM110.814 107H112.494L107.406 95.8H105.822L100.75 107H102.398L103.63 104.2H109.582L110.814 107ZM104.19 102.92L106.606 97.432L109.022 102.92H104.19ZM118.436 98.44C117.188 98.44 116.1 98.92 115.412 99.864V98.52H113.94V110.104H115.476V105.72C116.18 106.632 117.236 107.096 118.436 107.096C120.916 107.096 122.724 105.368 122.724 102.76C122.724 100.168 120.916 98.44 118.436 98.44ZM118.308 105.752C116.692 105.752 115.46 104.568 115.46 102.76C115.46 100.968 116.692 99.784 118.308 99.784C119.94 99.784 121.172 100.968 121.172 102.76C121.172 104.568 119.94 105.752 118.308 105.752ZM129.343 98.44C128.095 98.44 127.007 98.92 126.319 99.864V98.52H124.847V110.104H126.383V105.72C127.087 106.632 128.143 107.096 129.343 107.096C131.823 107.096 133.631 105.368 133.631 102.76C133.631 100.168 131.823 98.44 129.343 98.44ZM129.215 105.752C127.599 105.752 126.367 104.568 126.367 102.76C126.367 100.968 127.599 99.784 129.215 99.784C130.847 99.784 132.079 100.968 132.079 102.76C132.079 104.568 130.847 105.752 129.215 105.752ZM139.666 97.88V99.208L145.362 101.4L139.666 103.592V104.92L146.834 102.088V100.712L139.666 97.88ZM36.688 128.128C38.432 128.128 39.936 127.52 40.96 126.368L39.92 125.36C39.056 126.272 38 126.704 36.768 126.704C34.24 126.704 32.368 124.88 32.368 122.4C32.368 119.92 34.24 118.096 36.768 118.096C38 118.096 39.056 118.512 39.92 119.424L40.96 118.416C39.936 117.264 38.432 116.672 36.704 116.672C33.296 116.672 30.768 119.088 30.768 122.4C30.768 125.712 33.296 128.128 36.688 128.128ZM46.2911 128.096C48.8351 128.096 50.6911 126.288 50.6911 123.76C50.6911 121.232 48.8351 119.44 46.2911 119.44C43.7471 119.44 41.8751 121.232 41.8751 123.76C41.8751 126.288 43.7471 128.096 46.2911 128.096ZM46.2911 126.752C44.6591 126.752 43.4271 125.568 43.4271 123.76C43.4271 121.952 44.6591 120.784 46.2911 120.784C47.9231 120.784 49.1391 121.952 49.1391 123.76C49.1391 125.568 47.9231 126.752 46.2911 126.752ZM57.3434 119.44C55.9994 119.44 54.9114 119.936 54.2874 120.8V119.52H52.8154V128H54.3514V123.632C54.3514 121.792 55.4074 120.816 57.0394 120.816C58.4954 120.816 59.3274 121.632 59.3274 123.296V128H60.8634V123.12C60.8634 120.624 59.4074 119.44 57.3434 119.44ZM71.402 117.888C72.01 117.888 72.442 117.44 72.442 116.864C72.442 116.32 71.994 115.888 71.402 115.888C70.81 115.888 70.362 116.336 70.362 116.896C70.362 117.456 70.81 117.888 71.402 117.888ZM63.93 118.768V119.52H62.49V120.784H63.93V128H65.466V120.784H67.898V119.52H65.434V118.784C65.434 117.808 65.898 117.296 66.81 117.296C67.258 117.296 67.674 117.456 67.994 117.696L68.458 116.528C68.026 116.192 67.386 116.032 66.73 116.032C64.922 116.032 63.93 117.12 63.93 118.768ZM70.634 128H72.17V119.52H70.634V128ZM81.7526 119.52V120.832C81.0326 119.904 79.8806 119.44 78.6166 119.44C76.1686 119.44 74.3126 121.088 74.3126 123.536C74.3126 125.984 76.1686 127.648 78.6166 127.648C79.8326 127.648 80.9366 127.216 81.6726 126.336V127.008C81.6726 128.928 80.7606 129.856 78.7606 129.856C77.5126 129.856 76.2806 129.424 75.4966 128.752L74.7606 129.936C75.6886 130.768 77.2566 131.2 78.8086 131.2C81.6886 131.2 83.2086 129.84 83.2086 126.848V119.52H81.7526ZM78.7926 126.304C77.0806 126.304 75.8646 125.168 75.8646 123.536C75.8646 121.888 77.0806 120.784 78.7926 120.784C80.4886 120.784 81.7046 121.888 81.7046 123.536C81.7046 125.168 80.4886 126.304 78.7926 126.304ZM92.5115 119.52V123.904C92.5115 125.728 91.4875 126.72 89.8875 126.72C88.4315 126.72 87.5995 125.888 87.5995 124.224V119.52H86.0635V124.4C86.0635 126.896 87.5195 128.096 89.7115 128.096C90.9115 128.096 91.9675 127.6 92.5915 126.72V128H94.0475V119.52H92.5115ZM98.4436 120.944V119.52H96.9716V128H98.5076V123.776C98.5076 121.92 99.5316 120.912 101.18 120.912C101.292 120.912 101.404 120.912 101.532 120.928V119.44C100.044 119.44 98.9876 119.952 98.4436 120.944ZM106.497 119.44C105.137 119.44 103.873 119.824 102.993 120.528L103.633 121.68C104.289 121.12 105.313 120.768 106.321 120.768C107.841 120.768 108.593 121.52 108.593 122.816V123.12H106.161C103.633 123.12 102.753 124.24 102.753 125.6C102.753 127.072 103.969 128.096 105.889 128.096C107.217 128.096 108.161 127.648 108.673 126.88V128H110.129V122.88C110.129 120.56 108.817 119.44 106.497 119.44ZM106.145 126.912C104.977 126.912 104.273 126.384 104.273 125.536C104.273 124.816 104.705 124.224 106.225 124.224H108.593V125.408C108.209 126.384 107.297 126.912 106.145 126.912ZM117.26 126.4C116.94 126.656 116.508 126.8 116.06 126.8C115.212 126.8 114.732 126.288 114.732 125.376V120.784H117.164V119.52H114.732V117.664H113.196V119.52H111.756V120.784H113.196V125.44C113.196 127.152 114.172 128.096 115.884 128.096C116.572 128.096 117.276 127.904 117.74 127.504L117.26 126.4ZM120.365 117.888C120.973 117.888 121.405 117.44 121.405 116.864C121.405 116.32 120.957 115.888 120.365 115.888C119.773 115.888 119.325 116.336 119.325 116.896C119.325 117.456 119.773 117.888 120.365 117.888ZM119.597 128H121.133V119.52H119.597V128ZM127.697 128.096C130.241 128.096 132.097 126.288 132.097 123.76C132.097 121.232 130.241 119.44 127.697 119.44C125.153 119.44 123.281 121.232 123.281 123.76C123.281 126.288 125.153 128.096 127.697 128.096ZM127.697 126.752C126.065 126.752 124.833 125.568 124.833 123.76C124.833 121.952 126.065 120.784 127.697 120.784C129.329 120.784 130.545 121.952 130.545 123.76C130.545 125.568 129.329 126.752 127.697 126.752ZM138.75 119.44C137.406 119.44 136.318 119.936 135.694 120.8V119.52H134.222V128H135.758V123.632C135.758 121.792 136.814 120.816 138.446 120.816C139.902 120.816 140.734 121.632 140.734 123.296V128H142.27V123.12C142.27 120.624 140.814 119.44 138.75 119.44ZM147.544 128.096C149.8 128.096 151.208 127.12 151.208 125.584C151.208 122.288 145.832 123.92 145.832 121.92C145.832 121.248 146.488 120.752 147.832 120.752C148.664 120.752 149.512 120.928 150.28 121.424L150.936 120.208C150.2 119.728 148.952 119.44 147.848 119.44C145.672 119.44 144.312 120.464 144.312 121.984C144.312 125.36 149.672 123.712 149.672 125.616C149.672 126.336 149.08 126.768 147.656 126.768C146.552 126.768 145.4 126.4 144.68 125.888L144.04 127.104C144.744 127.664 146.136 128.096 147.544 128.096ZM152.744 118.88V120.208L158.44 122.4L152.744 124.592V125.92L159.912 123.088V121.712L152.744 118.88ZM181.265 116.8L178.177 125.952L175.089 116.8H173.617L170.465 125.904L167.441 116.8H165.793L169.537 128H171.249L174.305 119.056L177.361 128H179.041L182.785 116.8H181.265ZM191.542 123.808C191.542 121.2 189.798 119.44 187.35 119.44C184.902 119.44 183.094 121.248 183.094 123.76C183.094 126.288 184.918 128.096 187.654 128.096C189.062 128.096 190.23 127.616 190.998 126.72L190.15 125.728C189.526 126.416 188.694 126.752 187.702 126.752C186.022 126.752 184.822 125.76 184.63 124.272H191.51C191.526 124.128 191.542 123.936 191.542 123.808ZM187.35 120.736C188.838 120.736 189.91 121.744 190.07 123.168H184.63C184.79 121.728 185.878 120.736 187.35 120.736ZM198.171 119.44C196.971 119.44 195.915 119.888 195.211 120.8V116.128H193.675V128H195.147V126.656C195.835 127.616 196.923 128.096 198.171 128.096C200.651 128.096 202.459 126.352 202.459 123.76C202.459 121.168 200.651 119.44 198.171 119.44ZM198.043 126.752C196.427 126.752 195.195 125.568 195.195 123.76C195.195 121.952 196.427 120.784 198.043 120.784C199.675 120.784 200.907 121.952 200.907 123.76C200.907 125.568 199.675 126.752 198.043 126.752ZM207.013 128.096C209.269 128.096 210.677 127.12 210.677 125.584C210.677 122.288 205.301 123.92 205.301 121.92C205.301 121.248 205.957 120.752 207.301 120.752C208.133 120.752 208.981 120.928 209.749 121.424L210.405 120.208C209.669 119.728 208.421 119.44 207.317 119.44C205.141 119.44 203.781 120.464 203.781 121.984C203.781 125.36 209.141 123.712 209.141 125.616C209.141 126.336 208.549 126.768 207.125 126.768C206.021 126.768 204.869 126.4 204.149 125.888L203.509 127.104C204.213 127.664 205.605 128.096 207.013 128.096ZM213.365 117.888C213.973 117.888 214.405 117.44 214.405 116.864C214.405 116.32 213.957 115.888 213.365 115.888C212.773 115.888 212.325 116.336 212.325 116.896C212.325 117.456 212.773 117.888 213.365 117.888ZM212.597 128H214.133V119.52H212.597V128ZM221.353 126.4C221.033 126.656 220.601 126.8 220.153 126.8C219.305 126.8 218.825 126.288 218.825 125.376V120.784H221.257V119.52H218.825V117.664H217.289V119.52H215.849V120.784H217.289V125.44C217.289 127.152 218.265 128.096 219.977 128.096C220.665 128.096 221.369 127.904 221.833 127.504L221.353 126.4ZM231.073 123.808C231.073 121.2 229.329 119.44 226.881 119.44C224.433 119.44 222.625 121.248 222.625 123.76C222.625 126.288 224.449 128.096 227.185 128.096C228.593 128.096 229.761 127.616 230.529 126.72L229.681 125.728C229.057 126.416 228.225 126.752 227.233 126.752C225.553 126.752 224.353 125.76 224.161 124.272H231.041C231.057 124.128 231.073 123.936 231.073 123.808ZM226.881 120.736C228.369 120.736 229.441 121.744 229.601 123.168H224.161C224.321 121.728 225.409 120.736 226.881 120.736ZM235.638 128.096C237.894 128.096 239.302 127.12 239.302 125.584C239.302 122.288 233.926 123.92 233.926 121.92C233.926 121.248 234.582 120.752 235.926 120.752C236.758 120.752 237.606 120.928 238.374 121.424L239.03 120.208C238.294 119.728 237.046 119.44 235.942 119.44C233.766 119.44 232.406 120.464 232.406 121.984C232.406 125.36 237.766 123.712 237.766 125.616C237.766 126.336 237.174 126.768 235.75 126.768C234.646 126.768 233.494 126.4 232.774 125.888L232.134 127.104C232.838 127.664 234.23 128.096 235.638 128.096ZM34.56 138.296C35.008 138.296 35.424 138.456 35.744 138.696L36.208 137.528C35.776 137.192 35.136 137.032 34.48 137.032C32.672 137.032 31.68 138.12 31.68 139.768V140.52H30.24V141.784H31.68V149H33.216V141.784H35.648V140.52H33.184V139.784C33.184 138.808 33.648 138.296 34.56 138.296ZM39.8499 141.944V140.52H38.3779V149H39.9139V144.776C39.9139 142.92 40.9379 141.912 42.5859 141.912C42.6979 141.912 42.8099 141.912 42.9379 141.928V140.44C41.4499 140.44 40.3939 140.952 39.8499 141.944ZM48.3849 149.096C50.9289 149.096 52.7849 147.288 52.7849 144.76C52.7849 142.232 50.9289 140.44 48.3849 140.44C45.8409 140.44 43.9689 142.232 43.9689 144.76C43.9689 147.288 45.8409 149.096 48.3849 149.096ZM48.3849 147.752C46.7529 147.752 45.5209 146.568 45.5209 144.76C45.5209 142.952 46.7529 141.784 48.3849 141.784C50.0169 141.784 51.2329 142.952 51.2329 144.76C51.2329 146.568 50.0169 147.752 48.3849 147.752ZM65.5171 140.44C64.0771 140.44 62.8931 141.048 62.2531 142.008C61.6931 140.952 60.6051 140.44 59.3091 140.44C58.0291 140.44 56.9891 140.92 56.3811 141.784V140.52H54.9091V149H56.4451V144.632C56.4451 142.792 57.4531 141.816 58.9891 141.816C60.3811 141.816 61.1811 142.632 61.1811 144.296V149H62.7171V144.632C62.7171 142.792 63.7251 141.816 65.2611 141.816C66.6531 141.816 67.4531 142.632 67.4531 144.296V149H68.9891V144.12C68.9891 141.624 67.5811 140.44 65.5171 140.44ZM86.7203 140.44C85.2803 140.44 84.0963 141.048 83.4563 142.008C82.8963 140.952 81.8083 140.44 80.5123 140.44C79.2323 140.44 78.1923 140.92 77.5843 141.784V140.52H76.1123V149H77.6483V144.632C77.6483 142.792 78.6562 141.816 80.1923 141.816C81.5843 141.816 82.3843 142.632 82.3843 144.296V149H83.9203V144.632C83.9203 142.792 84.9283 141.816 86.4643 141.816C87.8563 141.816 88.6563 142.632 88.6563 144.296V149H90.1923V144.12C90.1923 141.624 88.7843 140.44 86.7203 140.44ZM100.729 144.808C100.729 142.2 98.9854 140.44 96.5374 140.44C94.0894 140.44 92.2814 142.248 92.2814 144.76C92.2814 147.288 94.1054 149.096 96.8414 149.096C98.2494 149.096 99.4174 148.616 100.185 147.72L99.3374 146.728C98.7134 147.416 97.8814 147.752 96.8894 147.752C95.2094 147.752 94.0094 146.76 93.8174 145.272H100.697C100.713 145.128 100.729 144.936 100.729 144.808ZM96.5374 141.736C98.0254 141.736 99.0974 142.744 99.2574 144.168H93.8174C93.9774 142.728 95.0654 141.736 96.5374 141.736ZM107.39 140.44C106.046 140.44 104.958 140.936 104.334 141.8V140.52H102.862V149H104.398V144.632C104.398 142.792 105.454 141.816 107.086 141.816C108.542 141.816 109.374 142.632 109.374 144.296V149H110.91V144.12C110.91 141.624 109.454 140.44 107.39 140.44ZM120.121 140.52V144.904C120.121 146.728 119.097 147.72 117.497 147.72C116.041 147.72 115.209 146.888 115.209 145.224V140.52H113.673V145.4C113.673 147.896 115.129 149.096 117.321 149.096C118.521 149.096 119.577 148.6 120.201 147.72V149H121.657V140.52H120.121ZM124.949 149.096C125.525 149.096 126.005 148.632 126.005 147.992C126.005 147.352 125.525 146.904 124.949 146.904C124.357 146.904 123.861 147.352 123.861 147.992C123.861 148.632 124.357 149.096 124.949 149.096Z" fill="black"/>
<circle cx="42.5" cy="32.5" r="27.5" fill="#E6F3FF"/>
<circle cx="37.5" cy="27.5" r="26.5" stroke="#377FD2" stroke-width="2"/>
<path d="M40.7334 38H36.5V21.6816L31.4463 23.249V19.8066L40.2793 16.6426H40.7334V38Z" fill="#377FD2"/>
<defs>
<filter id="filter0_d_255_54" x="0" y="20" width="275" height="164" filterUnits="userSpaceOnUse" color-interpolation-filters="sRGB">
<feFlood flood-opacity="0" result="BackgroundImageFix"/>
<feColorMatrix in="SourceAlpha" type="matrix" values="0 0 0 0 0 0 0 0 0 0 0 0 0 0 0 0 0 0 127 0" result="hardAlpha"/>
<feOffset/>
<feGaussianBlur stdDeviation="5"/>
<feComposite in2="hardAlpha" operator="out"/>
<feColorMatrix type="matrix" values="0 0 0 0 0.240719 0 0 0 0 0.434868 0 0 0 0 0.662782 0 0 0 0.2 0"/>
<feBlend mode="normal" in2="BackgroundImageFix" result="effect1_dropShadow_255_54"/>
<feBlend mode="normal" in="SourceGraphic" in2="effect1_dropShadow_255_54" result="shape"/>
</filter>
</defs>
</svg>
