<svg width="275" height="184" viewBox="0 0 275 184" fill="none" xmlns="http://www.w3.org/2000/svg">
<g filter="url(#filter0_d_255_56)">
<rect x="10" y="30" width="255" height="144" rx="10" fill="white"/>
</g>
<path d="M33.28 84.608V80.992H38.896V79.632H33.28V76.192H39.584V74.8H31.68V86H39.808V84.608H33.28ZM46.7028 77.44C45.3588 77.44 44.2708 77.936 43.6468 78.8V77.52H42.1748V86H43.7108V81.632C43.7108 79.792 44.7668 78.816 46.3988 78.816C47.8548 78.816 48.6868 79.632 48.6868 81.296V86H50.2228V81.12C50.2228 78.624 48.7668 77.44 46.7028 77.44ZM56.1534 77.44C54.7934 77.44 53.5294 77.824 52.6494 78.528L53.2894 79.68C53.9454 79.12 54.9694 78.768 55.9774 78.768C57.4974 78.768 58.2494 79.52 58.2494 80.816V81.12H55.8174C53.2894 81.12 52.4094 82.24 52.4094 83.6C52.4094 85.072 53.6254 86.096 55.5454 86.096C56.8734 86.096 57.8174 85.648 58.3294 84.88V86H59.7854V80.88C59.7854 78.56 58.4734 77.44 56.1534 77.44ZM55.8014 84.912C54.6334 84.912 53.9294 84.384 53.9294 83.536C53.9294 82.816 54.3614 82.224 55.8814 82.224H58.2494V83.408C57.8654 84.384 56.9534 84.912 55.8014 84.912ZM67.1239 77.44C65.9239 77.44 64.8679 77.888 64.1639 78.8V74.128H62.6279V86H64.0999V84.656C64.7879 85.616 65.8759 86.096 67.1239 86.096C69.6039 86.096 71.4119 84.352 71.4119 81.76C71.4119 79.168 69.6039 77.44 67.1239 77.44ZM66.9959 84.752C65.3799 84.752 64.1479 83.568 64.1479 81.76C64.1479 79.952 65.3799 78.784 66.9959 78.784C68.6279 78.784 69.8599 79.952 69.8599 81.76C69.8599 83.568 68.6279 84.752 66.9959 84.752ZM73.5341 86H75.0701V74.128H73.5341V86ZM85.6669 81.808C85.6669 79.2 83.9229 77.44 81.4749 77.44C79.0269 77.44 77.2189 79.248 77.2189 81.76C77.2189 84.288 79.0429 86.096 81.7789 86.096C83.1869 86.096 84.3549 85.616 85.1229 84.72L84.2749 83.728C83.6509 84.416 82.8189 84.752 81.8269 84.752C80.1469 84.752 78.9469 83.76 78.7549 82.272H85.6349C85.6509 82.128 85.6669 81.936 85.6669 81.808ZM81.4749 78.736C82.9629 78.736 84.0349 79.744 84.1949 81.168H78.7549C78.9149 79.728 80.0029 78.736 81.4749 78.736ZM106.625 74.8L103.537 83.952L100.449 74.8H98.9766L95.8246 83.904L92.8006 74.8H91.1526L94.8966 86H96.6086L99.6646 77.056L102.721 86H104.401L108.145 74.8H106.625ZM116.901 81.808C116.901 79.2 115.157 77.44 112.709 77.44C110.261 77.44 108.453 79.248 108.453 81.76C108.453 84.288 110.277 86.096 113.013 86.096C114.421 86.096 115.589 85.616 116.357 84.72L115.509 83.728C114.885 84.416 114.053 84.752 113.061 84.752C111.381 84.752 110.181 83.76 109.989 82.272H116.869C116.885 82.128 116.901 81.936 116.901 81.808ZM112.709 78.736C114.197 78.736 115.269 79.744 115.429 81.168H109.989C110.149 79.728 111.237 78.736 112.709 78.736ZM123.53 77.44C122.33 77.44 121.274 77.888 120.57 78.8V74.128H119.034V86H120.506V84.656C121.194 85.616 122.282 86.096 123.53 86.096C126.01 86.096 127.818 84.352 127.818 81.76C127.818 79.168 126.01 77.44 123.53 77.44ZM123.402 84.752C121.786 84.752 120.554 83.568 120.554 81.76C120.554 79.952 121.786 78.784 123.402 78.784C125.034 78.784 126.266 79.952 126.266 81.76C126.266 83.568 125.034 84.752 123.402 84.752ZM134.532 74.8H130.164V86H131.764V82.608H134.532C137.444 82.608 139.204 81.136 139.204 78.704C139.204 76.272 137.444 74.8 134.532 74.8ZM134.484 81.216H131.764V76.192H134.484C136.532 76.192 137.604 77.104 137.604 78.704C137.604 80.304 136.532 81.216 134.484 81.216ZM148.888 75.296C149.336 75.296 149.752 75.456 150.072 75.696L150.536 74.528C150.104 74.192 149.464 74.032 148.808 74.032C147 74.032 146.008 75.12 146.008 76.768V77.52H144.568V78.784H146.008V86H147.544V78.784H149.976V77.52H147.512V76.784C147.512 75.808 147.976 75.296 148.888 75.296ZM154.932 86.096C157.476 86.096 159.332 84.288 159.332 81.76C159.332 79.232 157.476 77.44 154.932 77.44C152.388 77.44 150.516 79.232 150.516 81.76C150.516 84.288 152.388 86.096 154.932 86.096ZM154.932 84.752C153.3 84.752 152.068 83.568 152.068 81.76C152.068 79.952 153.3 78.784 154.932 78.784C156.564 78.784 157.78 79.952 157.78 81.76C157.78 83.568 156.564 84.752 154.932 84.752ZM162.928 78.944V77.52H161.456V86H162.992V81.776C162.992 79.92 164.016 78.912 165.664 78.912C165.776 78.912 165.888 78.912 166.016 78.928V77.44C164.528 77.44 163.472 77.952 162.928 78.944ZM176.011 86.096C177.531 86.096 178.795 85.456 179.467 84.272L178.299 83.536C177.755 84.368 176.923 84.752 175.995 84.752C174.331 84.752 173.083 83.6 173.083 81.76C173.083 79.952 174.331 78.784 175.995 78.784C176.923 78.784 177.755 79.168 178.299 80L179.467 79.248C178.795 78.064 177.531 77.44 176.011 77.44C173.403 77.44 171.531 79.232 171.531 81.76C171.531 84.288 173.403 86.096 176.011 86.096ZM187.824 77.52V81.904C187.824 83.728 186.8 84.72 185.2 84.72C183.744 84.72 182.912 83.888 182.912 82.224V77.52H181.376V82.4C181.376 84.896 182.832 86.096 185.024 86.096C186.224 86.096 187.28 85.6 187.904 84.72V86H189.36V77.52H187.824ZM193.756 78.944V77.52H192.284V86H193.82V81.776C193.82 79.92 194.844 78.912 196.492 78.912C196.604 78.912 196.716 78.912 196.844 78.928V77.44C195.356 77.44 194.3 77.952 193.756 78.944ZM200.209 78.944V77.52H198.737V86H200.273V81.776C200.273 79.92 201.297 78.912 202.945 78.912C203.057 78.912 203.169 78.912 203.297 78.928V77.44C201.809 77.44 200.753 77.952 200.209 78.944ZM212.776 81.808C212.776 79.2 211.032 77.44 208.584 77.44C206.136 77.44 204.328 79.248 204.328 81.76C204.328 84.288 206.152 86.096 208.888 86.096C210.296 86.096 211.464 85.616 212.232 84.72L211.384 83.728C210.76 84.416 209.928 84.752 208.936 84.752C207.256 84.752 206.056 83.76 205.864 82.272H212.744C212.76 82.128 212.776 81.936 212.776 81.808ZM208.584 78.736C210.072 78.736 211.144 79.744 211.304 81.168H205.864C206.024 79.728 207.112 78.736 208.584 78.736ZM219.437 77.44C218.093 77.44 217.005 77.936 216.381 78.8V77.52H214.909V86H216.445V81.632C216.445 79.792 217.501 78.816 219.133 78.816C220.589 78.816 221.421 79.632 221.421 81.296V86H222.957V81.12C222.957 78.624 221.501 77.44 219.437 77.44ZM230.088 84.4C229.768 84.656 229.336 84.8 228.888 84.8C228.04 84.8 227.56 84.288 227.56 83.376V78.784H229.992V77.52H227.56V75.664H226.024V77.52H224.584V78.784H226.024V83.44C226.024 85.152 227 86.096 228.712 86.096C229.4 86.096 230.104 85.904 230.568 85.504L230.088 84.4ZM42.912 98.52L40.384 105.304L37.872 98.52H36.576L34.016 105.272L31.552 98.52H30.096L33.248 107H34.72L37.2 100.568L39.648 107H41.12L44.288 98.52H42.912ZM53.2763 102.808C53.2763 100.2 51.5323 98.44 49.0843 98.44C46.6363 98.44 44.8283 100.248 44.8283 102.76C44.8283 105.288 46.6523 107.096 49.3883 107.096C50.7963 107.096 51.9643 106.616 52.7323 105.72L51.8843 104.728C51.2603 105.416 50.4283 105.752 49.4363 105.752C47.7563 105.752 46.5563 104.76 46.3643 103.272H53.2443C53.2603 103.128 53.2763 102.936 53.2763 102.808ZM49.0843 99.736C50.5723 99.736 51.6443 100.744 51.8043 102.168H46.3643C46.5243 100.728 47.6123 99.736 49.0843 99.736ZM59.9051 98.44C58.7051 98.44 57.6491 98.888 56.9451 99.8V95.128H55.4091V107H56.8811V105.656C57.5691 106.616 58.6571 107.096 59.9051 107.096C62.3851 107.096 64.1931 105.352 64.1931 102.76C64.1931 100.168 62.3851 98.44 59.9051 98.44ZM59.7771 105.752C58.1611 105.752 56.9291 104.568 56.9291 102.76C56.9291 100.952 58.1611 99.784 59.7771 99.784C61.4091 99.784 62.6411 100.952 62.6411 102.76C62.6411 104.568 61.4091 105.752 59.7771 105.752ZM68.7474 107.096C71.0034 107.096 72.4114 106.12 72.4114 104.584C72.4114 101.288 67.0354 102.92 67.0354 100.92C67.0354 100.248 67.6914 99.752 69.0354 99.752C69.8674 99.752 70.7154 99.928 71.4834 100.424L72.1394 99.208C71.4034 98.728 70.1554 98.44 69.0514 98.44C66.8754 98.44 65.5154 99.464 65.5154 100.984C65.5154 104.36 70.8754 102.712 70.8754 104.616C70.8754 105.336 70.2834 105.768 68.8594 105.768C67.7554 105.768 66.6034 105.4 65.8834 104.888L65.2434 106.104C65.9474 106.664 67.3394 107.096 68.7474 107.096ZM75.099 96.888C75.707 96.888 76.139 96.44 76.139 95.864C76.139 95.32 75.691 94.888 75.099 94.888C74.507 94.888 74.059 95.336 74.059 95.896C74.059 96.456 74.507 96.888 75.099 96.888ZM74.331 107H75.867V98.52H74.331V107ZM83.0878 105.4C82.7678 105.656 82.3358 105.8 81.8878 105.8C81.0398 105.8 80.5598 105.288 80.5598 104.376V99.784H82.9918V98.52H80.5598V96.664H79.0238V98.52H77.5838V99.784H79.0238V104.44C79.0238 106.152 79.9998 107.096 81.7118 107.096C82.3998 107.096 83.1038 106.904 83.5678 106.504L83.0878 105.4ZM92.8075 102.808C92.8075 100.2 91.0635 98.44 88.6155 98.44C86.1675 98.44 84.3595 100.248 84.3595 102.76C84.3595 105.288 86.1835 107.096 88.9195 107.096C90.3275 107.096 91.4955 106.616 92.2635 105.72L91.4155 104.728C90.7915 105.416 89.9595 105.752 88.9675 105.752C87.2875 105.752 86.0875 104.76 85.8955 103.272H92.7755C92.7915 103.128 92.8075 102.936 92.8075 102.808ZM88.6155 99.736C90.1035 99.736 91.1755 100.744 91.3355 102.168H85.8955C86.0555 100.728 87.1435 99.736 88.6155 99.736ZM95.3084 107.096C95.8844 107.096 96.3644 106.632 96.3644 105.992C96.3644 105.352 95.8844 104.904 95.3084 104.904C94.7164 104.904 94.2204 105.352 94.2204 105.992C94.2204 106.632 94.7164 107.096 95.3084 107.096Z" fill="black"/>
<circle cx="42.5" cy="32.5" r="27.5" fill="#E6F3FF"/>
<circle cx="37.5" cy="27.5" r="26.5" stroke="#377FD2" stroke-width="2"/>
<path d="M34.7568 25.4609H37.0127C38.0869 25.4609 38.8828 25.1924 39.4004 24.6553C39.918 24.1182 40.1768 23.4053 40.1768 22.5166C40.1768 21.6572 39.918 20.9883 39.4004 20.5098C38.8926 20.0312 38.1895 19.792 37.291 19.792C36.4805 19.792 35.8018 20.0166 35.2549 20.4658C34.708 20.9053 34.4346 21.4814 34.4346 22.1943H30.2012C30.2012 21.0811 30.499 20.085 31.0947 19.2061C31.7002 18.3174 32.54 17.624 33.6143 17.126C34.6982 16.6279 35.8896 16.3789 37.1885 16.3789C39.4443 16.3789 41.2119 16.9209 42.4912 18.0049C43.7705 19.0791 44.4102 20.5635 44.4102 22.458C44.4102 23.4346 44.1123 24.333 43.5166 25.1533C42.9209 25.9736 42.1396 26.6035 41.1729 27.043C42.374 27.4727 43.2676 28.1172 43.8535 28.9766C44.4492 29.8359 44.7471 30.8516 44.7471 32.0234C44.7471 33.918 44.0537 35.4365 42.667 36.5791C41.29 37.7217 39.4639 38.293 37.1885 38.293C35.0596 38.293 33.3164 37.7314 31.959 36.6084C30.6113 35.4854 29.9375 34.001 29.9375 32.1553H34.1709C34.1709 32.9561 34.4688 33.6104 35.0645 34.1182C35.6699 34.626 36.4121 34.8799 37.291 34.8799C38.2969 34.8799 39.083 34.6162 39.6494 34.0889C40.2256 33.5518 40.5137 32.8438 40.5137 31.9648C40.5137 29.8359 39.3418 28.7715 36.998 28.7715H34.7568V25.4609Z" fill="#377FD2"/>
<defs>
<filter id="filter0_d_255_56" x="0" y="20" width="275" height="164" filterUnits="userSpaceOnUse" color-interpolation-filters="sRGB">
<feFlood flood-opacity="0" result="BackgroundImageFix"/>
<feColorMatrix in="SourceAlpha" type="matrix" values="0 0 0 0 0 0 0 0 0 0 0 0 0 0 0 0 0 0 127 0" result="hardAlpha"/>
<feOffset/>
<feGaussianBlur stdDeviation="5"/>
<feComposite in2="hardAlpha" operator="out"/>
<feColorMatrix type="matrix" values="0 0 0 0 0.240719 0 0 0 0 0.434868 0 0 0 0 0.662782 0 0 0 0.2 0"/>
<feBlend mode="normal" in2="BackgroundImageFix" result="effect1_dropShadow_255_56"/>
<feBlend mode="normal" in="SourceGraphic" in2="effect1_dropShadow_255_56" result="shape"/>
</filter>
</defs>
</svg>
