<svg width="176" height="52" viewBox="0 0 176 52" fill="none" xmlns="http://www.w3.org/2000/svg">
<path fill-rule="evenodd" clip-rule="evenodd" d="M60.5414 28.7625C59.6081 28.7625 58.8281 28.4558 58.2014 27.8425C57.5748 27.2158 57.2614 26.4491 57.2614 25.5425C57.2614 24.6491 57.5748 23.8825 58.2014 23.2425C58.8281 22.5891 59.6081 22.2625 60.5414 22.2625C61.4748 22.2625 62.2614 22.5891 62.9014 23.2425C63.5414 23.8825 63.8614 24.6491 63.8614 25.5425C63.8614 26.4491 63.5414 27.2158 62.9014 27.8425C62.2614 28.4558 61.4748 28.7625 60.5414 28.7625ZM72.8271 28.2625L66.9471 0.262451H72.3071L75.3471 16.0225C75.4271 16.4491 75.4937 16.8291 75.5471 17.1625C75.6004 17.4958 75.6471 17.8625 75.6871 18.2625C75.7404 17.8891 75.8071 17.5225 75.8871 17.1625C75.9671 16.7891 76.0604 16.4091 76.1671 16.0225L80.1471 0.262451H84.5871L88.5871 16.0025C88.6937 16.3758 88.7804 16.7425 88.8471 17.1025C88.9137 17.4625 88.9737 17.8291 89.0271 18.2025C89.0804 17.8425 89.1337 17.4958 89.1871 17.1625C89.2537 16.8158 89.3204 16.4625 89.3871 16.1025L92.5671 0.262451H97.9071L91.8471 28.2625H87.1471L82.7071 11.4625C82.6137 11.1425 82.5337 10.8358 82.4671 10.5425C82.4137 10.2491 82.3604 9.90912 82.3071 9.52245C82.2404 9.92245 82.1737 10.2625 82.1071 10.5425C82.0537 10.8225 81.9871 11.1225 81.9071 11.4425L77.5671 28.2625H72.8271ZM102.068 28.2625V0.262451H120.988V5.18245H107.248V11.3425H115.388V16.2625H107.248V23.3025H121.828V28.2625H102.068ZM126.873 28.2625V0.262451H138.953C141.233 0.262451 143.033 0.629118 144.353 1.36245C145.673 2.08245 146.613 3.02245 147.173 4.18245C147.733 5.32912 148.013 6.52912 148.013 7.78245C148.013 9.03579 147.74 10.1825 147.193 11.2225C146.646 12.2491 145.753 13.0425 144.513 13.6025C145.526 13.9625 146.36 14.4825 147.013 15.1625C147.68 15.8291 148.166 16.5891 148.473 17.4425C148.793 18.2825 148.953 19.1358 148.953 20.0025C148.953 20.9891 148.786 21.9758 148.453 22.9625C148.133 23.9358 147.606 24.8225 146.873 25.6225C146.14 26.4225 145.166 27.0625 143.953 27.5425C142.753 28.0225 141.273 28.2625 139.513 28.2625H126.873ZM132.053 23.4025H139.853C140.853 23.4025 141.633 23.2291 142.193 22.8825C142.766 22.5358 143.166 22.1025 143.393 21.5825C143.633 21.0491 143.753 20.5225 143.753 20.0025C143.753 19.3625 143.613 18.7558 143.333 18.1825C143.066 17.5958 142.566 17.1158 141.833 16.7425C141.113 16.3691 140.066 16.1825 138.693 16.1825H132.053V23.4025ZM132.053 11.5225H138.313C139.833 11.5225 140.953 11.2291 141.673 10.6425C142.406 10.0425 142.773 9.24912 142.773 8.26245C142.773 7.75578 142.68 7.26245 142.493 6.78245C142.306 6.28912 141.946 5.88245 141.413 5.56245C140.88 5.24245 140.093 5.08245 139.053 5.08245H132.053V11.5225ZM154.334 28.2625V0.262451H166.154C168.514 0.262451 170.387 0.695785 171.774 1.56245C173.161 2.41579 174.154 3.51579 174.754 4.86245C175.354 6.19579 175.654 7.58912 175.654 9.04245C175.654 10.0558 175.474 11.0825 175.114 12.1225C174.767 13.1491 174.214 14.0958 173.454 14.9625C172.707 15.8158 171.727 16.5091 170.514 17.0425C169.314 17.5625 167.861 17.8225 166.154 17.8225H159.514V28.2625H154.334ZM159.514 12.9425H166.394C167.354 12.9425 168.121 12.7491 168.694 12.3625C169.281 11.9625 169.701 11.4625 169.954 10.8625C170.207 10.2625 170.334 9.65579 170.334 9.04245C170.334 8.48245 170.214 7.90245 169.974 7.30245C169.747 6.68912 169.347 6.17578 168.774 5.76245C168.201 5.34912 167.407 5.14245 166.394 5.14245H159.514V12.9425ZM56.9464 50.3151V39.8151H58.8889V50.3151H56.9464ZM65.5856 50.4951L62.9006 44.6451C62.8656 44.5701 62.8281 44.4826 62.7881 44.3826C62.7481 44.2826 62.7131 44.1826 62.6831 44.0826C62.6881 44.1626 62.6906 44.2576 62.6906 44.3676C62.6956 44.4776 62.6981 44.5751 62.6981 44.6601V50.3151H60.7556V39.8151H62.6981L65.3606 45.7701C65.4106 45.8801 65.4556 45.9901 65.4956 46.1001C65.5406 46.2051 65.5831 46.3151 65.6231 46.4301C65.6631 46.3151 65.7031 46.2026 65.7431 46.0926C65.7831 45.9826 65.8256 45.8751 65.8706 45.7701L68.5856 39.8151H70.4081V50.3151H68.4656V44.6451V44.3451C68.4706 44.2351 68.4731 44.1451 68.4731 44.0751C68.4431 44.1651 68.4056 44.2626 68.3606 44.3676C68.3206 44.4676 68.2806 44.5601 68.2406 44.6451L65.5856 50.4951ZM71.3577 50.3151L75.3552 39.8151H77.2002L81.2127 50.3151H79.1202L78.2877 48.0951H74.2752L73.4577 50.3151H71.3577ZM74.9052 46.3176H77.6427L76.5927 43.5051C76.5577 43.4201 76.5202 43.3251 76.4802 43.2201C76.4402 43.1151 76.4027 43.0101 76.3677 42.9051C76.3327 42.7951 76.3027 42.7001 76.2777 42.6201C76.2527 42.7001 76.2227 42.7951 76.1877 42.9051C76.1527 43.0101 76.1152 43.1151 76.0752 43.2201C76.0352 43.3251 75.9977 43.4201 75.9627 43.5051L74.9052 46.3176ZM85.8887 50.4951C85.0837 50.4951 84.3912 50.3451 83.8112 50.0451C83.2312 49.7401 82.7587 49.3301 82.3937 48.8151C82.0287 48.2951 81.7562 47.7126 81.5762 47.0676C81.4012 46.4176 81.3137 45.7501 81.3137 45.0651C81.3137 44.4101 81.4037 43.7626 81.5837 43.1226C81.7687 42.4826 82.0462 41.9001 82.4162 41.3751C82.7912 40.8501 83.2662 40.4301 83.8412 40.1151C84.4162 39.7951 85.0987 39.6351 85.8887 39.6351C86.5587 39.6351 87.1237 39.7401 87.5837 39.9501C88.0487 40.1601 88.4387 40.4351 88.7537 40.7751C89.0737 41.1101 89.3512 41.4651 89.5862 41.8401L87.8762 42.8151C87.6462 42.4601 87.3737 42.1501 87.0587 41.8851C86.7487 41.6201 86.3587 41.4876 85.8887 41.4876C85.3987 41.4876 84.9887 41.5976 84.6587 41.8176C84.3337 42.0376 84.0737 42.3251 83.8787 42.6801C83.6837 43.0351 83.5437 43.4226 83.4587 43.8426C83.3737 44.2576 83.3312 44.6651 83.3312 45.0651C83.3312 45.5201 83.3787 45.9601 83.4737 46.3851C83.5687 46.8101 83.7187 47.1926 83.9237 47.5326C84.1287 47.8726 84.3937 48.1426 84.7187 48.3426C85.0437 48.5376 85.4337 48.6351 85.8887 48.6351C86.2337 48.6351 86.5462 48.5576 86.8262 48.4026C87.1112 48.2476 87.3362 48.0401 87.5012 47.7801C87.6662 47.5151 87.7487 47.2176 87.7487 46.8876V46.6926H85.9637V44.8551H89.7512V46.3701C89.7512 47.2601 89.5787 48.0126 89.2337 48.6276C88.8937 49.2376 88.4312 49.7026 87.8462 50.0226C87.2662 50.3376 86.6137 50.4951 85.8887 50.4951ZM91.3433 39.8151H98.4383V41.6601H93.2858V43.9701H96.3383V45.8151H93.2858V48.4551H98.7533V50.3151H91.3433V39.8151ZM107.431 50.4951C106.591 50.4951 105.879 50.3376 105.294 50.0226C104.709 49.7026 104.236 49.2801 103.876 48.7551C103.521 48.2251 103.261 47.6401 103.096 47.0001C102.931 46.3601 102.849 45.7151 102.849 45.0651C102.849 44.4151 102.931 43.7701 103.096 43.1301C103.261 42.4901 103.521 41.9076 103.876 41.3826C104.236 40.8526 104.709 40.4301 105.294 40.1151C105.879 39.7951 106.591 39.6351 107.431 39.6351C108.271 39.6351 108.981 39.7951 109.561 40.1151C110.146 40.4301 110.616 40.8526 110.971 41.3826C111.331 41.9076 111.591 42.4901 111.751 43.1301C111.916 43.7701 111.999 44.4151 111.999 45.0651C111.999 45.7151 111.916 46.3601 111.751 47.0001C111.591 47.6401 111.331 48.2251 110.971 48.7551C110.616 49.2801 110.146 49.7026 109.561 50.0226C108.981 50.3376 108.271 50.4951 107.431 50.4951ZM107.431 48.6276C107.901 48.6276 108.299 48.5176 108.624 48.2976C108.954 48.0776 109.219 47.7901 109.419 47.4351C109.619 47.0801 109.764 46.6951 109.854 46.2801C109.944 45.8601 109.989 45.4551 109.989 45.0651C109.989 44.6451 109.944 44.2251 109.854 43.8051C109.769 43.3801 109.626 42.9951 109.426 42.6501C109.231 42.3001 108.969 42.0201 108.639 41.8101C108.314 41.5951 107.911 41.4876 107.431 41.4876C106.946 41.4876 106.539 41.5976 106.209 41.8176C105.884 42.0376 105.621 42.3276 105.421 42.6876C105.226 43.0426 105.084 43.4301 104.994 43.8501C104.909 44.2651 104.866 44.6701 104.866 45.0651C104.866 45.4801 104.909 45.8976 104.994 46.3176C105.084 46.7376 105.229 47.1226 105.429 47.4726C105.634 47.8226 105.899 48.1026 106.224 48.3126C106.554 48.5226 106.956 48.6276 107.431 48.6276ZM113.42 39.8151H117.853C118.738 39.8151 119.44 39.9776 119.96 40.3026C120.48 40.6226 120.853 41.0351 121.078 41.5401C121.303 42.0401 121.415 42.5626 121.415 43.1076C121.415 43.4876 121.348 43.8726 121.213 44.2626C121.083 44.6476 120.875 45.0026 120.59 45.3276C120.31 45.6476 119.943 45.9076 119.488 46.1076C119.038 46.3026 118.493 46.4001 117.853 46.4001H115.363V50.3151H113.42V39.8151ZM115.363 44.5701H117.943C118.303 44.5701 118.59 44.4976 118.805 44.3526C119.025 44.2026 119.183 44.0151 119.278 43.7901C119.373 43.5651 119.42 43.3376 119.42 43.1076C119.42 42.8976 119.375 42.6801 119.285 42.4551C119.2 42.2251 119.05 42.0326 118.835 41.8776C118.62 41.7226 118.323 41.6451 117.943 41.6451H115.363V44.5701ZM124.695 50.3151V41.6826H121.718V39.8151H129.63V41.6826H126.638V50.3151H124.695ZM130.794 39.8151H132.737V50.3151H130.794V39.8151ZM139.434 50.4951L136.749 44.6451C136.714 44.5701 136.676 44.4826 136.636 44.3826C136.596 44.2826 136.561 44.1826 136.531 44.0826C136.536 44.1626 136.539 44.2576 136.539 44.3676C136.544 44.4776 136.546 44.5751 136.546 44.6601V50.3151H134.604V39.8151H136.546L139.209 45.7701C139.259 45.8801 139.304 45.9901 139.344 46.1001C139.389 46.2051 139.431 46.3151 139.471 46.4301C139.511 46.3151 139.551 46.2026 139.591 46.0926C139.631 45.9826 139.674 45.8751 139.719 45.7701L142.434 39.8151H144.256V50.3151H142.314V44.6451V44.3451C142.319 44.2351 142.321 44.1451 142.321 44.0751C142.291 44.1651 142.254 44.2626 142.209 44.3676C142.169 44.4676 142.129 44.5601 142.089 44.6451L139.434 50.4951ZM146.118 39.8151H148.06V50.3151H146.118V39.8151ZM149.446 50.3151V48.8601L154.914 41.6526H149.776V39.8151H157.486V41.2701L151.981 48.4776H157.486V50.3151H149.446ZM158.951 39.8151H166.046V41.6601H160.894V43.9701H163.946V45.8151H160.894V48.4551H166.361V50.3151H158.951V39.8151ZM167.653 39.8151H172.43C173.305 39.8151 173.995 39.9676 174.5 40.2726C175.01 40.5726 175.373 40.9701 175.588 41.4651C175.808 41.9601 175.918 42.4926 175.918 43.0626C175.918 43.4576 175.84 43.8576 175.685 44.2626C175.535 44.6676 175.305 45.0326 174.995 45.3576C174.685 45.6826 174.295 45.9226 173.825 46.0776L175.895 50.3151H173.713L171.725 46.3401H169.595V50.3151H167.653V39.8151ZM169.595 44.5101H172.46C172.825 44.5101 173.113 44.4426 173.323 44.3076C173.538 44.1676 173.69 43.9876 173.78 43.7676C173.87 43.5476 173.915 43.3151 173.915 43.0701C173.915 42.8501 173.873 42.6301 173.788 42.4101C173.703 42.1901 173.555 42.0076 173.345 41.8626C173.135 41.7176 172.84 41.6451 172.46 41.6451H169.595V44.5101ZM36.2131 2.88674C35.7968 1.82724 34.3029 1.82724 33.8866 2.88674L32.7733 5.71997C32.6462 6.04344 32.3911 6.29949 32.0688 6.42707L29.246 7.54448C28.1904 7.96234 28.1904 9.46179 29.246 9.87965L32.0688 10.9971C32.3911 11.1246 32.6462 11.3807 32.7733 11.7042L33.8866 14.5374C34.3029 15.5969 35.7968 15.5969 36.2131 14.5374L37.3264 11.7042C37.4535 11.3807 37.7086 11.1246 38.0309 10.9971L40.8537 9.87965C41.9093 9.46179 41.9093 7.96234 40.8537 7.54448L38.0309 6.42707C37.7086 6.29949 37.4535 6.04344 37.3264 5.71997L36.2131 2.88674ZM2.18458 6.86345C-0.728194 9.77623 -0.728194 14.4988 2.18458 17.4116L6.29167 21.5186C6.32251 21.483 6.35486 21.4482 6.38872 21.4143L16.7357 11.0673C16.7695 11.0335 16.8042 11.0013 16.8398 10.9705L12.7327 6.86345C9.81991 3.95068 5.09736 3.95068 2.18458 6.86345ZM19.5762 13.707C19.5454 13.7425 19.5132 13.7772 19.4794 13.811L9.13239 24.158C9.09853 24.1918 9.06372 24.2242 9.02806 24.255L33.8289 49.0559C36.7417 51.9686 41.4642 51.9686 44.377 49.0559C47.2898 46.1431 47.2898 41.4205 44.377 38.5078L19.5762 13.707ZM43.8899 20.5343C44.3062 19.4748 45.8002 19.4748 46.2165 20.5343L46.6224 21.5673C46.7495 21.8907 47.0046 22.1468 47.3269 22.2744L48.3561 22.6818C49.4117 23.0996 49.4117 24.5991 48.3561 25.017L47.3269 25.4244C47.0046 25.5519 46.7495 25.808 46.6224 26.1315L46.2165 27.1645C45.8002 28.224 44.3062 28.224 43.8899 27.1645L43.484 26.1315C43.3569 25.808 43.1018 25.5519 42.7795 25.4244L41.7503 25.017C40.6947 24.5991 40.6947 23.0996 41.7503 22.6818L42.7795 22.2744C43.1018 22.1468 43.3569 21.8907 43.484 21.5673L43.8899 20.5343ZM7.84462 36.5145C7.4283 35.455 5.93438 35.455 5.51806 36.5145L5.11214 37.5475C4.98504 37.871 4.72993 38.1271 4.40765 38.2546L3.37845 38.6621C2.32286 39.0799 2.32286 40.5794 3.37845 40.9972L4.40765 41.4046C4.72993 41.5322 4.98504 41.7883 5.11214 42.1117L5.51806 43.1448C5.93438 44.2042 7.4283 44.2042 7.84462 43.1448L8.25053 42.1117C8.37764 41.7883 8.63275 41.5322 8.95503 41.4046L9.98423 40.9972C11.0398 40.5794 11.0398 39.0799 9.98423 38.6621L8.95503 38.2546C8.63275 38.1271 8.37764 37.871 8.25053 37.5475L7.84462 36.5145Z" fill="#6877EB"/>
</svg>
