<svg width="172" height="47" viewBox="0 0 172 47" fill="none" xmlns="http://www.w3.org/2000/svg">
<path id="Logo" fill-rule="evenodd" clip-rule="evenodd" d="M55.84 28.5C54.9067 28.5 54.1267 28.1933 53.5 27.58C52.8733 26.9533 52.56 26.1867 52.56 25.28C52.56 24.3867 52.8733 23.62 53.5 22.98C54.1267 22.3267 54.9067 22 55.84 22C56.7733 22 57.56 22.3267 58.2 22.98C58.84 23.62 59.16 24.3867 59.16 25.28C59.16 26.1867 58.84 26.9533 58.2 27.58C57.56 28.1933 56.7733 28.5 55.84 28.5ZM68.1256 28L62.2456 0H67.6056L70.6456 15.76C70.7256 16.1867 70.7923 16.5667 70.8456 16.9C70.899 17.2333 70.9456 17.6 70.9856 18C71.039 17.6267 71.1056 17.26 71.1856 16.9C71.2656 16.5267 71.359 16.1467 71.4656 15.76L75.4456 0H79.8856L83.8856 15.74C83.9923 16.1133 84.079 16.48 84.1456 16.84C84.2123 17.2 84.2723 17.5667 84.3256 17.94C84.379 17.58 84.4323 17.2333 84.4856 16.9C84.5523 16.5533 84.619 16.2 84.6856 15.84L87.8656 0H93.2056L87.1456 28H82.4456L78.0056 11.2C77.9123 10.88 77.8323 10.5733 77.7656 10.28C77.7123 9.98667 77.659 9.64667 77.6056 9.26C77.539 9.66 77.4723 10 77.4056 10.28C77.3523 10.56 77.2856 10.86 77.2056 11.18L72.8656 28H68.1256ZM97.3669 28V0H116.287V4.92H102.547V11.08H110.687V16H102.547V23.04H117.127V28H97.3669ZM122.172 28V0H134.252C136.532 0 138.332 0.366667 139.652 1.1C140.972 1.82 141.912 2.76 142.472 3.92C143.032 5.06667 143.312 6.26667 143.312 7.52C143.312 8.77333 143.038 9.92 142.492 10.96C141.945 11.9867 141.052 12.78 139.812 13.34C140.825 13.7 141.658 14.22 142.312 14.9C142.978 15.5667 143.465 16.3267 143.772 17.18C144.092 18.02 144.252 18.8733 144.252 19.74C144.252 20.7267 144.085 21.7133 143.752 22.7C143.432 23.6733 142.905 24.56 142.172 25.36C141.438 26.16 140.465 26.8 139.252 27.28C138.052 27.76 136.572 28 134.812 28H122.172ZM127.352 23.14H135.152C136.152 23.14 136.932 22.9667 137.492 22.62C138.065 22.2733 138.465 21.84 138.692 21.32C138.932 20.7867 139.052 20.26 139.052 19.74C139.052 19.1 138.912 18.4933 138.632 17.92C138.365 17.3333 137.865 16.8533 137.132 16.48C136.412 16.1067 135.365 15.92 133.992 15.92H127.352V23.14ZM127.352 11.26H133.612C135.132 11.26 136.252 10.9667 136.972 10.38C137.705 9.78 138.072 8.98667 138.072 8C138.072 7.49333 137.978 7 137.792 6.52C137.605 6.02667 137.245 5.62 136.712 5.3C136.178 4.98 135.392 4.82 134.352 4.82H127.352V11.26ZM149.633 28V0H161.452C163.812 0 165.686 0.433334 167.073 1.3C168.459 2.15333 169.452 3.25333 170.053 4.6C170.652 5.93333 170.952 7.32667 170.952 8.78C170.952 9.79333 170.773 10.82 170.413 11.86C170.066 12.8867 169.512 13.8333 168.753 14.7C168.006 15.5533 167.026 16.2467 165.812 16.78C164.613 17.3 163.159 17.56 161.452 17.56H154.812V28H149.633ZM154.812 12.68H161.693C162.652 12.68 163.419 12.4867 163.993 12.1C164.579 11.7 164.999 11.2 165.253 10.6C165.506 10 165.633 9.39333 165.633 8.78C165.633 8.22 165.512 7.64 165.273 7.04C165.046 6.42667 164.646 5.91333 164.072 5.5C163.499 5.08667 162.706 4.88 161.693 4.88H154.812V12.68ZM52.245 46.25V35.75H54.1875V46.25H52.245ZM60.8842 46.43L58.1992 40.58C58.1642 40.505 58.1267 40.4175 58.0867 40.3175C58.0467 40.2175 58.0117 40.1175 57.9817 40.0175C57.9867 40.0975 57.9892 40.1925 57.9892 40.3025C57.9942 40.4125 57.9967 40.51 57.9967 40.595V46.25H56.0542V35.75H57.9967L60.6592 41.705C60.7092 41.815 60.7542 41.925 60.7942 42.035C60.8392 42.14 60.8817 42.25 60.9217 42.365C60.9617 42.25 61.0017 42.1375 61.0417 42.0275C61.0817 41.9175 61.1242 41.81 61.1692 41.705L63.8842 35.75H65.7067V46.25H63.7642V40.58V40.28C63.7692 40.17 63.7717 40.08 63.7717 40.01C63.7417 40.1 63.7042 40.1975 63.6592 40.3025C63.6192 40.4025 63.5792 40.495 63.5392 40.58L60.8842 46.43ZM66.6562 46.25L70.6537 35.75H72.4987L76.5113 46.25H74.4187L73.5863 44.03H69.5738L68.7562 46.25H66.6562ZM70.2038 42.2525H72.9413L71.8913 39.44C71.8562 39.355 71.8187 39.26 71.7787 39.155C71.7387 39.05 71.7012 38.945 71.6663 38.84C71.6312 38.73 71.6012 38.635 71.5762 38.555C71.5512 38.635 71.5212 38.73 71.4863 38.84C71.4512 38.945 71.4137 39.05 71.3737 39.155C71.3337 39.26 71.2962 39.355 71.2613 39.44L70.2038 42.2525ZM81.1873 46.43C80.3823 46.43 79.6898 46.28 79.1098 45.98C78.5298 45.675 78.0573 45.265 77.6923 44.75C77.3273 44.23 77.0548 43.6475 76.8748 43.0025C76.6998 42.3525 76.6123 41.685 76.6123 41C76.6123 40.345 76.7023 39.6975 76.8823 39.0575C77.0673 38.4175 77.3448 37.835 77.7148 37.31C78.0898 36.785 78.5648 36.365 79.1398 36.05C79.7148 35.73 80.3973 35.57 81.1873 35.57C81.8573 35.57 82.4223 35.675 82.8823 35.885C83.3473 36.095 83.7373 36.37 84.0523 36.71C84.3723 37.045 84.6498 37.4 84.8848 37.775L83.1748 38.75C82.9448 38.395 82.6723 38.085 82.3573 37.82C82.0473 37.555 81.6573 37.4225 81.1873 37.4225C80.6973 37.4225 80.2873 37.5325 79.9573 37.7525C79.6323 37.9725 79.3723 38.26 79.1773 38.615C78.9823 38.97 78.8423 39.3575 78.7573 39.7775C78.6723 40.1925 78.6298 40.6 78.6298 41C78.6298 41.455 78.6773 41.895 78.7723 42.32C78.8673 42.745 79.0173 43.1275 79.2223 43.4675C79.4273 43.8075 79.6923 44.0775 80.0173 44.2775C80.3423 44.4725 80.7323 44.57 81.1873 44.57C81.5323 44.57 81.8448 44.4925 82.1248 44.3375C82.4098 44.1825 82.6348 43.975 82.7998 43.715C82.9648 43.45 83.0473 43.1525 83.0473 42.8225V42.6275H81.2623V40.79H85.0498V42.305C85.0498 43.195 84.8773 43.9475 84.5323 44.5625C84.1923 45.1725 83.7298 45.6375 83.1448 45.9575C82.5648 46.2725 81.9123 46.43 81.1873 46.43ZM86.6419 35.75H93.7369V37.595H88.5844V39.905H91.6369V41.75H88.5844V44.39H94.0519V46.25H86.6419V35.75ZM102.73 46.43C101.89 46.43 101.177 46.2725 100.592 45.9575C100.007 45.6375 99.5347 45.215 99.1747 44.69C98.8197 44.16 98.5597 43.575 98.3947 42.935C98.2297 42.295 98.1472 41.65 98.1472 41C98.1472 40.35 98.2297 39.705 98.3947 39.065C98.5597 38.425 98.8197 37.8425 99.1747 37.3175C99.5347 36.7875 100.007 36.365 100.592 36.05C101.177 35.73 101.89 35.57 102.73 35.57C103.57 35.57 104.28 35.73 104.86 36.05C105.445 36.365 105.915 36.7875 106.27 37.3175C106.63 37.8425 106.89 38.425 107.05 39.065C107.215 39.705 107.297 40.35 107.297 41C107.297 41.65 107.215 42.295 107.05 42.935C106.89 43.575 106.63 44.16 106.27 44.69C105.915 45.215 105.445 45.6375 104.86 45.9575C104.28 46.2725 103.57 46.43 102.73 46.43ZM102.73 44.5625C103.2 44.5625 103.597 44.4525 103.922 44.2325C104.252 44.0125 104.517 43.725 104.717 43.37C104.917 43.015 105.062 42.63 105.152 42.215C105.242 41.795 105.287 41.39 105.287 41C105.287 40.58 105.242 40.16 105.152 39.74C105.067 39.315 104.925 38.93 104.725 38.585C104.53 38.235 104.267 37.955 103.937 37.745C103.612 37.53 103.21 37.4225 102.73 37.4225C102.245 37.4225 101.837 37.5325 101.507 37.7525C101.182 37.9725 100.92 38.2625 100.72 38.6225C100.525 38.9775 100.382 39.365 100.292 39.785C100.207 40.2 100.165 40.605 100.165 41C100.165 41.415 100.207 41.8325 100.292 42.2525C100.382 42.6725 100.527 43.0575 100.727 43.4075C100.932 43.7575 101.197 44.0375 101.522 44.2475C101.852 44.4575 102.255 44.5625 102.73 44.5625ZM108.719 35.75H113.151C114.036 35.75 114.739 35.9125 115.259 36.2375C115.779 36.5575 116.151 36.97 116.376 37.475C116.601 37.975 116.714 38.4975 116.714 39.0425C116.714 39.4225 116.646 39.8075 116.511 40.1975C116.381 40.5825 116.174 40.9375 115.889 41.2625C115.609 41.5825 115.241 41.8425 114.786 42.0425C114.336 42.2375 113.791 42.335 113.151 42.335H110.661V46.25H108.719V35.75ZM110.661 40.505H113.241C113.601 40.505 113.889 40.4325 114.104 40.2875C114.324 40.1375 114.481 39.95 114.576 39.725C114.671 39.5 114.719 39.2725 114.719 39.0425C114.719 38.8325 114.674 38.615 114.584 38.39C114.499 38.16 114.349 37.9675 114.134 37.8125C113.919 37.6575 113.621 37.58 113.241 37.58H110.661V40.505ZM119.994 46.25V37.6175H117.016V35.75H124.929V37.6175H121.936V46.25H119.994ZM126.093 35.75H128.036V46.25H126.093V35.75ZM134.732 46.43L132.047 40.58C132.012 40.505 131.975 40.4175 131.935 40.3175C131.895 40.2175 131.86 40.1175 131.83 40.0175C131.835 40.0975 131.837 40.1925 131.837 40.3025C131.842 40.4125 131.845 40.51 131.845 40.595V46.25H129.902V35.75H131.845L134.507 41.705C134.557 41.815 134.602 41.925 134.642 42.035C134.687 42.14 134.73 42.25 134.77 42.365C134.81 42.25 134.85 42.1375 134.89 42.0275C134.93 41.9175 134.972 41.81 135.017 41.705L137.732 35.75H139.555V46.25H137.612V40.58V40.28C137.617 40.17 137.62 40.08 137.62 40.01C137.59 40.1 137.552 40.1975 137.507 40.3025C137.467 40.4025 137.427 40.495 137.387 40.58L134.732 46.43ZM141.416 35.75H143.359V46.25H141.416V35.75ZM144.745 46.25V44.795L150.212 37.5875H145.075V35.75H152.785V37.205L147.28 44.4125H152.785V46.25H144.745ZM154.25 35.75H161.345V37.595H156.192V39.905H159.245V41.75H156.192V44.39H161.66V46.25H154.25V35.75ZM162.951 35.75H167.729C168.604 35.75 169.294 35.9025 169.799 36.2075C170.309 36.5075 170.671 36.905 170.886 37.4C171.106 37.895 171.216 38.4275 171.216 38.9975C171.216 39.3925 171.139 39.7925 170.984 40.1975C170.834 40.6025 170.604 40.9675 170.294 41.2925C169.984 41.6175 169.594 41.8575 169.124 42.0125L171.194 46.25H169.011L167.024 42.275H164.894V46.25H162.951V35.75ZM164.894 40.445H167.759C168.124 40.445 168.411 40.3775 168.621 40.2425C168.836 40.1025 168.989 39.9225 169.079 39.7025C169.169 39.4825 169.214 39.25 169.214 39.005C169.214 38.785 169.171 38.565 169.086 38.345C169.001 38.125 168.854 37.9425 168.644 37.7975C168.434 37.6525 168.139 37.58 167.759 37.58H164.894V40.445ZM33.1566 1.72755C32.7754 0.757484 31.4076 0.757485 31.0264 1.72756L30.0071 4.32165C29.8907 4.61782 29.6571 4.85226 29.362 4.96907L26.7775 5.99216C25.811 6.37475 25.811 7.74764 26.7775 8.13023L29.362 9.15333C29.6571 9.27014 29.8907 9.50458 30.0071 9.80075L31.0264 12.3948C31.4076 13.3649 32.7754 13.3649 33.1566 12.3948L34.1759 9.80075C34.2923 9.50458 34.5259 9.27014 34.821 9.15333L37.4055 8.13023C38.372 7.74764 38.372 6.37475 37.4055 5.99216L34.821 4.96907C34.5259 4.85226 34.2923 4.61782 34.1759 4.32165L33.1566 1.72755ZM2.0002 5.36862C-0.666732 8.03555 -0.666732 12.3595 2.0002 15.0264L5.76063 18.7868C5.78886 18.7542 5.81848 18.7223 5.84949 18.6913L15.3232 9.21764C15.3541 9.18673 15.3859 9.15719 15.4184 9.12903L11.658 5.36862C8.99107 2.70169 4.66712 2.70169 2.0002 5.36862ZM17.9239 11.6345C17.8957 11.667 17.8662 11.6988 17.8353 11.7297L8.36158 21.2034C8.33057 21.2344 8.29871 21.264 8.26606 21.2923L30.9736 43.9998C33.6405 46.6667 37.9645 46.6667 40.6314 43.9998C43.2983 41.3329 43.2983 37.0089 40.6314 34.342L17.9239 11.6345ZM40.1854 17.8856C40.5666 16.9155 41.9344 16.9155 42.3156 17.8856L42.6873 18.8314C42.8037 19.1275 43.0372 19.362 43.3323 19.4788L44.2746 19.8518C45.2411 20.2344 45.2411 21.6073 44.2746 21.9899L43.3323 22.3629C43.0372 22.4797 42.8037 22.7142 42.6873 23.0103L42.3156 23.9562C41.9344 24.9262 40.5666 24.9262 40.1854 23.9562L39.8138 23.0103C39.6974 22.7142 39.4638 22.4797 39.1688 22.3629L38.2264 21.9899C37.2599 21.6073 37.2599 20.2344 38.2264 19.8518L39.1688 19.4788C39.4638 19.362 39.6974 19.1275 39.8138 18.8314L40.1854 17.8856ZM7.1825 32.517C6.80132 31.547 5.43349 31.547 5.05231 32.517L4.68066 33.4629C4.56428 33.759 4.33071 33.9935 4.03563 34.1103L3.09329 34.4833C2.1268 34.8659 2.1268 36.2388 3.09329 36.6214L4.03563 36.9944C4.33071 37.1112 4.56428 37.3456 4.68066 37.6418L5.05231 38.5876C5.43349 39.5577 6.80132 39.5577 7.1825 38.5876L7.55415 37.6418C7.67053 37.3456 7.90411 37.1112 8.19918 36.9944L9.14152 36.6214C10.108 36.2388 10.108 34.8659 9.14152 34.4833L8.19918 34.1103C7.90411 33.9935 7.67053 33.759 7.55415 33.4629L7.1825 32.517Z" fill="#6877EB"/>
</svg>
