<svg width="85" height="85" viewBox="0 0 85 85" fill="none" xmlns="http://www.w3.org/2000/svg">
<g filter="url(#filter0_d_219_24)">
<rect x="10" y="10" width="65" height="65" rx="10" fill="white"/>
</g>
<path d="M58.0569 38.2509H55.1509V40.316H58.0569V38.2509Z" fill="#377FD2"/>
<path d="M29.6433 38.2509H26.9438V40.316H29.6433V38.2509Z" fill="#377FD2"/>
<path d="M55.3768 52.5036H29.624C29.0536 52.5036 28.5913 52.0413 28.5913 51.4709V28.629C28.5913 26.628 30.2192 25 32.2202 25H52.7805C54.7815 25 56.4095 26.628 56.4095 28.629V51.4709C56.4095 52.0413 55.9472 52.5036 55.3768 52.5036ZM30.6567 50.4382H54.3441V28.629C54.3441 27.7668 53.6426 27.0654 52.7805 27.0654H32.2202C31.3581 27.0654 30.6567 27.7668 30.6567 28.629V50.4382Z" fill="#377FD2"/>
<path d="M55.3663 58.9674H29.6339C27.9279 58.9674 26.5449 57.5844 26.5449 55.8784V40.06C26.5449 39.3814 27.2987 38.9742 27.8662 39.3463L41.7688 48.4597C42.2129 48.7508 42.7874 48.7508 43.2316 48.4597L57.1341 39.3463C57.7017 38.9742 58.4554 39.3815 58.4554 40.06V55.8784C58.4553 57.5844 57.0723 58.9674 55.3663 58.9674Z" fill="#CEE8FA"/>
<path d="M55.3663 60.0001H29.6339C27.3612 60.0001 25.5122 58.1512 25.5122 55.8784V40.06C25.5122 39.0192 26.3593 38.1725 27.4006 38.1725C27.766 38.1725 28.1229 38.2798 28.4323 38.4826L42.3348 47.5961C42.397 47.6369 42.459 47.6455 42.5001 47.6455C42.5411 47.6455 42.6031 47.6369 42.6653 47.5961L56.5679 38.4826C56.8774 38.2798 57.2342 38.1725 57.5996 38.1725C58.6409 38.1725 59.488 39.0192 59.488 40.06V55.8784C59.488 58.1512 57.6391 60.0001 55.3663 60.0001ZM27.5776 40.3918V55.8784C27.5776 57.0122 28.5001 57.9347 29.6339 57.9347H55.3663C56.5001 57.9347 57.4226 57.0122 57.4226 55.8784V40.3918L43.7977 49.3233C43.4111 49.5767 42.9625 49.7107 42.5001 49.7107C42.0378 49.7107 41.5892 49.5768 41.2025 49.3233L27.5776 40.3918Z" fill="#377FD2"/>
<path d="M27.8673 59.085C27.5308 59.085 27.201 58.9208 27.0026 58.6183C26.69 58.1413 26.8231 57.5011 27.3001 57.1884L32.1202 54.0286C32.5973 53.716 33.2374 53.8491 33.5501 54.3261C33.8628 54.8032 33.7296 55.4433 33.2526 55.756L28.4325 58.9158C28.2579 59.0302 28.0615 59.085 27.8673 59.085Z" fill="#377FD2"/>
<path d="M57.1334 59.0849C56.9391 59.0849 56.7427 59.0301 56.5682 58.9157L42.6657 49.8024C42.5653 49.7365 42.4355 49.7365 42.3352 49.8024L37.9032 52.7076C37.426 53.0203 36.786 52.8871 36.4733 52.4101C36.1607 51.9331 36.2938 51.2929 36.7708 50.9803L41.2029 48.075C41.9911 47.5583 43.0099 47.5583 43.7981 48.075L57.7005 57.1883C58.1775 57.501 58.3108 58.1412 57.998 58.6182C57.7998 58.9205 57.4699 59.0849 57.1334 59.0849Z" fill="#377FD2"/>
<path d="M47.6634 33.2945H37.3364C36.766 33.2945 36.3037 32.8322 36.3037 32.2618C36.3037 31.6914 36.766 31.2291 37.3364 31.2291H47.6634C48.2338 31.2291 48.6961 31.6914 48.6961 32.2618C48.6961 32.8322 48.2338 33.2945 47.6634 33.2945Z" fill="#377FD2"/>
<path d="M49.3159 38.693H35.6841C35.1137 38.693 34.6514 38.2307 34.6514 37.6603C34.6514 37.0899 35.1137 36.6276 35.6841 36.6276H49.3159C49.8863 36.6276 50.3486 37.0899 50.3486 37.6603C50.3486 38.2307 49.8863 38.693 49.3159 38.693Z" fill="#377FD2"/>
<defs>
<filter id="filter0_d_219_24" x="0" y="0" width="85" height="85" filterUnits="userSpaceOnUse" color-interpolation-filters="sRGB">
<feFlood flood-opacity="0" result="BackgroundImageFix"/>
<feColorMatrix in="SourceAlpha" type="matrix" values="0 0 0 0 0 0 0 0 0 0 0 0 0 0 0 0 0 0 127 0" result="hardAlpha"/>
<feOffset/>
<feGaussianBlur stdDeviation="5"/>
<feComposite in2="hardAlpha" operator="out"/>
<feColorMatrix type="matrix" values="0 0 0 0 0.240719 0 0 0 0 0.434868 0 0 0 0 0.662782 0 0 0 0.2 0"/>
<feBlend mode="normal" in2="BackgroundImageFix" result="effect1_dropShadow_219_24"/>
<feBlend mode="normal" in="SourceGraphic" in2="effect1_dropShadow_219_24" result="shape"/>
</filter>
</defs>
</svg>
