<svg width="60" height="60" viewBox="0 0 60 60" fill="none" xmlns="http://www.w3.org/2000/svg">
<circle cx="32.5" cy="32.5" r="27.5" fill="#E6F3FF"/>
<circle cx="27.5" cy="27.5" r="26.5" stroke="#377FD2" stroke-width="2"/>
<path d="M24.7568 25.4609H27.0127C28.0869 25.4609 28.8828 25.1924 29.4004 24.6553C29.918 24.1182 30.1768 23.4053 30.1768 22.5166C30.1768 21.6572 29.918 20.9883 29.4004 20.5098C28.8926 20.0312 28.1895 19.792 27.291 19.792C26.4805 19.792 25.8018 20.0166 25.2549 20.4658C24.708 20.9053 24.4346 21.4814 24.4346 22.1943H20.2012C20.2012 21.0811 20.499 20.085 21.0947 19.2061C21.7002 18.3174 22.54 17.624 23.6143 17.126C24.6982 16.6279 25.8896 16.3789 27.1885 16.3789C29.4443 16.3789 31.2119 16.9209 32.4912 18.0049C33.7705 19.0791 34.4102 20.5635 34.4102 22.458C34.4102 23.4346 34.1123 24.333 33.5166 25.1533C32.9209 25.9736 32.1396 26.6035 31.1729 27.043C32.374 27.4727 33.2676 28.1172 33.8535 28.9766C34.4492 29.8359 34.7471 30.8516 34.7471 32.0234C34.7471 33.918 34.0537 35.4365 32.667 36.5791C31.29 37.7217 29.4639 38.293 27.1885 38.293C25.0596 38.293 23.3164 37.7314 21.959 36.6084C20.6113 35.4854 19.9375 34.001 19.9375 32.1553H24.1709C24.1709 32.9561 24.4688 33.6104 25.0645 34.1182C25.6699 34.626 26.4121 34.8799 27.291 34.8799C28.2969 34.8799 29.083 34.6162 29.6494 34.0889C30.2256 33.5518 30.5137 32.8438 30.5137 31.9648C30.5137 29.8359 29.3418 28.7715 26.998 28.7715H24.7568V25.4609Z" fill="#377FD2"/>
</svg>
