<svg width="60" height="60" viewBox="0 0 60 60" fill="none" xmlns="http://www.w3.org/2000/svg">
<circle cx="32.5" cy="32.5" r="27.5" fill="#E6F3FF"/>
<circle cx="27.5" cy="27.5" r="26.5" stroke="#377FD2" stroke-width="2"/>
<path d="M35.0693 38H20.4502V35.0996L27.3496 27.7461C28.2969 26.7109 28.9951 25.8076 29.4443 25.0361C29.9033 24.2646 30.1328 23.5322 30.1328 22.8389C30.1328 21.8916 29.8936 21.1494 29.415 20.6123C28.9365 20.0654 28.2529 19.792 27.3643 19.792C26.4072 19.792 25.6504 20.124 25.0938 20.7881C24.5469 21.4424 24.2734 22.3066 24.2734 23.3809H20.0254C20.0254 22.082 20.333 20.8955 20.9482 19.8213C21.5732 18.7471 22.4521 17.9072 23.585 17.3018C24.7178 16.6865 26.002 16.3789 27.4375 16.3789C29.6348 16.3789 31.3389 16.9062 32.5498 17.9609C33.7705 19.0156 34.3809 20.5049 34.3809 22.4287C34.3809 23.4834 34.1074 24.5576 33.5605 25.6514C33.0137 26.7451 32.0762 28.0195 30.748 29.4746L25.8994 34.5869H35.0693V38Z" fill="#377FD2"/>
</svg>
