<svg width="45" height="45" viewBox="0 0 45 45" fill="none" xmlns="http://www.w3.org/2000/svg">
<path fill-rule="evenodd" clip-rule="evenodd" d="M5.20141 23.4026C5.75686 23.9587 5.75632 24.8598 5.20019 25.4153L4.90835 25.7068C4.65906 25.9557 4.65906 26.3587 4.90835 26.6077C5.15859 26.8576 5.56502 26.8576 5.81526 26.6077L9.02549 23.4014C9.58162 22.8459 10.4827 22.8465 11.0382 23.4026C11.5936 23.9587 11.5931 24.8598 11.037 25.4153L7.82674 28.6216C6.4652 29.9814 4.25842 29.9814 2.89687 28.6216C1.53438 27.2607 1.53438 25.0537 2.89687 23.6929L3.18871 23.4014C3.74484 22.8459 4.64596 22.8465 5.20141 23.4026ZM14.4125 25.2931C14.9683 25.8489 14.9683 26.75 14.4125 27.3058L10.3955 31.3227C9.83966 31.8785 8.93855 31.8785 8.38276 31.3227C7.82697 30.7669 7.82697 29.8658 8.38276 29.3101L12.3998 25.2931C12.9556 24.7373 13.8567 24.7373 14.4125 25.2931ZM19.6796 30.5538C20.2354 31.1096 20.2354 32.0107 19.6796 32.5665L15.6901 36.556C15.1343 37.1117 14.2332 37.1117 13.6774 36.556C13.1216 36.0002 13.1216 35.0991 13.6774 34.5433L17.6669 30.5538C18.2227 29.998 19.1238 29.998 19.6796 30.5538ZM13.6822 31.3049C14.2318 31.8669 14.2218 32.7679 13.6598 33.3175L10.4158 36.4901C9.85383 37.0397 8.95277 37.0296 8.4032 36.4677C7.85362 35.9058 7.86365 35.0047 8.42559 34.4552L11.6697 31.2825C12.2316 30.733 13.1327 30.743 13.6822 31.3049ZM21.5271 33.9713C22.0825 34.5274 22.082 35.4285 21.5259 35.984L18.3156 39.1903C18.0664 39.4393 18.0664 39.8422 18.3156 40.0912C18.5659 40.3411 18.9723 40.3411 19.2226 40.0912L19.5144 39.7997C20.0705 39.2443 20.9716 39.2448 21.5271 39.8009C22.0825 40.3571 22.082 41.2582 21.5259 41.8136L21.234 42.1051C19.8725 43.465 17.6657 43.465 16.3042 42.1051C14.9417 40.7443 14.9417 38.5372 16.3042 37.1764L19.5144 33.9701C20.0705 33.4146 20.9716 33.4152 21.5271 33.9713Z" fill="#6877EB"/>
<path d="M20.3369 10.1421L16.2349 14.2317C15.4809 14.9834 14.7893 15.6729 14.2431 16.2962C13.8923 16.6965 13.5418 17.1346 13.2449 17.6187L13.2049 17.5789C13.1291 17.5033 13.0911 17.4654 13.053 17.4284C12.34 16.7366 11.5014 16.1866 10.5819 15.8078C10.5328 15.7876 10.4829 15.7678 10.3832 15.7283L9.77243 15.4863C8.94505 15.1585 8.72454 14.0933 9.35411 13.4657C11.1609 11.6644 13.3303 9.50159 14.3772 9.0672C15.3006 8.6841 16.298 8.55664 17.2599 8.6988C18.1414 8.82906 18.9752 9.28181 20.3369 10.1421Z" fill="#6877EB"/>
<path d="M27.3409 31.6748C27.6715 32.0103 27.891 32.2473 28.0894 32.5004C28.3513 32.8346 28.5855 33.1895 28.7895 33.5615C29.0193 33.9804 29.1976 34.4278 29.5544 35.3227C29.8448 36.0512 30.8095 36.2437 31.3698 35.685L31.5054 35.5499C33.3122 33.7485 35.4815 31.5857 35.9172 30.5419C36.3014 29.6214 36.4293 28.6269 36.2867 27.6679C36.1561 26.7892 35.702 25.958 34.8394 24.6007L30.7237 28.704C29.9527 29.4728 29.2457 30.1777 28.6062 30.7299C28.2231 31.0608 27.8038 31.3916 27.3409 31.6748Z" fill="#6877EB"/>
<path fill-rule="evenodd" clip-rule="evenodd" d="M29.0667 26.9389L38.4974 17.5367C39.8555 16.1826 40.5346 15.5056 40.8923 14.6446C41.25 13.7837 41.25 12.8262 41.25 10.9113V9.99649C41.25 7.05186 41.25 5.57955 40.3325 4.66478C39.4149 3.75 37.9382 3.75 34.9846 3.75H34.0671C32.1464 3.75 31.186 3.75 30.3225 4.10661C29.4589 4.46323 28.7798 5.14026 27.4217 6.49432L17.991 15.8966C16.404 17.4788 15.42 18.4599 15.039 19.4074C14.9186 19.7068 14.8584 20.0029 14.8584 20.3135C14.8584 21.6072 15.9026 22.6483 17.991 24.7304L18.2717 25.0103L21.5597 21.6733C22.0287 21.1974 22.7946 21.1917 23.2705 21.6606C23.7464 22.1295 23.7521 22.8954 23.2831 23.3713L19.9851 26.7185L20.2062 26.9389C22.2946 29.0211 23.3389 30.0621 24.6365 30.0621C24.9232 30.0621 25.1975 30.0113 25.4735 29.9097C26.4465 29.5513 27.4397 28.561 29.0667 26.9389ZM33.4972 15.8973C32.2738 17.117 30.2903 17.117 29.0669 15.8973C27.8435 14.6776 27.8435 12.7 29.0669 11.4803C30.2903 10.2606 32.2738 10.2606 33.4972 11.4803C34.7206 12.7 34.7206 14.6776 33.4972 15.8973Z" fill="#6877EB"/>
</svg>
