<svg width="85" height="85" viewBox="0 0 85 85" fill="none" xmlns="http://www.w3.org/2000/svg">
<g filter="url(#filter0_d_230_26)">
<rect x="10" y="10" width="65" height="65" rx="10" fill="white"/>
</g>
<path d="M26.7949 55C26.6496 55 26.5024 54.9655 26.3704 54.8932C25.9991 54.6899 25.8884 54.2643 26.1234 53.9427L31.4886 46.5973C31.7542 46.2232 32.2148 46 32.7225 46C33.2334 46 33.6965 46.2258 33.9612 46.6042L34.8847 47.924C35.1124 48.2493 34.9924 48.6731 34.6166 48.8703C34.2407 49.0675 33.7515 48.9636 33.5239 48.6381L32.72 47.4894L27.4681 54.6793C27.3166 54.8865 27.0587 55 26.7949 55Z" fill="#377FD2"/>
<path d="M33.9999 55L42.1522 43.4114C42.538 42.8629 43.4618 42.8629 43.8476 43.4114L51.9999 54.6599" fill="#CEE8FA"/>
<path d="M33.8171 55C33.6726 55 33.5265 54.967 33.394 54.8977C33.0076 54.6958 32.8844 54.262 33.1184 53.9288L40.9826 42.737C41.3069 42.2755 41.874 42 42.4998 42C43.1237 42 43.6893 42.2739 44.0141 42.7328L51.8757 53.5925C52.1149 53.923 51.9982 54.3582 51.615 54.5645C51.232 54.7709 50.7273 54.6702 50.4881 54.3398L42.6239 43.4764C42.622 43.4737 42.6201 43.471 42.6183 43.4684C42.5915 43.4302 42.5518 43.411 42.4999 43.411C42.4483 43.411 42.4085 43.4303 42.3817 43.4684L34.5173 54.6602C34.3634 54.8791 34.0936 55 33.8171 55Z" fill="#377FD2"/>
<path d="M32.5494 42.2578C34.0449 42.2578 35.2573 41.0454 35.2573 39.5499C35.2573 38.0544 34.0449 36.842 32.5494 36.842C31.0539 36.842 29.8416 38.0544 29.8416 39.5499C29.8416 41.0454 31.0539 42.2578 32.5494 42.2578Z" fill="#CEE8FA"/>
<path d="M32.5496 43.0992C30.5923 43.0992 29 41.5069 29 39.5496C29 37.5924 30.5923 36 32.5496 36C34.5068 36 36.0992 37.5924 36.0992 39.5496C36.0992 41.5069 34.5067 43.0992 32.5496 43.0992ZM32.5496 37.6841C31.5209 37.6841 30.684 38.5209 30.684 39.5497C30.684 40.5783 31.5208 41.4152 32.5496 41.4152C33.5783 41.4152 34.4152 40.5784 34.4152 39.5497C34.4152 38.5209 33.5782 37.6841 32.5496 37.6841Z" fill="#377FD2"/>
<path d="M53.2354 39.4681C52.8132 39.4681 52.4708 39.1246 52.4708 38.7008V36.7717C52.4708 35.934 51.7917 35.2525 50.957 35.2525H28.043C27.2084 35.2525 26.5292 35.934 26.5292 36.7717V37.9334L25.6602 37.9263C26.0825 37.9263 26.4249 38.2698 26.4249 38.6936C26.4249 39.1174 26.0824 39.461 25.6602 39.461L25.7646 39.4681C25.3424 39.4681 25 39.1246 25 38.7008V36.7717C25 35.0878 26.3651 33.7178 28.043 33.7178H50.957C52.6349 33.7178 54 35.0878 54 36.7717V38.7008C54 39.1246 53.6576 39.4681 53.2354 39.4681Z" fill="#377FD2"/>
<path d="M50.957 55.9307H28.043C26.3651 55.9307 25 54.5607 25 52.8768V50.5808C25 50.157 25.3424 49.8135 25.7646 49.8135C26.1868 49.8135 26.5292 50.157 26.5292 50.5808V52.8769C26.5292 53.7145 27.2083 54.396 28.043 54.396H50.957C51.7917 54.396 52.4708 53.7145 52.4708 52.8769V51.3482H53.4578C53.0356 51.3482 52.6932 51.0047 52.6932 50.5809C52.6932 50.1571 53.0356 49.8135 53.4578 49.8135H53.2354C53.6577 49.8135 54 50.1571 54 50.5809V52.8769C54 54.5607 52.6349 55.9307 50.957 55.9307Z" fill="#377FD2"/>
<path d="M53.2354 52.3826C52.8132 52.3826 52.4708 52.039 52.4708 51.6152V36.6492C52.4708 36.2254 52.8132 35.8818 53.2354 35.8818C53.6577 35.8818 54.0001 36.2254 54.0001 36.6492V51.6152C54.0001 52.039 53.6576 52.3826 53.2354 52.3826Z" fill="#377FD2"/>
<path d="M42.2353 59.0001H37.1887C36.7664 59.0001 36.4241 58.6565 36.4241 58.2327V55.1633C36.4241 54.7395 36.7665 54.396 37.1887 54.396C37.6109 54.396 37.9533 54.7395 37.9533 55.1633V57.4653H41.4706V55.1633C41.4706 54.7395 41.813 54.396 42.2352 54.396C42.6575 54.396 42.9999 54.7395 42.9999 55.1633V58.2327C42.9999 58.6565 42.6576 59.0001 42.2353 59.0001Z" fill="#377FD2"/>
<path d="M45.5908 59H33.7645C33.3422 59 32.9999 58.6565 32.9999 58.2327C32.9999 57.8089 33.3423 57.4653 33.7645 57.4653H45.5908C46.0131 57.4653 46.3554 57.8089 46.3554 58.2327C46.3554 58.6565 46.0131 59 45.5908 59Z" fill="#377FD2"/>
<path d="M25.7646 51.8997C25.3424 51.8997 25 51.5562 25 51.1324V36.9337C25 36.5099 25.3424 36.1664 25.7646 36.1664C26.1868 36.1664 26.5292 36.5099 26.5292 36.9337V51.1324C26.5293 51.5562 26.1869 51.8997 25.7646 51.8997Z" fill="#377FD2"/>
<rect x="48" y="27" width="11" height="11" rx="3" fill="#CEE8FA"/>
<path d="M56.5949 39H50.4052C48.5276 39 47 37.4704 47 35.5904V29.4097C47 27.5296 48.5276 26 50.4052 26H56.5949C58.4725 26 60 27.5296 60 29.4097V35.5903C60.0001 37.4704 58.4725 39 56.5949 39ZM50.4052 27.3502C49.2711 27.3502 48.3484 28.2741 48.3484 29.4097V35.5904C48.3484 36.726 49.2711 37.6497 50.4052 37.6497H56.5949C57.7289 37.6497 58.6516 36.7259 58.6516 35.5904V29.4097C58.6516 28.2741 57.7289 27.3503 56.5949 27.3503L50.4052 27.3502Z" fill="#377FD2"/>
<path d="M50.603 34.1667C50.5503 34.1668 50.4982 34.1572 50.4496 34.1385C50.401 34.1199 50.3568 34.0925 50.3196 34.058L49.1174 32.945C49.0492 32.8819 49.0078 32.7981 49.001 32.709C48.9942 32.6199 49.0223 32.5316 49.0802 32.4602L50.2825 30.9761C50.347 30.8995 50.4414 30.8495 50.5454 30.8366C50.6495 30.8238 50.7547 30.8493 50.8387 30.9075C50.9226 30.9658 50.9786 31.0522 50.9944 31.1483C51.0103 31.2443 50.9848 31.3422 50.9235 31.4211L49.9299 32.6479L50.8863 33.5334C50.9411 33.5857 50.9781 33.6517 50.9929 33.7233C51.0076 33.7949 50.9994 33.8689 50.9693 33.9362C50.9392 34.0035 50.8885 34.0612 50.8234 34.1022C50.7583 34.1431 50.6817 34.1656 50.603 34.1667Z" fill="#377FD2"/>
<path d="M56.3972 34.1667C56.3185 34.1656 56.2419 34.1431 56.1768 34.1022C56.1117 34.0612 56.0609 34.0035 56.0308 33.9362C56.0007 33.8689 55.9925 33.7949 56.0073 33.7233C56.022 33.6517 56.0591 33.5857 56.1138 33.5334L57.0703 32.6478L56.0766 31.421C56.0154 31.3421 55.99 31.2442 56.0058 31.1482C56.0217 31.0522 56.0776 30.9658 56.1616 30.9075C56.2455 30.8493 56.3508 30.8238 56.4547 30.8366C56.5587 30.8494 56.6531 30.8995 56.7177 30.976L57.9199 32.4601C57.9778 32.5315 58.006 32.6199 57.9991 32.709C57.9923 32.798 57.9509 32.8818 57.8827 32.9449L56.6805 34.058C56.6433 34.0925 56.5992 34.1199 56.5505 34.1385C56.5019 34.1572 56.4498 34.1668 56.3972 34.1667Z" fill="#377FD2"/>
<path d="M52.4997 35C52.4194 34.9996 52.3405 34.9844 52.2694 34.9557C52.1983 34.927 52.1372 34.8856 52.0912 34.8351C52.0451 34.7845 52.0154 34.7262 52.0047 34.665C51.9939 34.6038 52.0023 34.5415 52.0292 34.4834L54.0315 30.248C54.0783 30.1535 54.1716 30.077 54.2911 30.0349C54.4107 29.9928 54.547 29.9886 54.6705 30.0232C54.7941 30.0578 54.895 30.1283 54.9515 30.2196C55.008 30.3109 55.0156 30.4157 54.9725 30.5112L52.9702 34.7466C52.9351 34.8209 52.8711 34.885 52.7869 34.9304C52.7027 34.9757 52.6025 35 52.4997 35Z" fill="#377FD2"/>
<defs>
<filter id="filter0_d_230_26" x="0" y="0" width="85" height="85" filterUnits="userSpaceOnUse" color-interpolation-filters="sRGB">
<feFlood flood-opacity="0" result="BackgroundImageFix"/>
<feColorMatrix in="SourceAlpha" type="matrix" values="0 0 0 0 0 0 0 0 0 0 0 0 0 0 0 0 0 0 127 0" result="hardAlpha"/>
<feOffset/>
<feGaussianBlur stdDeviation="5"/>
<feComposite in2="hardAlpha" operator="out"/>
<feColorMatrix type="matrix" values="0 0 0 0 0.240719 0 0 0 0 0.434868 0 0 0 0 0.662782 0 0 0 0.2 0"/>
<feBlend mode="normal" in2="BackgroundImageFix" result="effect1_dropShadow_230_26"/>
<feBlend mode="normal" in="SourceGraphic" in2="effect1_dropShadow_230_26" result="shape"/>
</filter>
</defs>
</svg>
