<svg width="45" height="45" viewBox="0 0 45 45" fill="none" xmlns="http://www.w3.org/2000/svg">
<path fill-rule="evenodd" clip-rule="evenodd" d="M3.75 22.5C3.75 13.6612 3.75 9.24175 6.49587 6.49587C9.24175 3.75 13.6612 3.75 22.5 3.75C31.3388 3.75 35.7583 3.75 38.5041 6.49587C41.25 9.24175 41.25 13.6612 41.25 22.5C41.25 31.3388 41.25 35.7583 38.5041 38.5041C35.7583 41.25 31.3388 41.25 22.5 41.25C13.6612 41.25 9.24175 41.25 6.49587 38.5041C3.75 35.7583 3.75 31.3388 3.75 22.5ZM14.1655 23.8978C13.6431 23.3231 12.7537 23.2808 12.1791 23.8032C11.6044 24.3256 11.562 25.215 12.0845 25.7897L16.772 30.9459C17.0385 31.2391 17.4163 31.4062 17.8125 31.4062C18.2087 31.4062 18.5865 31.2391 18.853 30.9459L23.5405 25.7897C24.063 25.215 24.0206 24.3256 23.4459 23.8032C22.8713 23.2808 21.9819 23.3231 21.4595 23.8978L19.2187 26.3626V15C19.2187 14.2233 18.5891 13.5938 17.8125 13.5938C17.0358 13.5938 16.4062 14.2233 16.4062 15V26.3626L14.1655 23.8978ZM21.5541 21.1968C22.1287 21.7192 23.0181 21.6769 23.5405 21.1022L25.7812 18.6374L25.7813 30C25.7813 30.7767 26.4109 31.4062 27.1875 31.4062C27.9642 31.4062 28.5938 30.7766 28.5938 30L28.5938 18.6374L30.8345 21.1022C31.3569 21.6769 32.2463 21.7192 32.8209 21.1968C33.3956 20.6744 33.438 19.785 32.9155 19.2103L28.228 14.0541C27.9615 13.7609 27.5837 13.5937 27.1875 13.5937C26.7913 13.5937 26.4135 13.7609 26.147 14.0541L21.4595 19.2103C20.937 19.785 20.9794 20.6744 21.5541 21.1968Z" fill="#6877EB"/>
</svg>
