<svg width="85" height="85" viewBox="0 0 85 85" fill="none" xmlns="http://www.w3.org/2000/svg">
<g filter="url(#filter0_d_230_27)">
<rect x="10" y="10" width="65" height="65" rx="10" fill="white"/>
</g>
<path d="M31.7574 52.3475L28.7943 55.3106C27.9537 56.1512 27.9537 57.5268 28.7943 58.3673C29.6349 59.208 31.0105 59.208 31.851 58.3673L35.0265 55.1919C33.7946 54.4166 32.6921 53.4554 31.7574 52.3475Z" fill="#CEE8FA"/>
<path d="M30.3226 59.9534C29.4883 59.9534 28.7056 59.6301 28.1186 59.0431C26.9032 57.8278 26.9032 55.8503 28.1186 54.6349L31.8171 50.9364L32.4877 51.7313C33.3633 52.7691 34.3887 53.6614 35.5355 54.3832L36.5488 55.0209L32.5267 59.0431C31.9397 59.6301 31.1569 59.9534 30.3226 59.9534ZM31.7229 53.7334L29.47 55.9864C28.9998 56.4565 28.9998 57.2216 29.47 57.6918C29.6961 57.9179 29.9989 58.0424 30.3227 58.0424C30.6464 58.0424 30.9493 57.9179 31.1754 57.6918L33.5382 55.329C32.8914 54.8468 32.2848 54.3136 31.7229 53.7334Z" fill="#377FD2"/>
<path d="M56.2058 55.3106L53.2427 52.3475C52.3081 53.4554 51.2054 54.4166 49.9736 55.192L53.1491 58.3674C53.9897 59.208 55.3653 59.208 56.2058 58.3674C57.0464 57.5268 57.0464 56.1512 56.2058 55.3106Z" fill="#CEE8FA"/>
<path d="M54.6774 59.9534C53.8431 59.9534 53.0604 59.6301 52.4734 59.0431L48.4513 55.0211L49.4645 54.3833C50.6114 53.6614 51.6368 52.7692 52.5123 51.7314L53.183 50.9365L56.8815 54.635C58.0969 55.8504 58.0969 57.8279 56.8815 59.0433C56.2944 59.6301 55.5116 59.9534 54.6774 59.9534ZM51.4619 55.329L53.8247 57.6917C54.0508 57.9178 54.3536 58.0423 54.6775 58.0423C55.0013 58.0423 55.3041 57.9179 55.5301 57.6917C56.0004 57.2216 56.0004 56.4565 55.5301 55.9863L53.2773 53.7333C52.7151 54.3136 52.1086 54.8468 51.4619 55.329Z" fill="#377FD2"/>
<path d="M37.7224 30.0616C36.8983 27.6985 34.6518 26.0023 32.0078 26.0023C28.6652 26.0023 25.9556 28.7119 25.9556 32.0544C25.9556 34.5276 27.4397 36.6528 29.5652 37.5918C30.923 33.9537 33.9538 31.1312 37.7224 30.0616Z" fill="#CEE8FA"/>
<path d="M30.1061 38.8752L29.179 38.4656C26.6404 37.3443 25 34.8277 25 32.0545C25 28.1905 28.1436 25.0468 32.0077 25.0468C34.985 25.0468 37.6442 26.9357 38.6246 29.7469L38.9584 30.7041L37.9832 30.9808C34.5298 31.9609 31.7177 34.5572 30.4605 37.9259L30.1061 38.8752ZM32.0077 26.9579C29.1974 26.9579 26.9111 29.2442 26.9111 32.0544C26.9111 33.7413 27.746 35.2978 29.0997 36.2393C30.5666 33.1343 33.2027 30.7005 36.4115 29.4888C35.5109 27.9441 33.8424 26.9579 32.0077 26.9579Z" fill="#377FD2"/>
<path d="M52.9922 26.0023C50.3482 26.0023 48.1016 27.6985 47.2776 30.0616C51.0462 31.1312 54.077 33.9537 55.4346 37.5917C57.5601 36.6527 59.0443 34.5275 59.0443 32.0543C59.0444 28.7119 56.3347 26.0023 52.9922 26.0023Z" fill="#CEE8FA"/>
<path d="M54.8938 38.8752L54.5395 37.9257C53.2823 34.5571 50.4702 31.9608 47.0168 30.9806L46.0416 30.7039L46.3754 29.7467C47.3558 26.9355 50.0149 25.0466 52.9923 25.0466C56.8563 25.0466 59.9999 28.1903 59.9999 32.0543C59.9999 34.8274 58.3596 37.3441 55.8208 38.4656L54.8938 38.8752ZM48.5885 29.489C51.7973 30.7006 54.4334 33.1344 55.9003 36.2395C57.254 35.2979 58.0889 33.7414 58.0889 32.0546C58.0889 29.2443 55.8025 26.958 52.9923 26.958C51.1576 26.9579 49.489 27.9441 48.5885 29.489Z" fill="#377FD2"/>
<path d="M42.5 58.2992C34.2262 58.2992 27.495 51.568 27.495 43.2942C27.495 35.0203 34.2261 28.289 42.5 28.289C50.7739 28.289 57.505 35.0202 57.505 43.294C57.505 51.5678 50.7738 58.2992 42.5 58.2992ZM42.5 30.2001C35.28 30.2001 29.406 36.074 29.406 43.294C29.406 50.514 35.28 56.388 42.5 56.388C49.72 56.388 55.594 50.514 55.594 43.294C55.594 36.074 49.7199 30.2001 42.5 30.2001Z" fill="#377FD2"/>
<path d="M42.5001 55.0569C36.014 55.0569 30.7372 49.7801 30.7372 43.2941C30.7372 36.808 36.0139 31.5312 42.5001 31.5312V33.4423C37.0677 33.4423 32.6482 37.8617 32.6482 43.2941C32.6482 48.7265 37.0677 53.1459 42.5001 53.1459C47.9324 53.1459 52.3519 48.7264 52.3519 43.2941H54.2629C54.2629 49.7802 48.9861 55.0569 42.5001 55.0569Z" fill="#377FD2"/>
<path d="M42.6887 45.5374L37.7498 43.068L38.6044 41.3587L42.3113 43.212L47.2279 38.2955L48.5794 39.6468L42.6887 45.5374Z" fill="#377FD2"/>
<defs>
<filter id="filter0_d_230_27" x="0" y="0" width="85" height="85" filterUnits="userSpaceOnUse" color-interpolation-filters="sRGB">
<feFlood flood-opacity="0" result="BackgroundImageFix"/>
<feColorMatrix in="SourceAlpha" type="matrix" values="0 0 0 0 0 0 0 0 0 0 0 0 0 0 0 0 0 0 127 0" result="hardAlpha"/>
<feOffset/>
<feGaussianBlur stdDeviation="5"/>
<feComposite in2="hardAlpha" operator="out"/>
<feColorMatrix type="matrix" values="0 0 0 0 0.240719 0 0 0 0 0.434868 0 0 0 0 0.662782 0 0 0 0.2 0"/>
<feBlend mode="normal" in2="BackgroundImageFix" result="effect1_dropShadow_230_27"/>
<feBlend mode="normal" in="SourceGraphic" in2="effect1_dropShadow_230_27" result="shape"/>
</filter>
</defs>
</svg>
