<svg width="853" height="49" viewBox="0 0 853 49" fill="none" xmlns="http://www.w3.org/2000/svg">
<path fill-rule="evenodd" clip-rule="evenodd" d="M57.1297 47.8116L57.0522 48.8086C58.6848 48.9354 60.3349 49 62 49H67.0625V48V47H62C60.3866 47 58.7882 46.9374 57.2071 46.8146L57.1297 47.8116ZM785.938 48V49H791C792.665 49 794.315 48.9354 795.948 48.8086L795.87 47.8116L795.793 46.8146C794.212 46.9374 792.613 47 791 47H785.938V48ZM805.481 46.3001L805.713 47.2726C808.952 46.4978 812.093 45.4729 815.116 44.2195L814.733 43.2958L814.35 42.3721C811.424 43.5854 808.383 44.5775 805.248 45.3275L805.481 46.3001ZM823.398 38.8723L823.921 39.7245C826.74 37.9933 829.413 36.0464 831.916 33.9068L831.266 33.1467L830.616 32.3866C828.192 34.4586 825.604 36.3439 822.875 38.0202L823.398 38.8723ZM838.147 26.2659L838.907 26.9157C841.046 24.4129 842.993 21.7404 844.724 18.9213L843.872 18.398L843.02 17.8747C841.344 20.6044 839.459 23.1923 837.387 25.6161L838.147 26.2659ZM848.296 9.73259L849.22 10.1156C850.473 7.09309 851.498 3.95184 852.273 0.713425L851.3 0.480743L850.328 0.248047C849.578 3.38287 848.585 6.42361 847.372 9.34953L848.296 9.73259ZM1.69997 0.480743L0.727417 0.71344C1.50222 3.95186 2.5271 7.09311 3.7805 10.1156L4.70422 9.73259L5.62795 9.34955C4.41462 6.42363 3.42254 3.38289 2.67252 0.248062L1.69997 0.480743ZM9.12772 18.398L8.27557 18.9213C10.0068 21.7404 11.9537 24.4129 14.0933 26.9157L14.8534 26.2659L15.6135 25.6161C13.5414 23.1923 11.6561 20.6044 9.97987 17.8747L9.12772 18.398ZM21.7341 33.1467L21.0843 33.9068C23.5871 36.0464 26.2596 37.9932 29.0788 39.7245L29.6021 38.8723L30.1254 38.0202C27.3957 36.3439 24.8077 34.4586 22.3839 32.3865L21.7341 33.1467ZM38.2674 43.2958L37.8844 44.2195C40.9069 45.4729 44.0482 46.4978 47.2866 47.2726L47.5193 46.3001L47.752 45.3275C44.6172 44.5775 41.5764 43.5854 38.6505 42.3721L38.2674 43.2958ZM775.812 48V49H765.688V48V47H775.812V48ZM755.562 48V49H745.438V48V47H755.562V48ZM735.312 48V49H725.188V48V47H735.312V48ZM715.062 48V49H704.938V48V47H715.062V48ZM694.812 48V49H684.688V48V47H694.812V48ZM674.562 48V49H664.438V48V47H674.562V48ZM654.312 48V49H644.188V48V47H654.312V48ZM634.062 48V49H623.938V48V47H634.062V48ZM613.812 48V49H603.688V48V47H613.812V48ZM593.562 48V49H583.438V48V47H593.562V48ZM573.312 48V49H563.188V48V47H565.648L565.481 46.3001L565.248 45.3275C568.383 44.5775 571.424 43.5854 574.349 42.3721L574.733 43.2958L575.116 44.2195C572.435 45.3311 569.661 46.2629 566.809 47H573.312V48ZM553.062 48.9669V49H551H545.812H542.938V48V47H545.812H551C552.613 47 554.212 46.9374 555.793 46.8146L555.87 47.8116L555.948 48.8086C554.992 48.8828 554.03 48.9358 553.062 48.9669ZM522.688 47H525.062H532.812H535.438V48V49H532.812H525.062H522.688V48V47ZM502.438 47H504.313H512.563H514.688V48V49H512.563H504.313H502.438V48V47ZM482.188 47H483.563H492.313H493.938V48V49H492.313H483.563H482.188V48V47ZM461.938 47H462.813H472.063H473.188V48V49H472.063H462.813H461.938V48V47ZM441.688 47H442.063H451.813H452.438V48V49H451.813H442.063H441.688V48V47ZM421.438 47H421.313V48V49H421.438H426.5H431.563H431.688V48V47H431.563H426.5H421.438ZM411.313 48V49H410.938H401.188H400.563V48V47H401.188H410.938H411.313V48ZM391.063 48V49H390.188H380.938H379.813V48V47H380.938H390.188H391.063V48ZM370.813 48V49H369.438H360.688H359.063V48V47H360.688H369.438H370.813V48ZM350.563 48V49H348.688H340.438H338.313V48V47H340.438H348.688H350.563V48ZM330.313 48V49H327.938H320.188H317.563V48V47H320.188H327.938H330.313V48ZM310.063 48V49H307.188H302H299.938V48.9669C298.97 48.9358 298.008 48.8828 297.052 48.8086L297.13 47.8116L297.207 46.8146C298.788 46.9374 300.387 47 302 47H307.188H310.063V48ZM289.813 48V49H279.688V48V47H286.191C283.339 46.2629 280.565 45.3311 277.884 44.2195L278.267 43.2958L278.651 42.3721C281.576 43.5854 284.617 44.5775 287.752 45.3275L287.519 46.3001L287.352 47H289.813V48ZM269.563 48V49H259.438V48V47H269.563V48ZM249.313 48V49H239.188V48V47H249.313V48ZM229.063 48V49H218.938V48V47H229.063V48ZM208.813 48V49H198.688V48V47H208.813V48ZM188.563 48V49H178.438V48V47H188.563V48ZM168.313 48V49H158.188V48V47H168.313V48ZM148.063 48V49H137.938V48V47H148.063V48ZM127.813 48V49H117.688V48V47H127.813V48ZM107.563 48V49H97.4375V48V47H107.563V48ZM87.3125 48V49H77.1875V48V47H87.3125V48ZM583.398 38.8723L583.921 39.7245C586.74 37.9933 589.413 36.0464 591.916 33.9068L591.266 33.1467L590.616 32.3866C588.192 34.4586 585.604 36.3439 582.875 38.0202L583.398 38.8723ZM598.147 26.2659L598.907 26.9157C601.046 24.4129 602.993 21.7404 604.724 18.9213L603.872 18.398L603.02 17.8747C601.344 20.6044 599.459 23.1923 597.387 25.6161L598.147 26.2659ZM608.296 9.73259L609.219 10.1156C610.473 7.09311 611.498 3.95184 612.273 0.713425L611.3 0.480743L610.328 0.248047C609.578 3.38287 608.585 6.42361 607.372 9.34953L608.296 9.73259ZM241.7 0.480743L240.727 0.71344C241.502 3.95186 242.527 7.09311 243.781 10.1156L244.704 9.73259L245.628 9.34955C244.415 6.42363 243.423 3.38289 242.673 0.248062L241.7 0.480743ZM249.128 18.398L248.276 18.9213C250.007 21.7404 251.954 24.4129 254.093 26.9157L254.853 26.2659L255.613 25.6161C253.541 23.1923 251.656 20.6044 249.98 17.8747L249.128 18.398ZM261.734 33.1467L261.084 33.9068C263.587 36.0464 266.26 37.9932 269.079 39.7245L269.602 38.8723L270.125 38.0202C267.396 36.3439 264.808 34.4586 262.384 32.3865L261.734 33.1467Z" fill="#377FD2"/>
</svg>
